<svg width="38" height="35" viewBox="0 0 38 35" fill="none" xmlns="http://www.w3.org/2000/svg">
<path d="M0.5 34.0855L4.00537 13.2462C4.11621 12.8444 4.58729 12.5881 4.91981 12.6227C5.32161 12.7336 5.57794 13.1008 5.5433 13.4956L2.18341 33.4551H35.3182L32.8381 18.3868C32.7272 17.985 33.0598 17.5485 33.4616 17.5139C33.8634 17.403 34.2998 17.7355 34.3344 18.1374L37.0016 34.0855C37.1124 34.522 36.7452 34.9584 36.4196 35H1.26896C0.832525 35 0.5 34.709 0.5 34.231V34.0855ZM4.33097 9.88618C3.562 8.53523 3.30568 7.07344 3.60357 5.54236C3.92917 3.97664 4.66349 2.69497 5.82733 1.67656C7.10201 0.547308 8.63994 0 10.3511 0C12.0622 0 13.6001 0.547308 14.8748 1.67656C15.5675 2.30008 16.0802 2.99287 16.482 3.75495C17.4657 5.68785 17.3964 8.06413 16.4058 9.95546C16.1495 10.5374 15.6022 11.2718 15.0203 12.1793C14.2929 13.2393 13.4477 14.5141 12.5402 16.0867C11.6257 17.6178 11.1547 18.8579 11.1547 19.7724H9.62366C9.62366 18.8579 9.14565 17.6178 8.23814 16.0867C7.32369 14.521 6.48545 13.2393 5.75805 12.1793C5.06529 11.1956 4.62885 10.4612 4.33789 9.87926L4.33097 9.88618ZM15.1311 9.19339C16.3019 7.115 15.7546 4.44774 13.9603 2.84046C12.9766 1.96754 11.695 1.52415 10.3857 1.52415C9.07638 1.52415 7.82941 1.96061 6.81105 2.84046C5.02373 4.44774 4.51108 7.14964 5.68185 9.19339C5.93817 9.66449 6.37461 10.4335 6.95653 11.2718C8.27277 13.0592 9.40198 14.9574 10.3857 16.9665C11.3694 14.9574 12.5055 13.0592 13.8149 11.2718C14.3968 10.3989 14.8748 9.66449 15.1311 9.19339ZM7.35833 27.4C7.79477 27.4 8.08573 27.691 8.08573 28.1275C8.08573 28.5639 7.79477 28.8965 7.35833 28.8965C6.92189 28.8965 6.58937 28.5709 6.58937 28.1275C6.58937 27.6841 6.91496 27.4 7.35833 27.4ZM10.3857 4.60016C11.7019 4.60016 12.651 5.58393 12.651 6.8656C12.651 8.14727 11.7019 9.16568 10.3857 9.16568C9.06945 9.16568 8.08573 8.14727 8.08573 6.8656C8.08573 5.58393 9.06945 4.60016 10.3857 4.60016ZM10.3095 27.407C10.7459 27.407 11.0785 27.6979 11.0785 28.1344C11.0785 28.5709 10.7529 28.9034 10.3095 28.9034C9.86613 28.9034 9.54053 28.5778 9.54053 28.1344C9.54053 27.691 9.86613 27.407 10.3095 27.407ZM10.3857 6.0966C9.94926 6.0966 9.61673 6.38757 9.61673 6.8656C9.61673 7.34363 9.94233 7.6346 10.3857 7.6346C10.8568 7.6346 11.1547 7.34363 11.1547 6.8656C11.1547 6.38757 10.8637 6.0966 10.3857 6.0966ZM10.3857 21.3104C10.8221 21.3104 11.1547 21.636 11.1547 22.0794C11.1547 22.5228 10.8291 22.8484 10.3857 22.8484C9.94233 22.8484 9.61673 22.5228 9.61673 22.0794C9.61673 21.636 9.94233 21.3104 10.3857 21.3104ZM10.3857 24.3379C10.8221 24.3379 11.1547 24.6635 11.1547 25.1069C11.1547 25.5503 10.8291 25.8759 10.3857 25.8759C9.94233 25.8759 9.61673 25.5503 9.61673 25.1069C9.61673 24.6635 9.94233 24.3379 10.3857 24.3379ZM13.2676 27.4C13.704 27.4 14.0365 27.691 14.0365 28.1275C14.0365 28.5639 13.7109 28.8965 13.2676 28.8965C12.8658 28.8965 12.4986 28.5709 12.4986 28.1275C12.4986 27.6841 12.8658 27.4 13.2676 27.4ZM16.3296 27.4C16.766 27.4 17.057 27.691 17.057 28.1275C17.057 28.5639 16.766 28.8965 16.3296 28.8965C15.8931 28.8965 15.526 28.5709 15.526 28.1275C15.526 27.6841 15.8931 27.4 16.3296 27.4ZM19.2877 27.4C19.7241 27.4 20.0151 27.691 20.0151 28.1275C20.0151 28.5639 19.7241 28.8965 19.2877 28.8965C18.8512 28.8965 18.5187 28.5709 18.5187 28.1275C18.5187 27.6841 18.8443 27.4 19.2877 27.4ZM23.1533 18.2067L21.4768 15.6502C20.6386 14.3755 20.0151 13.4956 19.7587 12.7682C19.2461 11.9299 18.9205 11.0154 18.775 10.0317C18.4494 8.13341 18.8097 6.23515 19.8003 4.52395C20.2714 3.65103 20.8602 2.88203 21.6223 2.22387C22.4605 1.49644 23.4096 0.949129 24.3933 0.547308C26.437 -0.180127 28.4806 -0.180127 30.5243 0.547308C31.508 0.949129 32.4224 1.49644 33.2607 2.22387C34.0296 2.84739 34.6115 3.60946 35.0826 4.48931C36.0663 6.13124 36.3989 8.06413 36.1079 9.99703C35.9624 10.9808 35.6299 11.8953 35.1588 12.7682C34.8679 13.4956 34.1405 14.4863 33.3715 15.6502C32.8242 16.4192 32.2769 17.2575 31.695 18.2067C30.4203 20.0703 29.395 21.927 28.7023 23.6451C28.3767 24.4834 28.1896 25.2524 28.1896 25.869H26.6586C26.6586 25.2454 26.4785 24.4834 26.1114 23.6451C25.4879 21.927 24.3587 20.0703 23.1533 18.2067ZM33.9534 12.1101C35.0133 10.0663 35.048 7.55146 34.0296 5.50772C33.6278 4.73872 33.0459 3.97664 32.3531 3.35313C31.0023 2.22387 29.2496 1.53108 27.4969 1.53108C25.6334 1.53108 23.9915 2.22387 22.6406 3.35313C21.366 4.4131 20.597 5.79869 20.2714 7.44062C19.9804 9.08254 20.2368 10.6136 21.0404 12.1101C21.3313 12.692 22.0241 13.6827 22.793 14.8466C24.5804 17.3614 26.1876 20.0287 27.4969 22.8414C28.8478 20.0287 30.3441 17.3684 32.2007 14.8466C32.9697 13.6758 33.6209 12.5812 33.9534 12.1101ZM22.2388 27.4C22.6753 27.4 22.9662 27.691 22.9662 28.1275C22.9662 28.5639 22.6753 28.8965 22.2388 28.8965C21.8024 28.8965 21.4699 28.5709 21.4699 28.1275C21.4699 27.6841 21.7955 27.4 22.2388 27.4ZM25.1969 27.4C25.6334 27.4 25.9659 27.691 25.9659 28.1275C25.9659 28.5639 25.6403 28.8965 25.1969 28.8965C24.7536 28.8965 24.428 28.5709 24.428 28.1275C24.428 27.6841 24.7536 27.4 25.1969 27.4ZM27.4207 6.08967C28.917 6.08967 30.1571 7.26049 30.1571 8.82621C30.1571 10.3919 28.917 11.5627 27.4207 11.5627C25.8481 11.5627 24.6496 10.3226 24.6496 8.82621C24.6496 7.32977 25.855 6.08967 27.4207 6.08967ZM27.4207 7.55146C26.7279 7.55146 26.1806 8.06413 26.1806 8.75693C26.1806 9.44972 26.7279 9.96239 27.4207 9.96239C28.1134 9.96239 28.6261 9.44972 28.6261 8.75693C28.6261 8.06413 28.1134 7.55146 27.4207 7.55146ZM28.1896 27.4C28.5914 27.4 28.9586 27.691 28.9586 28.1275C28.9586 28.5639 28.5914 28.8965 28.1896 28.8965C27.7532 28.8965 27.4207 28.5709 27.4207 28.1275C27.4207 27.6841 27.7463 27.4 28.1896 27.4Z" fill="black"/>
</svg>
