<svg width="50" height="50" viewBox="0 0 50 50" fill="none" xmlns="http://www.w3.org/2000/svg">
<g clip-path="url(#clip0_292_14770)">
<path d="M25.0028 2.0831L2.16992 24.916L25.0028 47.7489L47.8358 24.916L25.0028 2.0831Z" fill="white"/>
<path fill-rule="evenodd" clip-rule="evenodd" d="M24.9812 13.8027C24.5062 13.8777 24.0219 13.9152 23.5562 14.0371C21.9437 14.4527 21.2531 15.3871 21.4594 16.909C21.725 18.8621 22.0375 20.8059 22.3219 22.7559C22.5937 24.6027 22.8656 26.4496 23.1156 28.2996C23.2469 29.2652 23.9906 29.9777 24.9469 29.9996C25.9 30.0215 26.6937 29.3496 26.8406 28.3746C27.0844 26.759 27.3094 25.1371 27.5469 23.5215C27.8625 21.3684 28.1344 19.2059 28.5156 17.0652C28.8031 15.4652 28.1219 14.7809 26.975 14.2434C26.35 13.9496 25.6781 13.8496 24.9844 13.809L24.9812 13.8027ZM27.7719 34.4934C27.7437 34.309 27.7312 34.0652 27.6781 33.8309C27.35 32.359 25.8875 31.359 24.5 31.6621C23.3094 31.9184 22.5625 32.6746 22.2969 33.8371C22.0125 35.0902 22.3594 36.1809 23.4125 36.9652C24.2687 37.6059 25.2312 37.6746 26.1844 37.1965C27.25 36.6559 27.7219 35.7246 27.775 34.4934H27.7719Z" fill="#2B2B2B"/>
<path fill-rule="evenodd" clip-rule="evenodd" d="M24.9805 13.8031C25.6773 13.8437 26.3492 13.9437 26.9711 14.2375C28.118 14.775 28.7992 15.4562 28.5117 17.0594C28.1273 19.2031 27.8586 21.3625 27.543 23.5156C27.3055 25.1344 27.0805 26.7531 26.8367 28.3687C26.6898 29.3437 25.8961 30.0156 24.943 29.9938C23.9898 29.9719 23.243 29.2594 23.1117 28.2937C22.8617 26.4437 22.5867 24.5969 22.318 22.75C22.0305 20.8 21.7211 18.8562 21.4555 16.9031C21.2492 15.3812 21.9398 14.4469 23.5523 14.0312C24.018 13.9125 24.5023 13.8719 24.9773 13.7969L24.9805 13.8031Z" fill="#2B2B2B"/>
<path fill-rule="evenodd" clip-rule="evenodd" d="M27.7722 34.4968C27.7191 35.7281 27.2504 36.6593 26.1816 37.2C25.2285 37.6812 24.266 37.6093 23.4097 36.9687C22.3597 36.1843 22.0097 35.0937 22.2941 33.8406C22.5597 32.6781 23.3097 31.9218 24.4972 31.6656C25.8879 31.3656 27.3504 32.3656 27.6754 33.8343C27.7285 34.0687 27.741 34.3125 27.7691 34.4968H27.7722Z" fill="#2B2B2B"/>
<path d="M12.5777 12.5811L0.162109 24.9998L12.5809 37.4186L24.9996 49.8373L37.4184 37.4154L49.8371 24.9967L37.4215 12.5779C30.5934 5.7498 25.0059 0.15918 25.0059 0.15918C25.0059 0.15918 19.409 5.7498 12.5809 12.5811H12.5777ZM35.4527 14.5467L45.9059 24.9967L35.4527 35.4498L24.9965 45.9061L14.5496 35.4498L4.09961 24.9967L14.5496 14.5436C20.2965 8.79668 25.0027 4.09668 25.0027 4.09668C25.0027 4.09668 29.709 8.79668 35.4559 14.5467H35.4527Z" fill="#D62433"/>
</g>
<defs>
<clipPath id="clip0_292_14770">
<rect width="50" height="50" fill="white"/>
</clipPath>
</defs>
</svg>
