<svg width="34" height="49" viewBox="0 0 34 49" fill="none" xmlns="http://www.w3.org/2000/svg">
<path d="M0 44.3078V49H34V12.3856H29.6862C30.3881 11.1548 30.5668 9.57793 29.9159 8.16771C29.2778 6.75749 27.9887 5.64214 26.3551 5.23189C26.0616 5.16779 25.717 5.11651 25.3086 5.11651C25.3086 4.82164 25.2447 4.36012 25.1937 3.94987C25.015 3.30886 24.8491 2.78323 24.4407 2.12941C23.0368 -0.152587 19.9482 -0.626934 17.9062 0.834567C17.4977 1.12943 17.268 1.36019 17.0255 1.59096C16.732 1.36019 16.4384 1.00123 16.2087 0.834567C15.6854 0.539703 15.0473 0.193558 14.3453 0.129457C11.78 -0.34489 9.21472 1.36019 8.80631 3.93705C8.62763 4.3473 8.62763 4.82164 8.62763 5.10369C8.33408 5.10369 7.92568 5.16779 7.51727 5.21907C5.94745 5.62932 4.54354 6.68057 4.02027 8.15489C3.79054 8.7959 3.67568 9.44973 3.67568 9.97536C3.67568 10.9112 3.96922 11.6163 4.26276 12.3727H0V44.295V44.3078ZM31.6134 46.5385H20.7012V22.1033H31.6134V46.5385ZM31.6134 14.7829V19.7059H20.7012V14.7829H31.6134ZM25.8956 7.69336C26.5976 7.87285 27.4144 8.44976 27.708 9.21897C28.1164 9.92408 28.0015 10.7446 27.4782 11.3856C27.0698 12.0266 26.3168 12.3856 25.5511 12.3856H19.8333L23.8026 8.34719C24.4407 7.70619 25.2065 7.5267 25.9084 7.70619L25.8956 7.69336ZM18.1359 4.93703C18.1359 4.18063 18.5443 3.41142 19.0676 2.9499C19.476 2.71913 19.9482 2.60375 20.4077 2.60375C21.5691 2.60375 22.5008 3.42424 22.7432 4.5396C22.9219 5.24471 22.6284 6.11648 22.1051 6.65493L18.1359 10.642V4.93703ZM15.8003 14.7829H18.2508V46.5385H15.8003V14.7829ZM13.4137 2.59093C13.8859 2.59093 14.2943 2.70631 14.7027 2.93708C15.3408 3.34732 15.6982 4.05243 15.6982 4.92421V10.6035L11.6779 6.61647C11.2057 5.97546 11.0398 5.20625 11.0908 4.50114C11.3206 3.38578 12.2523 2.56529 13.4264 2.56529L13.4137 2.59093ZM6.24099 9.20615C6.6494 8.27027 7.4024 7.68054 8.3979 7.68054C9.03604 7.68054 9.50826 7.91131 9.96772 8.32155L13.988 12.3599H8.27027C7.51727 12.3599 6.7515 12.0138 6.45796 11.3599C5.98574 10.7189 5.98574 9.89844 6.22823 9.19333L6.24099 9.20615ZM2.45045 14.7701H13.4137V19.6931H2.45045V14.7701ZM2.45045 22.0904H13.4137V46.5257H2.45045V22.0904Z" fill="#6A31F7"/>
</svg>
