<svg width="22" height="22" viewBox="0 0 22 22" fill="none" xmlns="http://www.w3.org/2000/svg">
<g clip-path="url(#clip0_473_12954)">
<path d="M20.0631 17.6016C19.8103 17.6016 19.6177 17.7942 19.6177 18.0471C19.6177 18.2999 19.8103 18.4925 20.0631 18.4925C20.316 18.4925 20.5086 18.2999 20.5086 18.0471C20.5086 17.7942 20.316 17.6016 20.0631 17.6016ZM20.0631 12.3203C19.8103 12.3203 19.6177 12.5089 19.6177 12.7618C19.6177 13.0146 19.8103 13.2072 20.0631 13.2072C20.316 13.2072 20.5086 13.0146 20.5086 12.7618C20.5086 12.5089 20.316 12.3203 20.0631 12.3203ZM20.0631 7.03502C19.8103 7.03502 19.6177 7.22364 19.6177 7.47647C19.6177 7.7293 19.8103 7.92193 20.0631 7.92193C20.316 7.92193 20.5086 7.73331 20.5086 7.47647C20.5086 7.21963 20.316 7.03502 20.0631 7.03502ZM13.004 17.6016V18.4925H18.7508V17.6016H13.004ZM13.004 12.3203V13.2072H18.7508V12.3203H13.004ZM13.004 7.03502V7.92193H18.7508V7.03502H13.004ZM3.76579 17.6016V18.4925H9.49253V17.6016H3.76579ZM3.76579 12.3203V13.2072H9.49253V12.3203H3.76579ZM3.76579 7.03502V7.92193H9.49253V7.03502H3.76579ZM2.43343 17.6016C2.1806 17.6016 2.01205 17.7942 2.01205 18.0471C2.01205 18.2999 2.1806 18.4925 2.43343 18.4925C2.68625 18.4925 2.89895 18.2999 2.89895 18.0471C2.89895 17.7942 2.68625 17.6016 2.43343 17.6016ZM2.43343 12.3203C2.1806 12.3203 2.01205 12.5089 2.01205 12.7618C2.01205 13.0146 2.1806 13.2072 2.43343 13.2072C2.68625 13.2072 2.89895 13.0146 2.89895 12.7618C2.89895 12.5089 2.68625 12.3203 2.43343 12.3203ZM2.43343 7.03502C2.1806 7.03502 2.01205 7.22364 2.01205 7.47647C2.01205 7.7293 2.1806 7.92193 2.43343 7.92193C2.68625 7.92193 2.89895 7.73331 2.89895 7.47647C2.89895 7.21963 2.68625 7.03502 2.43343 7.03502ZM20.0631 18.4925C20.316 18.4925 20.5086 18.2999 20.5086 18.0471C20.5086 17.7942 20.316 17.6016 20.0631 17.6016C19.8103 17.6016 19.6177 17.7942 19.6177 18.0471C19.6177 18.2999 19.8103 18.4925 20.0631 18.4925ZM13.004 18.4925H18.7508V17.6016H13.004V18.4925ZM3.76579 18.4925H9.49253V17.6016H3.76579V18.4925ZM2.43343 17.6016C2.1806 17.6016 2.01205 17.7942 2.01205 18.0471C2.01205 18.2999 2.1806 18.4925 2.43343 18.4925C2.68625 18.4925 2.89895 18.2999 2.89895 18.0471C2.89895 17.7942 2.68625 17.6016 2.43343 17.6016ZM20.0631 13.2072C20.316 13.2072 20.5086 13.0146 20.5086 12.7618C20.5086 12.5089 20.316 12.3203 20.0631 12.3203C19.8103 12.3203 19.6177 12.5089 19.6177 12.7618C19.6177 13.0146 19.8103 13.2072 20.0631 13.2072ZM13.004 13.2072H18.7508V12.3203H13.004V13.2072ZM3.76579 13.2072H9.49253V12.3203H3.76579V13.2072ZM2.43343 12.3203C2.1806 12.3203 2.01205 12.5089 2.01205 12.7618C2.01205 13.0146 2.1806 13.2072 2.43343 13.2072C2.68625 13.2072 2.89895 13.0146 2.89895 12.7618C2.89895 12.5089 2.68625 12.3203 2.43343 12.3203ZM20.0631 7.92193C20.316 7.92193 20.5086 7.73331 20.5086 7.47647C20.5086 7.21963 20.316 7.03502 20.0631 7.03502C19.8103 7.03502 19.6177 7.22364 19.6177 7.47647C19.6177 7.7293 19.8103 7.92193 20.0631 7.92193ZM13.004 7.92193H18.7508V7.03502H13.004V7.92193ZM3.76579 7.92193H9.49253V7.03502H3.76579V7.92193ZM2.43343 7.03502C2.1806 7.03502 2.01205 7.22364 2.01205 7.47647C2.01205 7.7293 2.1806 7.92193 2.43343 7.92193C2.68625 7.92193 2.89895 7.73331 2.89895 7.47647C2.89895 7.21963 2.68625 7.03502 2.43343 7.03502ZM0.679688 5.28128V22H21.8169V5.28128H0.679688ZM20.93 21.1332H11.6917V17.6016H10.8249V21.1332H1.56659V16.7147H20.93V21.1332ZM20.93 15.8479H11.6917V12.3203H10.8249V15.8479H1.56659V11.4294H20.93V15.8479ZM20.93 10.5626H11.6917V7.03502H10.8249V10.5626H1.56659V6.14411H20.93V10.5626ZM20.0631 7.92193C20.316 7.92193 20.5086 7.73331 20.5086 7.47647C20.5086 7.21963 20.316 7.03502 20.0631 7.03502C19.8103 7.03502 19.6177 7.22364 19.6177 7.47647C19.6177 7.7293 19.8103 7.92193 20.0631 7.92193ZM20.0631 13.2072C20.316 13.2072 20.5086 13.0146 20.5086 12.7618C20.5086 12.5089 20.316 12.3203 20.0631 12.3203C19.8103 12.3203 19.6177 12.5089 19.6177 12.7618C19.6177 13.0146 19.8103 13.2072 20.0631 13.2072ZM20.0631 18.4925C20.316 18.4925 20.5086 18.2999 20.5086 18.0471C20.5086 17.7942 20.316 17.6016 20.0631 17.6016C19.8103 17.6016 19.6177 17.7942 19.6177 18.0471C19.6177 18.2999 19.8103 18.4925 20.0631 18.4925ZM18.7508 17.6016H13.004V18.4925H18.7508V17.6016ZM18.7508 12.3203H13.004V13.2072H18.7508V12.3203ZM18.7508 7.03502H13.004V7.92193H18.7508V7.03502ZM9.49253 17.6016H3.76579V18.4925H9.49253V17.6016ZM9.49253 12.3203H3.76579V13.2072H9.49253V12.3203ZM9.49253 7.03502H3.76579V7.92193H9.49253V7.03502ZM2.43343 7.92193C2.68625 7.92193 2.89895 7.73331 2.89895 7.47647C2.89895 7.21963 2.68625 7.03502 2.43343 7.03502C2.1806 7.03502 2.01205 7.22364 2.01205 7.47647C2.01205 7.7293 2.1806 7.92193 2.43343 7.92193ZM2.43343 13.2072C2.68625 13.2072 2.89895 13.0146 2.89895 12.7618C2.89895 12.5089 2.68625 12.3203 2.43343 12.3203C2.1806 12.3203 2.01205 12.5089 2.01205 12.7618C2.01205 13.0146 2.1806 13.2072 2.43343 13.2072ZM2.43343 18.4925C2.68625 18.4925 2.89895 18.2999 2.89895 18.0471C2.89895 17.7942 2.68625 17.6016 2.43343 17.6016C2.1806 17.6016 2.01205 17.7942 2.01205 18.0471C2.01205 18.2999 2.1806 18.4925 2.43343 18.4925ZM2.88691 0V4.39438H4.64065V5.28128H5.52755V4.39438H16.965V5.28128H17.8519V4.39438H19.6096V0H2.88691ZM18.7428 3.50748H3.75375V0.866837H18.7428V3.50748Z" fill="#6A31F7"/>
</g>
<defs>
<clipPath id="clip0_473_12954">
<rect width="21.1372" height="22" fill="white" transform="translate(0.679688)"/>
</clipPath>
</defs>
</svg>
