<svg width="53" height="45" viewBox="0 0 53 45" fill="none" xmlns="http://www.w3.org/2000/svg">
<path d="M8.41561 22.5043V18.7279H10.3038V22.5043H8.41561ZM21.5559 35.6019V31.8682H19.6677V35.6019H21.5559ZM45.1196 22.7777L39.1817 28.6729L37.0201 26.554C36.704 26.1525 36.123 26.1525 35.7129 26.554C35.3541 26.8701 35.3541 27.4511 35.7129 27.8612L38.5495 30.655C38.7716 30.8344 38.951 30.9284 39.1817 30.9284C39.4978 30.9284 39.6772 30.843 39.8567 30.655L46.4268 24.0849C46.7857 23.726 46.7857 23.1365 46.4268 22.7777C46.068 22.4188 45.4785 22.4188 45.1196 22.7777ZM52.322 26.742C52.322 28.2713 52.0486 29.7152 51.4676 31.0651C50.2544 33.8077 48.1783 35.8838 45.4357 37.097C44.6924 37.4217 43.9149 37.6524 43.1118 37.7976V41.2322H41.2664V37.9856C41.198 37.9856 41.1382 37.9941 41.0699 37.9941C40.4804 37.9941 39.925 37.9343 39.3782 37.8489V43.1204H45V45.0085H0V29.9801H1.88817V16.8825H8.41561V18.7279H3.73362V29.9801H14.9858V18.7279H10.3038V16.8825H16.8739V29.9801H19.6677V31.8682H14.9858V43.1204H26.2379V31.8682H21.5559V29.9801H28.1261V43.1204H37.49V37.379C37.49 37.379 37.5498 37.396 37.5755 37.4046C37.2935 37.3106 37.0201 37.2081 36.7553 37.0885C34.0127 35.8753 31.8512 33.7991 30.7234 31.0566C30.1339 29.7067 29.8263 28.2628 29.8263 26.7334C29.8263 25.2041 30.1253 23.8115 30.6721 22.5043H18.7706V20.6161H31.6546C32.0989 19.9241 32.6115 19.2918 33.2011 18.7279H18.7792V16.8825H35.6873C36.0376 16.686 36.3879 16.5065 36.7638 16.3442C37.003 16.2331 37.2508 16.1477 37.4986 16.0623V14.9943H2.79381V13.1061H39.3782V15.618C39.925 15.5411 40.4889 15.4898 41.0699 15.4898C41.1382 15.4898 41.198 15.4898 41.2664 15.4984V11.2607H0V6.8521L21.2398 0H23.4014L45 6.84355V11.2521H43.1118V15.6607C43.9149 15.7974 44.6924 16.0196 45.4357 16.3357C48.1783 17.5489 50.2544 19.625 51.4676 22.3676C52.0572 23.7175 52.322 25.1614 52.322 26.7334V26.742ZM43.1118 9.37251V8.15929L23.3074 1.84545H21.7353L1.88817 8.14221V9.35542H43.1118V9.37251ZM13.1403 31.8597H8.41561V35.5933H6.52744V31.8597H1.88817V43.1118H13.1403V31.8597ZM38.4298 37.6524C38.4298 37.6524 38.3957 37.6438 38.3786 37.6353C38.3957 37.6353 38.4128 37.6438 38.4298 37.6524ZM50.4338 26.7334C50.4338 25.4262 50.2117 24.213 49.7162 23.0425C48.7678 20.7443 47.0163 19.0355 44.7181 18.0957C43.5903 17.6002 42.3771 17.3268 41.0699 17.3268C39.7627 17.3268 38.5495 17.6002 37.4217 18.0957C35.1234 19.044 33.3719 20.7528 32.4748 23.0425C31.9793 24.213 31.7059 25.4262 31.7059 26.7334C31.7059 28.0406 31.9793 29.2111 32.4748 30.3816C33.3719 32.6799 35.132 34.3886 37.4217 35.3285C38.5495 35.824 39.7627 36.0974 41.0699 36.0974C42.3771 36.0974 43.5903 35.824 44.7181 35.3285C47.0163 34.3801 48.7678 32.6714 49.7162 30.3816C50.2117 29.2111 50.4338 27.9979 50.4338 26.7334Z" fill="#00BB5A"/>
</svg>
