<svg width="25" height="28" viewBox="0 0 25 28" fill="none" xmlns="http://www.w3.org/2000/svg">
<path d="M10.7152 1.04135L7.87072 7.87749H17.1355L14.2848 1.04135V0H16.0728V0.710567L19.111 7.87136H25V9.62328H19.8112L20.5364 11.2098V12.2511H18.7484V11.5406L17.942 9.6294H7.05801L6.25156 11.5406V12.2511H4.46362V11.2098L5.1888 9.62328H0V7.87136H5.88897L8.92723 0.710567V0H10.7152V1.04135ZM25 13.2067L23.1308 28H1.86922L0 13.121V11.3691H1.78795V13.0352L3.48837 26.242H21.5116L23.2121 13.0352V11.3691H25V13.2006V13.2067ZM11.6904 24.5819V19.3323H6.33283V17.5804H11.6904V12.3308H13.4784V17.5804H18.836V19.3323H13.4784V24.5819H11.6904Z" fill="#6A31F7"/>
</svg>
