<svg width="16" height="15" viewBox="0 0 16 15" fill="none" xmlns="http://www.w3.org/2000/svg">
<g clip-path="url(#clip0_758_11298)">
<path d="M0.839068 6.41447C-0.381327 4.84539 -0.262906 2.71711 1.14499 1.30592L2.08578 0.292763C2.30617 0.101974 2.53973 0 2.84894 0C3.15815 0 3.40815 0.101974 3.59894 0.292763L6.19762 2.86184C6.54959 3.20066 6.59565 3.75658 6.34565 4.15461L5.45091 5.50658C5.28973 5.72697 5.36209 5.97697 5.49367 6.10855L8.91473 9.5296C9.04631 9.66118 9.29631 9.67763 9.5167 9.57237L10.8095 8.67763C11.2634 8.42763 11.8226 8.47368 12.1614 8.82566L14.7305 11.4243C15.1285 11.8355 15.1285 12.5263 14.7305 12.9375L13.7766 13.8783C12.4246 15.2303 10.1943 15.4046 8.66802 14.1875C7.20091 13.0724 5.78973 11.8224 4.49696 10.5329C3.2042 9.24013 1.94104 7.875 0.842357 6.42105L0.839068 6.41447ZM1.83578 2.00987C1.32262 2.50987 1.02986 3.125 0.970647 3.84539C0.927884 4.56579 1.11867 5.21053 1.54302 5.76974C2.67459 7.20724 3.90815 8.57237 5.15486 9.82237C6.40157 11.0724 7.81275 12.3487 9.20749 13.4342C9.77986 13.8586 10.441 14.0493 11.1614 14.0066C11.895 13.9638 12.5134 13.6842 13.0101 13.1842L14.0233 12.273V12.1711L11.4674 9.57237H11.3654L10.0595 10.4671C9.45749 10.8191 8.69433 10.7599 8.21078 10.2763L4.80617 6.87171C4.29302 6.35855 4.24696 5.60855 4.60223 5.00658L5.4542 3.61184V3.55263L2.89828 0.99671H2.7963L1.84236 2.00987H1.83578Z" fill="white"/>
</g>
<defs>
<clipPath id="clip0_758_11298">
<rect width="15.023" height="15" fill="white"/>
</clipPath>
</defs>
</svg>
