<svg width="21" height="21" viewBox="0 0 21 21" fill="none" xmlns="http://www.w3.org/2000/svg">
<path d="M8.31394 17.4546C3.72745 17.4546 0 13.5406 0 8.72987C0 3.91911 3.72745 0 8.31394 0C12.9004 0 16.6279 3.91393 16.6279 8.72987C16.6279 13.5458 12.9004 17.4597 8.31394 17.4597V17.4546ZM8.31394 1.39968C4.468 1.39968 1.333 4.68634 1.333 8.72987C1.333 12.7734 4.46307 16.0601 8.31394 16.0601C12.1648 16.0601 15.2949 12.7734 15.2949 8.72987C15.2949 4.68634 12.1599 1.39968 8.31394 1.39968Z" fill="#626262"/>
<path d="M14.3996 13.6841L13.457 14.6738L19.4825 21.0007L20.4251 20.011L14.3996 13.6841Z" fill="#626262"/>
</svg>
