<svg width="50" height="39" viewBox="0 0 50 39" fill="none" xmlns="http://www.w3.org/2000/svg">
<path d="M47.7389 4.13434H44.6452V6.22517H42.6017V4.13434H38.4201V6.22517H36.3765V4.13434H32.1949V6.22517H30.1514V4.13434H25.9697V6.22517H23.9262V4.13434H19.7446V6.22517H17.701V4.13434H13.5194V6.22517H11.4759V4.13434H7.29423V6.22517H5.25071V4.13434H2.10974V8.26868H45.7143V10.3595H0V2.04352H5.23179V0H7.27531V2.04352H11.457V0H13.5005V2.04352H17.6821V0H19.7256V2.04352H23.9073V0H25.9508V2.04352H30.1325V0H32.176V2.04352H36.3576V0H38.4011V2.04352H42.5828V0H44.6263V2.04352H49.8108V15.544H47.72V4.13434H47.7389ZM0 12.4598H2.09082V36.3292H31.1447C31.7881 36.3292 32.1949 36.7266 32.1949 37.3794C32.1949 37.9754 31.7975 38.3728 31.1447 38.3728H0V12.4598ZM5.23179 19.6878H17.6916V13.4626H37.3794V15.5535H32.1949V21.7786H25.9697V25.913H29.0634C29.7067 25.913 30.1608 26.3576 30.1608 26.9631C30.1608 27.5686 29.7162 28.0132 29.0634 28.0132H25.9697V32.1476H29.0634C29.7067 32.1476 30.1608 32.5922 30.1608 33.1977C30.1608 33.8032 29.7162 34.2479 29.0634 34.2479H5.23179V19.6973V19.6878ZM11.457 25.913V21.7786H7.27531V25.913H11.457ZM11.457 32.1381V28.0038H7.27531V32.1381H11.457ZM17.6821 25.913V21.7786H13.5005V25.913H17.6821ZM17.6821 32.1381V28.0038H13.5005V32.1381H17.6821ZM23.9073 19.6783V15.544H19.7256V19.6783H23.9073ZM23.9073 25.9035V21.7692H19.7256V25.9035H23.9073ZM23.9073 32.1287V27.9943H19.7256V32.1287H23.9073ZM30.1325 19.6689V15.5345H25.9508V19.6689H30.1325ZM33.7181 22.8098C35.3642 21.0691 37.3037 20.0189 39.65 19.7729V18.6755H38.6566V16.5847H42.7909V18.6755H41.7408V19.9243C43.0842 19.9716 44.3803 20.473 45.4305 21.1164L46.1779 20.4163L45.4305 19.6689L46.9253 18.2214L49.8108 21.1164L48.3633 22.6112L47.5118 21.7597L47.0104 22.3084C48.6566 23.9073 49.8013 26.2914 50 29.035C50 31.6272 49.1012 33.8221 47.2564 35.667C45.4115 37.5118 43.2734 38.3538 40.6812 38.3538C38.0889 38.3538 35.894 37.4551 34.0492 35.667C32.2044 33.8221 31.3056 31.6272 31.3056 29.035C31.3056 26.6414 32.1003 24.5506 33.6992 22.8098H33.7181ZM45.5818 23.9073C44.1816 22.4598 42.4882 21.7692 40.5014 21.7692C38.5147 21.7692 36.7644 22.4693 35.3169 23.9073C33.8694 25.3453 33.2261 27.0009 33.2261 29.0445C33.2261 31.088 33.9262 32.7815 35.3169 34.229C36.7644 35.6197 38.4579 36.3198 40.5014 36.3198C42.5449 36.3198 44.1911 35.6197 45.5818 34.229C47.0293 32.7815 47.72 31.088 47.72 29.0445C47.72 27.0009 47.0199 25.3075 45.5818 23.9073ZM39.4513 23.86H41.4948V27.9943H45.6764V30.0851H39.4513V23.86Z" fill="#6A31F7"/>
</svg>
