<svg width="137" height="131" viewBox="0 0 137 131" fill="none" xmlns="http://www.w3.org/2000/svg">
<path d="M137 125.255V130.985H108.505C106.72 130.985 105.631 129.748 105.631 128.12C105.631 126.34 106.72 125.255 108.505 125.255H137ZM128.787 119.388H101.109V128.135C101.109 129.779 99.8839 131 98.2353 131C97.2824 131 96.7228 130.729 96.1783 130.186L85.0767 119.388H47.9455C44.2399 119.388 41.2301 116.387 40.2772 113.1L33.4257 125.255H82.8836C84.5322 125.255 85.6212 126.34 85.6212 128.12C85.6212 129.763 84.5322 130.985 82.8836 130.985H0V125.255H17.1212V68.2973H16.5767C12.0544 68.2973 8.63623 64.8893 8.63623 60.3803V58.058L4.11393 53.5491C-0.680614 49.583 -1.08898 42.3447 2.88883 37.5643L11.3889 28.275C14.2626 25.0026 18.6488 22.9518 22.8989 22.9518H38.0993C42.4854 22.9518 47.4161 24.4598 51.1065 27.325L64.2651 37.0214L64.5373 37.2928C66.8665 38.8008 68.5151 41.2589 68.5151 44.3955V45.6321H129.06C133.31 45.6321 136.864 49.3267 136.728 53.5491V111.321C136.728 115.558 133.022 119.373 128.787 119.373V119.388ZM57.1262 45.617H62.7375V44.3805C62.7375 42.7367 61.7846 41.5153 59.9999 41.5153C58.2152 41.5153 57.1262 42.7367 57.1262 44.3805V45.617ZM44.5273 38.5143C46.1759 38.6501 47.5371 40.0223 47.1287 41.5153L46.5842 45.617H51.3788V44.109C51.3788 41.2438 52.8913 38.5143 55.2205 37.0063L47.6883 31.5474C44.8146 29.4965 41.3813 28.5464 38.0993 28.5464H22.8989C20.1613 28.5464 17.2876 29.4965 15.5029 31.5474L6.86664 40.9724C4.80967 43.5661 5.21804 46.8536 7.41113 49.0251C7.8195 49.1608 7.8195 49.2965 7.8195 49.2965L13.4308 54.8912C13.9753 55.5698 14.3836 56.2635 14.3836 56.9421V60.3502C14.3836 61.4359 15.4726 62.6725 16.5767 62.6725H17.1212V62.4011L18.3463 53.5189L12.0393 46.6877C11.0864 45.4511 11.0864 43.4153 12.3115 42.7216C13.4005 41.7716 15.1853 41.7716 16.2894 42.9931L19.1631 45.994L19.9798 39.8414C20.3882 38.1977 21.6284 37.1119 23.1257 37.2476C24.7743 37.6548 26.1356 39.1628 25.7272 40.3843L22.8535 62.7781V108.124L28.4648 96.9192V68.237C28.4648 66.5933 29.705 65.3718 31.4746 65.3718C33.1232 65.3718 34.2122 66.5933 34.2122 68.237V97.4621C34.2122 98.1407 34.0761 98.5478 33.9399 98.9701L22.8384 120.55V125.194H26.9523L40.247 101.292V51.7093L41.3359 40.912C41.7443 39.2683 42.8484 38.0468 44.4819 38.454L44.5273 38.5143ZM129.06 113.643C130.148 113.643 131.253 112.421 131.253 111.321V53.8205C131.253 52.584 130.164 51.4982 129.06 51.4982H47.9455C46.8565 51.4982 45.6162 52.3125 45.6162 53.5491V111.321C45.6162 112.406 46.8414 113.643 47.9455 113.643H86.438C87.3908 113.643 87.9504 113.779 88.4949 114.322L95.6187 121.153V116.372C95.6187 114.729 96.7077 113.643 98.4924 113.643H129.044H129.06ZM21.3713 9.96788C21.3713 4.50892 25.8936 0 31.5049 0C37.1161 0 41.3662 4.50892 41.3662 9.96788C41.3662 15.4268 36.8439 19.9358 31.5049 19.9358C25.8936 19.9358 21.3713 15.4268 21.3713 9.96788ZM27.1187 9.96788C27.1187 12.1545 29.1756 14.2054 31.5049 14.2054C33.5618 14.2054 35.7549 12.1545 35.7549 9.96788C35.7549 7.78128 33.5618 5.7304 31.5049 5.7304C29.1756 5.7304 27.1187 7.78128 27.1187 9.96788ZM71.9031 86.4537H75.3061V90.4046H71.9031V95.3358H67.3051V90.4046H54.6003V86.5743L65.8985 68.7648H71.9031V86.4386V86.4537ZM59.531 86.4537H67.3505V74.2238H67.1388L59.531 86.2425V86.4537ZM97.6151 74.6913C98.4319 76.7271 98.8402 79.2002 98.8402 82.0805C98.8402 84.9607 98.4319 87.464 97.6151 89.5149C96.7984 91.5658 95.6187 93.1341 94.0911 94.2199C92.5635 95.3056 90.7183 95.8485 88.5857 95.8485C86.4531 95.8485 84.6079 95.3056 83.0803 94.2199C81.5527 93.1341 80.3729 91.5658 79.5562 89.5149C78.7395 87.464 78.3311 84.9909 78.3311 82.0955C78.3311 79.2002 78.7546 76.7271 79.5713 74.6913C80.3881 72.6555 81.5678 71.1022 83.0954 70.0315C84.623 68.9609 86.4531 68.418 88.5857 68.418C90.7183 68.418 92.5484 68.9609 94.0911 70.0315C95.6187 71.1022 96.7984 72.6555 97.6151 74.7063V74.6913ZM93.9852 82.0805C93.9852 79.9693 93.7583 78.2049 93.3197 76.7572C92.8811 75.3246 92.2459 74.2389 91.4442 73.515C90.6426 72.7912 89.6898 72.4142 88.5857 72.4142C86.9219 72.4142 85.6212 73.2285 84.6532 74.8722C83.6852 76.5159 83.2013 78.9137 83.2013 82.0805C83.2013 84.1917 83.413 85.9862 83.8516 87.4188C84.2902 88.8665 84.9104 89.9522 85.712 90.6761C86.5136 91.3999 87.4816 91.7769 88.5857 91.7769C90.2494 91.7769 91.5652 90.9626 92.5332 89.3189C93.5012 87.6751 93.9852 85.2623 93.9852 82.0805ZM119.274 86.4537H122.677V90.4046H119.274V95.3358H114.676V90.4046H101.971V86.5743L113.269 68.7648H119.274V86.4386V86.4537ZM106.902 86.4537H114.721V74.2238H114.509L106.902 86.2425V86.4537Z" fill="#00BB5A"/>
</svg>
