<svg width="28" height="28" viewBox="0 0 28 28" fill="none" xmlns="http://www.w3.org/2000/svg">
<path d="M24.9882 22.402C24.6664 22.402 24.4212 22.6472 24.4212 22.969C24.4212 23.2908 24.6664 23.5359 24.9882 23.5359C25.31 23.5359 25.5551 23.2908 25.5551 22.969C25.5551 22.6472 25.31 22.402 24.9882 22.402ZM24.9882 15.6804C24.6664 15.6804 24.4212 15.9205 24.4212 16.2422C24.4212 16.564 24.6664 16.8092 24.9882 16.8092C25.31 16.8092 25.5551 16.564 25.5551 16.2422C25.5551 15.9205 25.31 15.6804 24.9882 15.6804ZM24.9882 8.95367C24.6664 8.95367 24.4212 9.19372 24.4212 9.5155C24.4212 9.83729 24.6664 10.0825 24.9882 10.0825C25.31 10.0825 25.5551 9.84239 25.5551 9.5155C25.5551 9.18862 25.31 8.95367 24.9882 8.95367ZM16.0039 22.402V23.5359H23.318V22.402H16.0039ZM16.0039 15.6804V16.8092H23.318V15.6804H16.0039ZM16.0039 8.95367V10.0825H23.318V8.95367H16.0039ZM4.24612 22.402V23.5359H11.5347V22.402H4.24612ZM4.24612 15.6804V16.8092H11.5347V15.6804H4.24612ZM4.24612 8.95367V10.0825H11.5347V8.95367H4.24612ZM2.55039 22.402C2.22861 22.402 2.01409 22.6472 2.01409 22.969C2.01409 23.2908 2.22861 23.5359 2.55039 23.5359C2.87217 23.5359 3.14288 23.2908 3.14288 22.969C3.14288 22.6472 2.87217 22.402 2.55039 22.402ZM2.55039 15.6804C2.22861 15.6804 2.01409 15.9205 2.01409 16.2422C2.01409 16.564 2.22861 16.8092 2.55039 16.8092C2.87217 16.8092 3.14288 16.564 3.14288 16.2422C3.14288 15.9205 2.87217 15.6804 2.55039 15.6804ZM2.55039 8.95367C2.22861 8.95367 2.01409 9.19372 2.01409 9.5155C2.01409 9.83729 2.22861 10.0825 2.55039 10.0825C2.87217 10.0825 3.14288 9.84239 3.14288 9.5155C3.14288 9.18862 2.87217 8.95367 2.55039 8.95367ZM24.9882 23.5359C25.31 23.5359 25.5551 23.2908 25.5551 22.969C25.5551 22.6472 25.31 22.402 24.9882 22.402C24.6664 22.402 24.4212 22.6472 24.4212 22.969C24.4212 23.2908 24.6664 23.5359 24.9882 23.5359ZM16.0039 23.5359H23.318V22.402H16.0039V23.5359ZM4.24612 23.5359H11.5347V22.402H4.24612V23.5359ZM2.55039 22.402C2.22861 22.402 2.01409 22.6472 2.01409 22.969C2.01409 23.2908 2.22861 23.5359 2.55039 23.5359C2.87217 23.5359 3.14288 23.2908 3.14288 22.969C3.14288 22.6472 2.87217 22.402 2.55039 22.402ZM24.9882 16.8092C25.31 16.8092 25.5551 16.564 25.5551 16.2422C25.5551 15.9205 25.31 15.6804 24.9882 15.6804C24.6664 15.6804 24.4212 15.9205 24.4212 16.2422C24.4212 16.564 24.6664 16.8092 24.9882 16.8092ZM16.0039 16.8092H23.318V15.6804H16.0039V16.8092ZM4.24612 16.8092H11.5347V15.6804H4.24612V16.8092ZM2.55039 15.6804C2.22861 15.6804 2.01409 15.9205 2.01409 16.2422C2.01409 16.564 2.22861 16.8092 2.55039 16.8092C2.87217 16.8092 3.14288 16.564 3.14288 16.2422C3.14288 15.9205 2.87217 15.6804 2.55039 15.6804ZM24.9882 10.0825C25.31 10.0825 25.5551 9.84239 25.5551 9.5155C25.5551 9.18862 25.31 8.95367 24.9882 8.95367C24.6664 8.95367 24.4212 9.19372 24.4212 9.5155C24.4212 9.83729 24.6664 10.0825 24.9882 10.0825ZM16.0039 10.0825H23.318V8.95367H16.0039V10.0825ZM4.24612 10.0825H11.5347V8.95367H4.24612V10.0825ZM2.55039 8.95367C2.22861 8.95367 2.01409 9.19372 2.01409 9.5155C2.01409 9.83729 2.22861 10.0825 2.55039 10.0825C2.87217 10.0825 3.14288 9.84239 3.14288 9.5155C3.14288 9.18862 2.87217 8.95367 2.55039 8.95367ZM0.318359 6.72163V28H27.2202V6.72163H0.318359ZM26.0914 26.8968H14.3337V22.402H13.2304V26.8968H1.44714V21.2733H26.0914V26.8968ZM26.0914 20.17H14.3337V15.6804H13.2304V20.17H1.44714V14.5465H26.0914V20.17ZM26.0914 13.4433H14.3337V8.95367H13.2304V13.4433H1.44714V7.81977H26.0914V13.4433ZM24.9882 10.0825C25.31 10.0825 25.5551 9.84239 25.5551 9.5155C25.5551 9.18862 25.31 8.95367 24.9882 8.95367C24.6664 8.95367 24.4212 9.19372 24.4212 9.5155C24.4212 9.83729 24.6664 10.0825 24.9882 10.0825ZM24.9882 16.8092C25.31 16.8092 25.5551 16.564 25.5551 16.2422C25.5551 15.9205 25.31 15.6804 24.9882 15.6804C24.6664 15.6804 24.4212 15.9205 24.4212 16.2422C24.4212 16.564 24.6664 16.8092 24.9882 16.8092ZM24.9882 23.5359C25.31 23.5359 25.5551 23.2908 25.5551 22.969C25.5551 22.6472 25.31 22.402 24.9882 22.402C24.6664 22.402 24.4212 22.6472 24.4212 22.969C24.4212 23.2908 24.6664 23.5359 24.9882 23.5359ZM23.318 22.402H16.0039V23.5359H23.318V22.402ZM23.318 15.6804H16.0039V16.8092H23.318V15.6804ZM23.318 8.95367H16.0039V10.0825H23.318V8.95367ZM11.5347 22.402H4.24612V23.5359H11.5347V22.402ZM11.5347 15.6804H4.24612V16.8092H11.5347V15.6804ZM11.5347 8.95367H4.24612V10.0825H11.5347V8.95367ZM2.55039 10.0825C2.87217 10.0825 3.14288 9.84239 3.14288 9.5155C3.14288 9.18862 2.87217 8.95367 2.55039 8.95367C2.22861 8.95367 2.01409 9.19372 2.01409 9.5155C2.01409 9.83729 2.22861 10.0825 2.55039 10.0825ZM2.55039 16.8092C2.87217 16.8092 3.14288 16.564 3.14288 16.2422C3.14288 15.9205 2.87217 15.6804 2.55039 15.6804C2.22861 15.6804 2.01409 15.9205 2.01409 16.2422C2.01409 16.564 2.22861 16.8092 2.55039 16.8092ZM2.55039 23.5359C2.87217 23.5359 3.14288 23.2908 3.14288 22.969C3.14288 22.6472 2.87217 22.402 2.55039 22.402C2.22861 22.402 2.01409 22.6472 2.01409 22.969C2.01409 23.2908 2.22861 23.5359 2.55039 23.5359ZM3.12755 0V5.59285H5.35959V6.72163H6.48837V5.59285H21.0451V6.72163H22.1739V5.59285H24.411V0H3.12755ZM23.3078 4.46406H4.2308V1.10325H23.3078V4.46406Z" fill="#6A31F7"/>
</svg>
