<svg width="22" height="22" viewBox="0 0 22 22" fill="none" xmlns="http://www.w3.org/2000/svg">
<path d="M0.923281 5.50209H0V3.34637L10.5613 0H11.6183L22.0042 3.34637V5.50209H1.82567V20.1576H0.923281V5.50209ZM0 21.0809H2.74896V6.40448H20.6381V7.32776H3.67641V8.25104H12.8299V9.15344H3.67641V10.0767H12.8299V11H3.67641V21.0767H8.25522V14.6513H11.4679V15.5746H9.1785V21.0767H14.6806V15.5746H12.3912V14.6513H13.7573V8.24687H16.97V9.14926H14.6806V14.6513H20.1827V9.14926H17.8933V8.24687H21.0851V14.6513H22.0084V22H0V21.0767V21.0809ZM21.0809 4.57881V3.98557L11.376 0.902393H10.6073L0.923281 3.98139V4.57463H21.0809V4.57881ZM11.4637 15.583H12.387V17.4087H11.4637V15.583ZM21.0809 21.0851V15.583H18.8124V17.4087H17.8891V15.583H15.5788V21.0851H21.0809ZM16.9658 9.15761H17.8891V11.0042H16.9658V9.15761Z" fill="#6A31F7"/>
</svg>
