<svg width="36" height="35" viewBox="0 0 36 35" fill="none" xmlns="http://www.w3.org/2000/svg">
<path d="M1.46886 8.75332H0V5.32378L16.8021 0H18.4837L35.0066 5.32378V8.75332H2.90448V32.0689H1.46886V8.75332ZM0 33.5378H4.37334V10.1889H32.8333V11.6578H5.84884V13.1267H20.4111V14.5623H5.84884V16.0311H20.4111V17.5H5.84884V33.5311H13.1333V23.309H18.2444V24.7778H14.6022V33.5311H23.3555V24.7778H19.7133V23.309H21.8866V13.12H26.9977V14.5556H23.3555V23.309H32.1088V14.5556H28.4666V13.12H33.5444V23.309H35.0133V35H0V33.5311V33.5378ZM33.5378 7.28447V6.34068L18.0982 1.43562H16.8752L1.46886 6.33403V7.27782H33.5378V7.28447ZM18.2378 24.7911H19.7066V27.6956H18.2378V24.7911ZM33.5378 33.5444V24.7911H29.9288V27.6956H28.4599V24.7911H24.7845V33.5444H33.5378ZM26.9911 14.5689H28.4599V17.5066H26.9911V14.5689Z" fill="black"/>
</svg>
