<svg width="30" height="17" viewBox="0 0 30 17" fill="none" xmlns="http://www.w3.org/2000/svg">
<path d="M1.48121 0.943257L5.32793 3.26455C3.40457 4.51732 1.67281 6.15328 0.235814 8.12822L0 8.45247L0.235814 8.77671C3.82461 13.7141 9.20413 16.5512 14.9963 16.5512C18.0472 16.5512 20.9801 15.7553 23.6035 14.2889L27.9514 16.9123L28.5188 15.9691L2.05601 0L1.48858 0.943257H1.48121ZM15.0037 15.4458C9.69049 15.4458 4.74576 12.9035 1.37804 8.45247C2.80029 6.58069 4.50258 5.0479 6.38909 3.89831L10.4937 6.37436C10.199 7.00811 10.0221 7.70818 10.0221 8.45247C10.0221 11.2012 12.2623 13.4414 15.0111 13.4414C16.6249 13.4414 18.0472 12.6676 18.9536 11.4738L22.5129 13.6183C20.199 14.8047 17.6492 15.4385 15.0037 15.4385V15.4458ZM11.4444 6.94915L18.0029 10.9064C17.2881 11.776 16.2122 12.336 15.0037 12.336C12.8592 12.336 11.1201 10.5969 11.1201 8.45247C11.1201 7.91452 11.2454 7.41341 11.4444 6.94915ZM15.0037 4.5689C14.4657 4.5689 13.9499 4.67944 13.4856 4.87841L12.3876 4.21518C13.154 3.74355 14.0457 3.46352 15.0111 3.46352C17.7598 3.46352 20 5.70376 20 8.45247C20 8.57038 19.9926 8.68091 19.9853 8.79882L18.8651 8.12086C18.6957 6.13854 17.045 4.5689 15.0111 4.5689H15.0037ZM30 8.45247L29.7642 8.77671C28.7178 10.2211 27.5092 11.4812 26.1901 12.5424L25.1805 11.9307C26.448 10.9506 27.6124 9.78629 28.6293 8.4451C25.2616 4.00884 20.3169 1.4591 15.0037 1.4591C13.0803 1.4591 11.2012 1.79808 9.43257 2.4392L8.23876 1.71702C10.3685 0.82535 12.6529 0.353721 15.0037 0.353721C20.8032 0.353721 26.1828 3.19086 29.7642 8.12822L30 8.45247Z" fill="#9E9D9D"/>
</svg>
