<svg width="18" height="24" viewBox="0 0 18 24" fill="none" xmlns="http://www.w3.org/2000/svg">
<path d="M0 21.7018V24H18V6.06639H15.7162C16.0878 5.46358 16.1824 4.69123 15.8378 4.00051C15.5 3.30979 14.8176 2.76349 13.9527 2.56256C13.7973 2.53116 13.6149 2.50604 13.3986 2.50604C13.3986 2.36162 13.3649 2.13557 13.3378 1.93463C13.2432 1.62067 13.1554 1.36322 12.9392 1.04297C12.1959 -0.0747365 10.5608 -0.30707 9.47973 0.408768C9.26351 0.553191 9.14189 0.666218 9.01351 0.779245C8.85811 0.666218 8.7027 0.490398 8.58108 0.408768C8.30405 0.264344 7.96622 0.0948039 7.59459 0.0634075C6.23649 -0.168926 4.87838 0.666218 4.66216 1.92835C4.56757 2.12929 4.56757 2.36162 4.56757 2.49977C4.41216 2.49977 4.19595 2.53116 3.97973 2.55628C3.14865 2.75722 2.40541 3.27212 2.12838 3.99423C2.00676 4.3082 1.94595 4.62844 1.94595 4.88589C1.94595 5.34428 2.10135 5.68964 2.25676 6.06011H0V21.6955V21.7018ZM16.7365 22.7944H10.9595V10.8261H16.7365V22.7944ZM16.7365 7.24062V9.65186H10.9595V7.24062H16.7365ZM13.7095 3.76818C14.0811 3.85609 14.5135 4.13866 14.6689 4.51541C14.8851 4.86077 14.8243 5.26265 14.5473 5.57661C14.3311 5.89057 13.9324 6.06639 13.527 6.06639H10.5L12.6014 4.08842C12.9392 3.77446 13.3446 3.68655 13.7162 3.77446L13.7095 3.76818ZM9.60135 2.41813C9.60135 2.04766 9.81757 1.6709 10.0946 1.44485C10.3108 1.33182 10.5608 1.27531 10.8041 1.27531C11.4189 1.27531 11.9122 1.67718 12.0405 2.22348C12.1351 2.56884 11.9797 2.99583 11.7027 3.25956L9.60135 5.21241V2.41813ZM8.36487 7.24062H9.66216V22.7944H8.36487V7.24062ZM7.10135 1.26903C7.35135 1.26903 7.56757 1.32554 7.78378 1.43857C8.12162 1.63951 8.31081 1.98487 8.31081 2.41186V5.19357L6.18243 3.24072C5.93243 2.92676 5.84459 2.55 5.87162 2.20464C5.99324 1.65834 6.48649 1.25647 7.10811 1.25647L7.10135 1.26903ZM3.30405 4.50913C3.52027 4.05075 3.91892 3.7619 4.44595 3.7619C4.78378 3.7619 5.03378 3.87493 5.27703 4.07586L7.40541 6.05383H4.37838C3.97973 6.05383 3.57432 5.88429 3.41892 5.56405C3.16892 5.25009 3.16892 4.84821 3.2973 4.50285L3.30405 4.50913ZM1.2973 7.23434H7.10135V9.64558H1.2973V7.23434ZM1.2973 10.8198H7.10135V22.7881H1.2973V10.8198Z" fill="#6A31F7"/>
</svg>
