<svg width="50" height="50" viewBox="0 0 50 50" fill="none" xmlns="http://www.w3.org/2000/svg">
<g clip-path="url(#clip0_292_14781)">
<path d="M24.9071 2.08114L2.07422 24.9141L24.9071 47.747L47.7401 24.9141L24.9071 2.08114Z" fill="white"/>
<path d="M12.5777 12.5811L0.162109 24.9998L12.5809 37.4186L24.9996 49.8373L37.4184 37.4154L49.8371 24.9967L37.4215 12.5779C30.5934 5.7498 25.0059 0.15918 25.0059 0.15918C25.0059 0.15918 19.409 5.7498 12.5809 12.5811H12.5777ZM35.4527 14.5467L45.9059 24.9967L35.4527 35.4498L24.9965 45.9061L14.5496 35.4498L4.09961 24.9967L14.5496 14.5436C20.2965 8.79668 25.0027 4.09668 25.0027 4.09668C25.0027 4.09668 29.709 8.79668 35.4559 14.5467H35.4527Z" fill="#D62433"/>
<path fill-rule="evenodd" clip-rule="evenodd" d="M27.301 28.2403C27.276 28.2309 26.601 27.9934 26.5916 27.9934C25.7634 27.9028 26.6603 28.8528 26.9978 28.8465C27.3947 28.8403 27.3541 28.534 27.2978 28.2403M25.6541 34.0309C25.6509 33.9996 25.401 33.4121 25.3728 33.359C24.676 33.3528 24.9041 34.3403 25.1353 34.4403C25.4666 34.5871 25.6916 34.3434 25.6541 34.0278V34.0309ZM27.1885 31.4496C27.626 31.3121 28.3197 30.4621 27.5634 30.4028C27.1822 30.3715 27.226 30.584 27.1041 30.8496C26.9853 31.1028 26.826 31.2278 27.1885 31.4496ZM23.3478 29.3121C23.5916 28.684 22.9541 28.5871 22.4072 28.659C22.3572 29.184 22.2697 28.9028 22.7822 29.2215C23.1541 29.4528 23.0009 29.3903 23.3447 29.3121H23.3478ZM25.2728 26.6403C25.4135 26.4403 25.3228 26.5653 25.3978 26.359C25.5541 25.9246 25.8697 25.5278 25.0791 25.5684C24.8697 25.8559 24.976 25.8715 24.976 26.1621C24.976 26.459 24.776 26.6121 25.2697 26.6403H25.2728ZM22.2885 27.3746C21.8135 27.6153 22.226 28.2309 22.6478 27.9559C22.9603 27.7528 22.7541 27.1371 22.2885 27.3746ZM24.351 31.4871C25.051 31.6996 25.0353 31.084 24.7322 30.9184C24.4291 30.7528 24.076 31.0184 24.351 31.4871ZM22.7478 31.3965L22.7697 31.0059L22.3353 30.959C22.176 31.3778 22.2603 31.5153 22.7478 31.3965ZM24.5697 27.4278C24.5916 27.4403 24.6259 27.4371 24.6384 27.4653L24.9635 27.4746C25.0385 26.8184 24.4666 26.9903 24.5697 27.4278ZM22.0916 21.3684L21.9103 23.2621L17.9135 24.709C18.0478 25.1465 18.1666 25.209 18.7166 25.2528C19.101 25.9403 19.026 25.5028 19.4822 25.8184C19.926 26.1215 19.6166 26.2934 20.4385 26.2309C20.6072 26.6028 20.4885 26.4121 20.8166 26.5871C21.2291 26.809 20.9447 26.7496 21.2009 26.9778C21.6103 27.3371 22.0478 27.0121 22.3041 26.8309L22.9759 26.9184L23.6478 27.584C23.8291 27.509 24.3666 26.9559 24.3853 26.5434C24.3885 26.459 24.3728 26.3215 24.3791 26.2559C24.426 25.7528 24.4135 26.2309 24.4603 25.934C24.5041 25.6403 24.3228 25.3934 24.6291 25.0309C24.9384 24.6684 25.0322 24.7434 24.8541 24.0528C24.9947 23.8903 25.0541 23.9028 25.0478 23.5996L24.4697 23.4028L24.5541 22.5434C24.9666 22.2434 24.9822 22.0809 24.851 21.4653C25.5322 20.7621 24.6197 20.8278 25.0791 20.1965C25.1447 20.2309 25.301 20.2121 25.3978 20.6465C25.4697 20.9653 25.3385 20.9465 25.5603 21.2715C26.0947 22.0465 25.5603 21.5684 26.0541 22.4215C25.6166 23.2496 25.9103 22.909 26.0916 23.5871C26.3478 24.5465 26.151 23.3465 26.3197 24.8246L25.8541 24.8746C25.901 25.5028 26.276 25.1715 26.1947 26.0215C26.1635 26.3653 26.2603 27.4809 26.6103 27.6496C27.3197 27.7278 27.0135 27.4684 27.3635 27.2934C27.6916 27.1309 27.6978 27.5246 28.2041 27.2809C28.3572 26.6028 28.051 27.0434 28.1697 26.4934C28.5041 26.5653 28.4072 26.5528 28.6228 26.7403C28.7759 26.7496 29.026 26.7278 29.0947 26.7371C29.1228 26.7403 29.1478 26.7434 29.176 26.7528C29.7822 26.8934 29.0353 26.9403 29.8135 26.7996C30.2197 26.7246 30.5228 26.9246 30.5291 26.0778C30.8416 26.0246 30.8635 25.9465 31.0197 25.7871C31.6885 26.1278 31.7603 25.6871 31.9541 25.384C32.2322 24.9496 32.2603 25.2621 32.3947 24.8246C31.9697 24.5465 28.7822 23.584 28.051 23.3809C27.9541 20.6215 27.9103 22.3528 28.9885 20.209C29.7697 18.6559 30.6103 15.834 30.3885 14.1059C30.0822 11.7309 27.8697 9.11839 25.3697 9.00276C22.4635 8.86839 20.3478 11.134 19.9197 13.6153C19.4541 16.3121 20.7291 19.9215 22.0853 21.3778L22.0916 21.3684ZM29.226 31.0153L29.5697 31.1434C29.5791 31.2528 29.5791 31.3059 29.5634 31.4121L29.4947 31.5434C29.2166 31.6559 29.2447 31.5496 29.2947 32.0621L29.8916 31.9653C30.0697 32.3996 30.3572 32.3965 30.8635 32.2809C31.0322 32.7465 31.1885 32.7746 31.7697 32.6559C31.9322 33.2403 32.0572 33.3246 32.7416 33.3028C32.7697 33.7028 32.8228 33.7715 33.1291 33.8934C33.3447 33.9121 37.1634 30.5028 37.2291 30.1809C37.2291 28.6559 37.4916 27.4246 36.6103 26.5059C36.2509 26.1309 35.8322 25.8934 35.2322 25.6809C33.5291 25.084 33.8978 25.1403 33.1353 25.4778C32.4353 25.7871 33.451 25.8215 32.1478 25.7809C31.9447 25.9996 31.8416 26.0434 31.7416 26.4028C30.951 26.4371 30.676 26.6621 30.651 27.4215C28.6228 27.5653 29.5572 28.1465 28.5947 28.4278L28.5197 28.934C27.576 28.9403 27.9728 29.409 27.8885 29.7496C27.8197 30.0246 27.6853 29.8121 27.8322 30.2153C28.3853 30.4371 27.9447 30.084 28.5853 30.2153C28.7103 30.9184 28.1885 30.634 28.4541 31.1028C28.6447 31.4371 28.9822 31.134 29.226 31.009V31.0153ZM31.2978 33.6528C31.226 33.0621 30.9635 32.9559 30.3447 32.9871C30.2197 32.6965 30.2385 32.6996 29.8759 32.6778C29.5447 32.8684 29.7509 32.5996 29.6291 32.9809L29.0603 32.8184C28.8135 32.0215 28.5947 32.3621 28.1947 32.0465C27.6385 31.6059 27.776 31.9184 27.2885 32.0653C26.8478 31.7778 26.376 31.5215 26.3103 32.3934C25.2728 32.4403 25.8916 32.8528 25.9635 33.3403C26.1135 34.3496 26.1166 33.5809 26.1385 34.2028C26.176 35.2434 26.4416 34.8496 26.2353 35.3996C26.1447 35.2934 26.0135 34.3059 25.4885 34.8934C25.3072 35.0965 25.4603 35.2184 25.3947 35.4059C25.3291 35.5871 25.2353 35.4778 25.1978 35.9434L25.5947 36.1746C25.501 36.6871 25.5947 36.9371 25.7978 37.2715C25.3697 37.9653 25.2291 37.7153 25.601 38.709C25.3572 39.1496 25.351 39.309 25.3697 39.9559C25.3947 40.8059 25.2978 40.7246 25.2978 40.9278C25.2978 41.1184 25.326 41.0371 25.3791 41.1278C25.6166 41.1465 26.051 40.5871 26.3197 40.334C26.6353 40.0371 27.0166 39.784 27.2947 39.4871L32.0822 35.0746C32.2072 34.9559 32.476 34.6965 32.5666 34.5934C33.0228 34.0746 32.3572 34.0778 32.0103 33.7965C31.7416 33.5778 31.726 33.6246 31.2947 33.6496L31.2978 33.6528ZM24.4384 33.3465C24.6041 32.9309 24.5166 33.0528 24.501 32.6184C24.4916 32.3715 24.8385 32.1184 24.3135 32.0028C23.8666 31.9028 23.0416 31.6871 22.7041 31.7465C22.601 31.9215 22.5822 32.0496 22.5978 32.334C22.1884 32.359 22.1322 32.4496 21.8228 32.609C21.3478 32.4371 21.1916 32.4559 20.9385 32.8496C20.2447 32.8028 20.1791 32.8215 19.9978 33.4153C19.401 33.1996 18.9916 33.2559 18.7822 33.7184L18.1072 33.7559C17.9666 33.9434 17.8791 34.0715 17.8791 34.4434L18.7697 35.2496C19.9697 36.4153 24.0103 40.8559 24.7072 41.1996C24.8197 40.7309 24.7822 40.0934 24.6103 39.6715C25.0228 39.359 25.1166 38.9371 24.8791 38.3278C25.0791 37.8871 25.4041 37.4184 24.7947 37.1028C24.9103 36.6903 24.8072 36.3903 24.7822 35.9246L24.3822 35.6434C24.3884 34.9215 24.326 35.3934 24.6853 34.9903C24.6853 34.6778 24.601 34.5684 24.5228 34.3965C24.7791 33.9059 24.7072 33.7246 24.4353 33.3434L24.4384 33.3465ZM20.9666 31.1215C21.0572 31.2559 20.9978 31.1903 21.0697 31.3684C21.1478 32.209 22.1166 31.8778 21.6478 31.0465L21.8103 30.5184C22.1885 30.5684 22.3478 30.9434 22.5385 30.6028C22.551 30.5278 22.5603 30.4559 22.5197 30.3528C22.3572 29.9496 22.4666 30.5278 22.3635 29.9934C22.3728 29.8903 22.5135 29.8528 22.5791 29.5153C21.6572 28.334 22.1478 28.2059 21.2353 28.0559C21.0291 28.0059 21.0728 28.0215 20.9385 27.8965C20.7353 27.6278 20.7697 27.7965 20.6353 27.6403C20.5197 27.5059 20.551 27.3684 20.4228 27.1871C20.0541 26.6715 19.5385 27.259 19.2291 26.6309C19.1041 26.3746 19.301 26.4715 19.0416 26.2653C18.9041 26.159 18.8947 26.2653 18.7353 26.0996C18.2697 25.6309 19.0385 25.9153 17.7416 25.4434C17.5197 25.3621 17.4447 25.3809 17.2885 25.3184C17.1572 25.2653 17.1385 25.2059 16.9416 25.1246C16.226 25.284 14.476 25.9465 14.0791 26.3621C13.2978 27.1778 13.5322 28.5246 13.5353 29.8965C13.6041 30.1028 16.7759 33.2559 17.1978 33.7246C17.6478 33.7059 17.4447 33.7403 17.751 33.5778C18.226 33.3246 18.5041 33.7403 18.7916 32.8121C20.1728 33.3371 19.2385 32.0278 20.151 32.034C21.176 32.0403 20.0947 31.259 20.9728 31.1215H20.9666Z" fill="#2B2B2B"/>
</g>
<defs>
<clipPath id="clip0_292_14781">
<rect width="50" height="50" fill="white"/>
</clipPath>
</defs>
</svg>
