<svg width="52" height="50" viewBox="0 0 52 50" fill="none" xmlns="http://www.w3.org/2000/svg">
<path d="M0.994394 20.4625C-0.288156 18.2083 -0.336737 15.4003 0.887515 12.9421C1.45106 12.0676 2.06318 11.1543 2.87935 10.5325C6.20232 7.82161 10.9147 7.82161 14.2377 10.5325C15.0053 11.1446 15.6757 12.0676 16.2295 12.9421C17.4052 15.4003 17.3566 18.1597 16.1226 20.4625C15.7631 21.026 15.151 21.9491 14.3834 23.0179C13.509 24.2421 12.5373 25.7773 11.4102 27.5748C10.2832 29.3626 9.71962 30.8006 9.71962 31.8694H7.57232C7.57232 30.7909 7.00877 29.3626 5.8331 27.5748C4.70601 25.787 3.73439 24.2518 2.85992 23.0179C2.04375 21.7936 1.37333 21.026 0.965245 20.4625H0.994394ZM1.19844 43.597C0.58631 43.597 0.119928 43.1403 0.119928 42.5185C0.119928 41.8966 0.576594 41.44 1.19844 41.44H5.70679C6.06629 40.1574 7.29055 39.2927 8.67997 39.2927C10.0694 39.2927 11.2354 40.1671 11.6434 41.44H20.3978C21.0099 41.44 21.4763 41.8966 21.4763 42.5185C21.4763 43.1403 21.0197 43.597 20.3978 43.597H11.6434C11.2354 44.8795 10.0597 45.6957 8.67997 45.6957C7.30026 45.6957 6.06629 44.8795 5.70679 43.597H1.19844ZM14.3543 19.2382C15.2287 17.6545 15.2773 15.4975 14.4029 13.8166C13.9948 13.2044 13.5867 12.5923 12.9163 12.0288C11.7406 11.0571 10.3026 10.5422 8.67026 10.5422C7.03792 10.5422 5.59991 11.0571 4.37566 12.0288C3.76353 12.5923 3.24857 13.049 2.88907 13.8166C2.0729 15.6626 2.0146 17.6545 3.04453 19.2382C3.29715 19.6949 3.81212 20.5694 4.62828 21.5896C6.11488 23.7952 7.49459 25.8842 8.67026 28.0898C9.84593 25.8939 11.2256 23.6883 12.7122 21.5896C13.4798 20.7151 14.1405 19.8018 14.3543 19.2382ZM6.52296 47.843H10.769C11.4297 47.843 11.8961 48.2996 11.8961 48.9215C11.8961 49.5433 11.4394 50 10.769 50H6.52296C5.86225 50 5.50275 49.5433 5.50275 48.9215C5.50275 48.2996 5.86225 47.843 6.52296 47.843ZM8.67026 15.857C9.28238 15.857 9.74876 16.3136 9.74876 16.9355C9.74876 17.499 9.2921 18.014 8.67026 18.014C8.04842 18.014 7.59175 17.499 7.59175 16.9355C7.59175 16.3234 8.04842 15.857 8.67026 15.857ZM8.67026 32.8993C9.28238 32.8993 9.74876 33.4143 9.74876 33.9778C9.74876 34.59 9.2921 35.0564 8.67026 35.0564C8.04842 35.0564 7.59175 34.5997 7.59175 33.9778C7.59175 33.4143 8.04842 32.8993 8.67026 32.8993ZM8.67026 36.1251C9.28238 36.1251 9.74876 36.5818 9.74876 37.2037C9.74876 37.8255 9.2921 38.2822 8.67026 38.2822C8.04842 38.2822 7.59175 37.8255 7.59175 37.2037C7.59175 36.5818 8.04842 36.1251 8.67026 36.1251ZM8.67026 41.4497C8.00955 41.4497 7.59175 41.9063 7.59175 42.5282C7.59175 43.15 7.99983 43.6067 8.67026 43.6067C9.28238 43.6067 9.74876 43.15 9.74876 42.5282C9.74876 41.9063 9.2921 41.4497 8.67026 41.4497ZM19.98 14.4773C19.1055 13.3016 18.4934 12.4854 18.0368 11.9219C16.7542 9.6677 16.7542 6.8597 17.9299 4.45006C18.4934 3.47843 19.1055 2.60396 19.98 1.99184C21.6221 0.660707 23.507 0 25.6057 0C27.7045 0 29.5991 0.660707 31.2898 1.99184C32.1059 2.60396 32.7181 3.47843 33.2816 4.45006C34.4573 6.8597 34.4573 9.61912 33.1747 11.9219C32.9221 12.4854 32.2031 13.4085 31.4355 14.4773L28.472 19.0342C27.345 20.822 26.7814 22.26 26.7814 23.3288H24.6827C24.6827 22.2503 24.1191 20.822 22.9435 19.0342L19.9703 14.4773H19.98ZM31.3966 10.7365C32.2711 9.15274 32.3197 6.94714 31.4452 5.31481C31.0857 4.6541 30.6291 4.09056 29.9586 3.52701C28.8801 2.5068 27.345 1.99184 25.7126 1.99184C24.0803 1.99184 22.6423 2.5068 21.4666 3.52701C20.8059 4.09056 20.3395 4.54722 19.98 5.31481C19.1055 7.1026 19.1055 9.15274 20.0869 10.7365C20.4464 11.1446 20.9031 12.0676 21.6706 13.0878C23.1572 15.2934 24.5369 17.3339 25.7126 19.588C26.9369 17.3339 28.3263 15.138 29.7546 13.0878C30.5222 12.1162 31.1829 11.3 31.3966 10.7365ZM25.7126 39.2927C27.1506 39.2927 28.268 40.1671 28.7344 41.44H36.3617C37.0224 41.44 37.4888 41.8966 37.4888 42.5185C37.4888 43.1403 37.0321 43.597 36.3617 43.597H28.7344C28.2777 44.8795 27.1506 45.6957 25.7126 45.6957C23.9248 45.6957 22.5354 44.3646 22.5354 42.5185C22.5354 40.6724 23.9151 39.2927 25.7126 39.2927ZM23.5653 47.843H27.8599C28.472 47.843 28.9384 48.2996 28.9384 48.9215C28.9384 49.5433 28.4818 50 27.8599 50H23.5653C22.9532 50 22.5451 49.5433 22.5451 48.9215C22.5451 48.2996 22.9532 47.843 23.5653 47.843ZM25.7126 7.30665C26.3247 7.30665 26.7911 7.82161 26.7911 8.38515C26.7911 8.99728 26.3345 9.46366 25.7126 9.46366C25.0908 9.46366 24.6924 9.00699 24.6924 8.38515C24.6924 7.82161 25.1005 7.30665 25.7126 7.30665ZM25.7126 26.4963C26.3247 26.4963 26.7911 27.0113 26.7911 27.5748C26.7911 28.1869 26.3345 28.6533 25.7126 28.6533C25.0908 28.6533 24.6924 28.1967 24.6924 27.5748C24.6924 27.0113 25.1005 26.4963 25.7126 26.4963ZM25.7126 29.7221C26.3247 29.7221 26.7911 30.1788 26.7911 30.8006C26.7911 31.4225 26.3345 31.8791 25.7126 31.8791C25.0908 31.8791 24.6924 31.4225 24.6924 30.8006C24.6924 30.1788 25.1005 29.7221 25.7126 29.7221ZM25.7126 32.8993C26.3247 32.8993 26.7911 33.4143 26.7911 33.9778C26.7911 34.59 26.3345 35.0564 25.7126 35.0564C25.0908 35.0564 24.6924 34.5997 24.6924 33.9778C24.6924 33.4143 25.1005 32.8993 25.7126 32.8993ZM25.7126 36.1251C26.3247 36.1251 26.7911 36.5818 26.7911 37.2037C26.7911 37.8255 26.3345 38.2822 25.7126 38.2822C25.0908 38.2822 24.6924 37.8255 24.6924 37.2037C24.6924 36.5818 25.1005 36.1251 25.7126 36.1251ZM25.7126 41.4497C25.0519 41.4497 24.6924 41.9063 24.6924 42.5282C24.6924 43.15 25.0519 43.6067 25.7126 43.6067C26.3733 43.6067 26.7911 43.15 26.7911 42.5282C26.7911 41.9063 26.383 41.4497 25.7126 41.4497ZM34.1561 23.5328C32.8735 21.2787 32.8735 18.4124 33.9034 16.1679C34.467 15.1963 35.1277 14.3801 35.9536 13.7097C37.5956 12.3785 39.4806 11.7178 41.5793 11.7178C43.678 11.7178 45.5727 12.3883 47.2633 13.7097C48.1378 14.3704 48.6916 15.1963 49.2552 16.1679C50.4794 18.5775 50.5377 21.337 49.1483 23.6397C48.8957 24.2033 48.2252 25.1749 47.4577 26.1951L44.4942 30.752C43.3185 32.5398 42.755 33.9778 42.755 35.0466H40.6563C40.6563 33.9681 40.0927 32.5398 38.917 30.752C37.79 28.9059 36.7697 27.3708 35.8467 26.0979C35.0791 25.0777 34.4184 24.1547 34.1561 23.5426V23.5328ZM47.3605 22.4543C48.3321 20.8123 48.3321 18.7719 47.4674 16.9743C47.0593 16.4108 46.5929 15.7501 45.9808 15.1866C44.8051 14.3121 43.3185 13.7 41.7348 13.7C40.151 13.7 38.5575 14.3121 37.4888 15.1866C36.8281 15.7501 36.3131 16.3136 35.9536 16.9743C35.1374 18.869 35.186 20.8123 36.0605 22.4543C36.42 22.911 36.9349 23.7369 37.7025 24.8057C39.1308 26.9044 40.5202 29.1003 41.7445 31.3059C42.9202 29.1003 44.2999 26.8558 45.7865 24.8057C46.554 23.834 47.1662 23.0179 47.3702 22.4543H47.3605ZM41.7348 39.2927C43.1145 39.2927 44.2416 40.1671 44.708 41.44H47.0593V39.8562L51.3053 42.5185L47.0593 45.1807V43.597H44.708C44.2513 44.8795 43.1242 45.6957 41.7348 45.6957C39.8887 45.6957 38.509 44.3646 38.509 42.5185C38.509 40.6724 39.8887 39.2927 41.7348 39.2927ZM39.5875 47.843H43.8821C44.4456 47.843 44.9023 48.2996 44.9023 48.9215C44.9023 49.5433 44.4456 50 43.8821 50H39.5875C38.9753 50 38.509 49.5433 38.509 48.9215C38.509 48.2996 38.9656 47.843 39.5875 47.843ZM41.7348 19.0828C42.2983 19.0828 42.755 19.4909 42.755 20.103C42.755 20.7151 42.2983 21.1815 41.7348 21.1815C41.1226 21.1815 40.6563 20.7248 40.6563 20.103C40.6563 19.4811 41.1129 19.0828 41.7348 19.0828ZM41.7348 36.1251C42.2983 36.1251 42.755 36.5818 42.755 37.2037C42.755 37.8255 42.2983 38.2822 41.7348 38.2822C41.1226 38.2822 40.6563 37.8255 40.6563 37.2037C40.6563 36.5818 41.1129 36.1251 41.7348 36.1251ZM41.7348 41.4497C41.0741 41.4497 40.6563 41.9063 40.6563 42.5282C40.6563 43.15 41.0643 43.6067 41.7348 43.6067C42.3469 43.6067 42.755 43.15 42.755 42.5282C42.755 41.9063 42.3469 41.4497 41.7348 41.4497Z" fill="#6A31F7"/>
</svg>
