<svg width="70" height="68" viewBox="0 0 70 68" fill="none" xmlns="http://www.w3.org/2000/svg">
<g clip-path="url(#clip0_240_928)">
<path d="M0 65.0867H2.91297V8.64628H11.8628C11.3751 7.81589 11.0983 6.8405 11.0983 5.79922C11.0983 5.03473 11.2433 4.41523 11.586 3.65074C12.4164 1.69997 14.0112 0.460971 15.962 0.105088C17.6228 -0.17171 19.6395 0.526875 20.9575 1.69997L22.9742 3.78255C23.5937 4.33614 23.5937 5.16653 22.9742 5.79922C22.4206 6.35281 21.5902 6.35281 20.9575 5.79922L18.9409 3.78255C18.3873 3.16305 17.346 2.95215 16.5156 3.01806C15.4743 3.22895 14.7757 3.91435 14.288 4.75793C13.8003 5.6015 14.0112 6.70869 14.5648 7.32819C15.0525 8.23767 15.8829 8.64628 16.9242 8.64628H21.0894L28.1016 1.69997C29.2878 0.315982 31.2254 -0.237614 33.1762 0.105088C35.127 0.592779 36.7218 1.76588 37.4863 3.65074C38.8044 6.4978 37.4204 9.96437 34.4284 11.1506C33.8089 11.4274 33.0444 11.5724 32.2799 11.5724H28.9451V20.2454C28.9451 21.1549 28.3915 21.7085 27.4821 21.7085C26.6517 21.7085 26.019 21.1549 26.019 20.2454V11.5724H23.106V65.0999H26.019V24.6215H31.0936C30.7509 23.7252 30.395 22.8816 30.395 21.7744C30.395 21.1549 30.54 20.3904 30.8168 19.6259C31.4363 17.8861 33.1103 16.6471 34.982 16.1594C35.4697 16.0935 35.9574 16.0276 36.3001 16.0276C36.3001 15.6849 36.3001 15.1181 36.511 14.6436C36.9986 11.5856 40.0566 9.56894 43.1014 10.1357C43.9318 10.2016 44.6963 10.6234 45.3289 10.9661C45.6057 11.177 45.9484 11.5856 46.3043 11.8624C46.5811 11.5856 46.8579 11.3088 47.3456 10.9661C49.7709 9.22624 53.4615 9.77983 55.1223 12.4951C55.61 13.2596 55.8209 13.8791 56.0186 14.6436C56.0845 15.1313 56.1636 15.6849 56.1636 16.0276C56.6513 16.0276 57.0599 16.0935 57.4158 16.1594C59.3534 16.6471 60.8823 17.9651 61.6468 19.6259C62.4113 21.2867 62.2004 23.1716 61.37 24.6215H66.5106V65.0999H69.4235V68.0128H0V65.0999V65.0867ZM20.2721 15.9353V11.5592H5.76003V15.9353H20.2721ZM20.2721 65.0867V18.7824H5.76003V65.0867H20.2721ZM32.2799 8.64628C33.3212 8.64628 34.0857 8.22449 34.5734 7.32819C35.127 6.5637 35.3379 5.45651 34.8502 4.62612C34.3625 3.79573 33.743 3.09714 32.7017 2.88625C31.8713 2.67535 30.83 3.03124 30.2764 3.79573L25.2018 8.65946H32.2799V8.64628ZM41.9942 33.2945V27.4685H28.9451V33.2945H41.9942ZM41.9942 65.0867V36.1415H28.9451V65.0867H41.9942ZM42.6928 24.6083L37.9081 19.8236C37.3545 19.3359 36.8009 19.0592 36.0364 19.0592C34.8502 19.0592 33.9539 19.7577 33.4662 20.8649C33.1894 21.6953 33.1894 22.6707 33.743 23.4352C34.0857 24.1997 34.9952 24.6215 35.8914 24.6215H42.6928V24.6083ZM44.7094 15.7903C44.7094 14.749 44.2877 13.9186 43.5232 13.4309C43.0355 13.1541 42.5478 13.0091 41.9942 13.0091C40.6102 13.0091 39.4898 13.9845 39.213 15.3026C39.1471 16.133 39.358 17.0425 39.9116 17.807L44.6963 22.5257V15.7903H44.7094ZM47.7674 65.0867V27.4554H44.8544V65.0867H47.7674ZM52.3543 17.807C52.9738 17.1875 53.3297 16.1462 53.1188 15.3026C52.842 13.9845 51.7348 13.0091 50.3377 13.0091C49.7841 13.0091 49.2305 13.1541 48.7428 13.4309C48.1233 13.9845 47.6356 14.894 47.6356 15.7903V22.5257L52.3543 17.807ZM56.4536 24.6083C57.3499 24.6083 58.2593 24.1865 58.747 23.422C59.3665 22.6575 59.5115 21.6821 59.0238 20.8517C58.6811 19.9554 57.7058 19.2569 56.8754 19.046C56.045 18.8351 55.1355 19.046 54.371 19.8105L49.6523 24.5951H56.4536V24.6083ZM63.6767 33.2813V27.4554H50.6935V33.2813H63.6767ZM63.6767 65.0735V36.1284H50.6935V65.0735H63.6767Z" fill="#00BB5A"/>
</g>
<defs>
<clipPath id="clip0_240_928">
<rect width="69.4235" height="68" fill="white"/>
</clipPath>
</defs>
</svg>
