<svg width="50" height="50" viewBox="0 0 50 50" fill="none" xmlns="http://www.w3.org/2000/svg">
<g clip-path="url(#clip0_292_14789)">
<path d="M25.0224 2.09188L2.18945 24.9248L25.0224 47.7577L47.8553 24.9248L25.0224 2.09188Z" fill="white"/>
<path d="M12.5777 12.5811L0.162109 24.9998L12.5809 37.4186L24.9996 49.8373L37.4184 37.4154L49.8371 24.9967L37.4215 12.5779C30.5934 5.7498 25.0059 0.15918 25.0059 0.15918C25.0059 0.15918 19.409 5.7498 12.5809 12.5811H12.5777ZM35.4527 14.5467L45.9059 24.9967L35.4527 35.4498L24.9965 45.9061L14.5496 35.4498L4.09961 24.9967L14.5496 14.5436C20.2965 8.79668 25.0027 4.09668 25.0027 4.09668C25.0027 4.09668 29.709 8.79668 35.4559 14.5467H35.4527Z" fill="#D62433"/>
<path fill-rule="evenodd" clip-rule="evenodd" d="M18.0289 35.7623L32.957 35.7936L32.9633 34.2654H18.0477L18.0289 35.7623ZM16.032 23.2217L15.8789 23.2623C15.982 24.5154 16.4383 25.8061 16.7758 26.9498C16.9445 27.5311 17.0883 28.1373 17.2883 28.7373C17.4383 29.1936 17.8789 29.8904 18.1195 30.2998C18.6477 31.2092 21.2977 32.4936 22.7008 32.5717C23.4289 32.6123 24.2539 32.6998 24.9695 32.6654C24.3664 32.6092 23.7727 32.4811 23.2727 32.2373C21.7414 31.4842 20.9727 30.2811 20.357 28.5217C21.1039 28.7373 20.8383 29.2998 23.2289 29.4217C22.8852 28.7404 22.4258 28.3967 22.082 27.5842C21.732 26.7561 21.9102 26.0623 22.0914 25.1061C22.3883 26.2998 23.2258 27.0498 24.4008 27.4311C24.3664 27.4186 24.3352 26.8654 24.3258 26.7936C24.3039 26.6342 24.2789 26.4748 24.257 26.3154C24.2227 26.0842 24.1945 25.8498 24.2102 25.6154C24.257 24.9904 24.4883 24.4029 24.6945 23.8186C24.9133 23.2092 25.0664 22.6123 25.057 21.9623C25.0539 21.6498 25.082 21.3373 25.1102 21.0248C25.6133 21.3842 26.6695 22.5811 26.8914 23.4311C27.3008 25.0186 27.2133 25.7373 27.2258 27.4436C27.5977 27.2717 27.9164 26.7654 28.482 26.4154C29.5633 25.7467 29.1508 25.8311 29.4602 25.3717C29.5508 25.2373 29.5477 25.2686 29.6352 25.1779C29.6539 26.6061 29.6289 27.5561 28.8195 28.6686C28.557 29.0279 28.3352 29.1279 28.1477 29.4592C28.7664 29.4842 29.0164 29.5029 29.5758 29.3342C30.1227 29.1686 30.2352 28.9748 30.6633 28.8061L30.8945 28.6561L30.7258 28.8592C30.5477 29.5717 29.8758 30.5154 29.3633 31.0404C28.6195 31.8029 28.4695 31.9467 27.6539 32.4904L27.3602 32.7404C28.7445 32.8029 29.4914 32.6373 30.5289 32.1092C31.0383 31.8498 31.1977 31.7561 31.6664 31.4279C32.2258 31.0342 32.2383 31.0811 32.632 30.4779C33.7352 28.7873 34.3602 26.6529 34.1664 24.4936C33.9258 25.2436 33.9602 25.2279 33.3008 25.5904C33.0227 25.7436 32.082 26.0248 31.7414 26.0654C32.3727 25.0029 32.8102 24.6561 33.1758 23.1623C33.5289 21.7092 33.1758 20.7123 32.7383 19.4123C32.6008 19.5779 31.4914 21.9186 30.2195 22.0373C30.8508 20.8123 30.8758 19.7998 30.7289 18.4404C30.6633 17.8436 30.6383 17.1373 30.407 16.6623C30.2195 16.2748 29.8883 15.5779 29.6445 15.3029C29.5945 16.0311 29.2883 18.4217 28.9227 19.0061C28.6602 19.4217 27.8633 19.7717 27.7758 19.8342C27.6945 19.7248 27.8008 19.1248 27.8039 19.0529C27.8164 18.7279 27.8383 18.4061 27.8258 18.0811C27.8133 17.6498 27.6977 17.2342 27.557 16.8311C26.6102 14.1404 26.9633 15.0873 25.6883 12.6623C25.4039 12.1186 25.2164 10.9373 25.0602 10.2217C24.8195 10.8248 24.5789 11.5404 24.4445 12.2123C24.257 13.1529 24.6258 16.2342 23.7758 18.2561C23.4133 19.1154 23.4633 19.0092 23.2477 19.2186C22.5664 18.4748 22.8633 18.1967 22.4258 16.6842C22.2852 16.1967 22.1414 15.8717 21.8508 15.5467C21.4227 15.0686 21.457 15.1404 20.6852 14.9873C20.757 15.5779 20.9195 15.8498 20.807 16.4342C20.0477 20.4248 20.7477 20.3217 20.7539 21.1686C19.3164 20.3373 19.6102 19.5498 18.1289 18.3592L18.3664 22.2779C18.4477 22.9842 18.5883 23.3311 18.8227 23.9373C19.0383 24.4873 19.3227 24.9248 19.4789 25.4498C17.2695 25.1936 17.6133 24.9904 16.0352 23.2186L16.032 23.2217Z" fill="#2B2B2B"/>
</g>
<defs>
<clipPath id="clip0_292_14789">
<rect width="50" height="50" fill="white"/>
</clipPath>
</defs>
</svg>
