<svg width="20" height="20" viewBox="0 0 20 20" fill="none" xmlns="http://www.w3.org/2000/svg">
<path d="M19.2542 9.80518C19.879 9.14048 20.1353 8.21071 19.931 7.31356C19.7308 6.41642 19.106 5.69055 18.257 5.36839L17.0236 4.89943C16.5109 4.70777 16.1505 4.24288 16.0784 3.69236L15.9062 2.36296C15.7861 1.4495 15.2294 0.670618 14.4164 0.270981C13.6035 -0.128657 12.6543 -0.0837993 11.8814 0.38924L10.7561 1.07841C10.2875 1.36387 9.70681 1.36387 9.24226 1.07841L8.11691 0.38924C7.34399 -0.0837993 6.39486 -0.128657 5.58189 0.270981C4.76891 0.670618 4.21225 1.45358 4.09211 2.36296L3.9199 3.69236C3.84781 4.24288 3.48738 4.70369 2.97477 4.89943L1.7413 5.36839C0.896289 5.69055 0.267538 6.41642 0.0672989 7.31356C-0.13294 8.21071 0.119361 9.14048 0.748112 9.80518L1.6612 10.7716C2.03765 11.1713 2.16981 11.7504 1.9976 12.2764L1.58912 13.5487C1.30878 14.4214 1.47698 15.3756 2.03765 16.0933C2.60233 16.8111 3.47537 17.1903 4.37244 17.1047L5.68201 16.9823C6.22265 16.9293 6.74728 17.1862 7.04764 17.6511L7.7685 18.7725C8.26509 19.5433 9.09809 20 10.0032 20C10.9082 20 11.7412 19.5392 12.2378 18.7725L12.9587 17.6511C13.2591 17.1862 13.7797 16.9293 14.3243 16.9823L15.6339 17.1047C16.531 17.1903 17.408 16.8111 17.9687 16.0933C18.5334 15.3756 18.7016 14.4214 18.4172 13.5487L18.0087 12.2764C17.8405 11.7504 17.9687 11.1713 18.3451 10.7716L19.2582 9.80518H19.2542ZM17.4761 9.92344C16.7913 10.6493 16.555 11.6973 16.8634 12.6557L17.2719 13.928C17.428 14.4173 17.3399 14.9271 17.0236 15.3267C16.7072 15.7304 16.2386 15.9302 15.738 15.8854L14.4285 15.763C13.4393 15.6692 12.4901 16.1341 11.9455 16.9783L11.2246 18.0997C10.9483 18.5279 10.4998 18.7766 9.99516 18.7766C9.49056 18.7766 9.04202 18.5319 8.76569 18.0997L8.04483 16.9783C7.54824 16.2075 6.70723 15.7508 5.81416 15.7508C5.73006 15.7508 5.64997 15.7508 5.56587 15.763L4.2563 15.8854C3.7517 15.9343 3.28715 15.7304 2.97077 15.3267C2.65439 14.9271 2.56628 14.4132 2.72247 13.928L3.13096 12.6557C3.43933 11.6973 3.20705 10.6493 2.51823 9.92344L1.60514 8.95697C1.25672 8.58588 1.12056 8.08837 1.23269 7.58679C1.34483 7.0852 1.68123 6.6978 2.15379 6.51837L3.38726 6.04941C4.31637 5.6987 4.97316 4.85865 5.10532 3.85548L5.27752 2.52608C5.3456 2.01633 5.64196 1.59631 6.0985 1.3761C6.55505 1.15181 7.06366 1.17628 7.49217 1.44135L8.61751 2.13052C9.46653 2.65249 10.5198 2.65249 11.3728 2.13052L12.4981 1.44135C12.9307 1.17628 13.4393 1.15181 13.8918 1.3761C14.3444 1.60039 14.6447 2.02041 14.7128 2.52608L14.885 3.85548C15.0132 4.85457 15.6739 5.69463 16.6031 6.04941L17.8365 6.51837C18.3091 6.6978 18.6455 7.08928 18.7576 7.58679C18.8698 8.08837 18.7336 8.58588 18.3852 8.95697L17.4721 9.92344H17.4761ZM7.71243 8.47577C8.6936 8.47577 9.42648 7.72951 9.42648 6.73042C9.42648 5.73133 8.6936 4.98507 7.71243 4.98507C6.73126 4.98507 5.99838 5.73133 5.99838 6.73042C5.99838 7.72951 6.73126 8.47577 7.71243 8.47577ZM7.71243 6.14728C8.05284 6.14728 8.28512 6.3838 8.28512 6.73042C8.28512 7.07704 8.05284 7.31356 7.71243 7.31356C7.37203 7.31356 7.13975 7.07704 7.13975 6.73042C7.13975 6.3838 7.37203 6.14728 7.71243 6.14728ZM12.2899 10.8083C11.3087 10.8083 10.5759 11.5546 10.5759 12.5537C10.5759 13.5528 11.3087 14.2991 12.2899 14.2991C13.2711 14.2991 14.0039 13.5528 14.0039 12.5537C14.0039 11.6239 13.2711 10.8083 12.2899 10.8083ZM12.2899 13.1368C11.9495 13.1368 11.7172 12.9003 11.7172 12.5537C11.7172 12.2071 11.9495 11.9706 12.2899 11.9706C12.6303 11.9706 12.8626 12.2071 12.8626 12.5537C12.8626 12.9003 12.6303 13.1368 12.2899 13.1368ZM13.8438 6.54691L6.96354 13.5528L6.15858 12.7331L13.0388 5.72725L13.8438 6.54691Z" fill="black"/>
</svg>
