<svg width="38" height="38" viewBox="0 0 38 38" fill="none" xmlns="http://www.w3.org/2000/svg">
<path d="M0.799864 11.8466H3.98491C4.43888 11.8466 4.74153 12.1853 4.74153 12.6464C4.74153 13.1076 4.43888 13.4463 3.98491 13.4463H0.799864C0.345887 13.4463 0 13.1076 0 12.6464C0 12.1853 0.338681 11.8466 0.799864 11.8466ZM2.7743 20.991L5.5486 19.4345C5.96655 19.2831 6.3845 19.3192 6.65112 19.7371C6.80244 20.1551 6.76641 20.573 6.34847 20.8396L3.58137 22.4322C3.43005 22.4682 3.35078 22.5114 3.16342 22.5114C2.70945 22.5114 2.4068 22.2088 2.4068 21.7548C2.4068 21.4161 2.59415 21.1855 2.78871 20.9982L2.7743 20.991ZM2.85357 4.25148C2.51489 3.98486 2.28429 3.49485 2.55092 3.14897C2.81754 2.73102 3.27151 2.69499 3.57416 2.84632L6.34126 4.40281C6.75921 4.66943 6.91053 5.08737 6.72318 5.50532C6.57185 5.77194 6.34126 5.92327 6.00258 5.92327C5.88728 5.92327 5.81522 5.88724 5.62066 5.85121L2.84636 4.25869L2.85357 4.25148ZM15.0389 35.6407H14.8875C13.5184 35.6407 12.4952 34.6175 12.4952 33.2483C12.4952 32.7583 12.7618 32.1891 13.0644 31.7711C12.7618 31.4685 12.4952 31.0145 12.4952 30.402V27.743H13.4824C13.1437 27.253 12.9924 26.6405 12.9924 25.9991C12.9924 25.0119 12.8411 24.212 12.5384 23.6067C12.2718 23.0014 11.8178 22.2808 11.1693 21.4017L9.57674 19.0886C9.42542 18.822 9.00747 18.1014 8.89218 17.9861C8.09231 16.6962 7.56628 15.3271 7.33569 13.8859C6.88171 10.9602 7.45098 8.07786 9.00747 5.61341C9.80733 4.35957 10.7946 3.25706 12.0412 2.3491C12.3438 2.08248 12.8771 2.19778 13.1437 2.50043C13.4103 2.83911 13.295 3.33632 12.9924 3.60294C11.9331 4.35957 11.054 5.27473 10.3766 6.37724C9.00747 8.50301 8.51746 10.9675 8.93541 13.5112C9.12277 14.801 9.54071 16.0188 10.2253 17.1574C10.2253 17.1574 10.6793 17.842 10.8306 18.1086L12.4231 20.3857C13.7922 22.2088 14.5849 23.4626 14.5849 25.9271C14.5849 26.8782 15.3415 27.6709 16.2927 27.6709H18.9878C19.4778 27.6709 19.7876 27.9736 19.7876 28.4708C19.7876 28.9247 19.485 29.2274 18.9878 29.2274H14.167V30.2506C14.167 30.5173 14.3975 30.7479 14.657 30.7479H23.3834C23.65 30.7479 23.8734 30.5173 23.8734 30.2506V29.1481H21.3657C20.8757 29.1481 20.5659 28.8095 20.5659 28.3915C20.5659 27.9015 20.8685 27.5916 21.3657 27.5916H22.389C23.0375 27.5916 23.4915 27.0224 23.4915 26.4171V25.8478C23.4915 23.4554 24.2913 22.2016 25.6172 20.3857L27.2098 18.1806C27.4764 17.914 27.9304 17.1574 27.9304 17.1574C28.5357 16.0549 28.9176 14.8443 29.1842 13.5904V13.2517C29.2995 12.3006 29.2995 11.2773 29.1842 10.3261C28.9969 9.15155 28.6149 8.08506 28.0817 7.06181C26.9792 5.05134 25.3074 3.45882 23.2249 2.50763C22.1656 2.01042 21.027 1.75101 19.8453 1.63571C18.2167 1.52042 16.6963 1.71498 15.2118 2.35631C14.7939 2.50763 14.3039 2.27704 14.1525 1.8663C14.0012 1.44836 14.2318 1.03041 14.6425 0.843054C16.1702 0.266576 17.7267 -0.036075 19.2832 -4.51265e-05C22.4322 0.0359848 25.2065 1.28982 27.4404 3.45162C28.5429 4.55413 29.4148 5.88003 29.9841 7.43652C30.402 8.23639 30.6326 9.22361 30.7839 10.0955C30.9353 11.198 30.9353 12.3366 30.7839 13.4391V13.7418C30.5173 15.2622 30.0273 16.7034 29.2635 17.914C29.2274 18.0293 28.7302 18.7499 28.4636 19.0165L26.8711 21.2576C25.6533 22.9654 24.9759 23.9526 24.9759 25.9271V26.4963C24.9759 26.9503 24.9399 27.3322 24.7886 27.6709H25.4731V30.402C25.4731 30.892 25.2065 31.4252 24.9039 31.7711C25.2065 32.1891 25.4731 32.7583 25.4731 33.2483C25.4731 34.6175 24.4499 35.6407 23.1168 35.6407H22.5475L20.6523 37.9971H17.388L15.0317 35.6407H15.0389ZM19.8597 36.3613L21.7548 33.9689H23.124C23.4627 33.9689 23.8806 33.6663 23.8806 33.2123C23.8806 32.7223 23.578 32.4124 23.124 32.4124H14.9668C14.5128 32.4124 14.167 32.7151 14.167 33.2123C14.167 33.6663 14.5056 33.9689 14.9668 33.9689H18.9878C19.4778 33.9689 19.7876 34.3076 19.7876 34.7688C19.7876 35.23 19.485 35.5687 18.9878 35.5687H17.2439L18.0438 36.3685H19.8669L19.8597 36.3613ZM31.5478 20.8396C31.1298 20.573 31.0578 20.1551 31.2451 19.7371C31.4325 19.3192 31.9657 19.1679 32.3837 19.4345L35.1147 20.991C35.5327 21.2576 35.72 21.7116 35.4534 22.1295C35.3021 22.3169 35.0355 22.5114 34.7328 22.5114C34.5455 22.5114 34.4662 22.4754 34.3509 22.4322L31.5406 20.8396H31.5478ZM31.627 4.40281L34.4013 2.84632C34.8193 2.69499 35.2733 2.73102 35.5399 3.14897C35.6912 3.48765 35.6191 3.98486 35.2012 4.25148L32.4701 5.844C32.2828 5.88003 32.2035 5.91606 32.0522 5.91606C31.5622 5.91606 31.2523 5.57738 31.2523 5.1162C31.2523 4.77752 31.4397 4.58296 31.6342 4.3956L31.627 4.40281ZM34.0194 11.8394H37.2045C37.6584 11.8394 37.9611 12.1781 37.9611 12.6392C37.9611 13.1004 37.6584 13.4391 37.2045 13.4391H34.0194C33.5654 13.4391 33.2196 13.1004 33.2196 12.6392C33.2196 12.1781 33.5582 11.8394 34.0194 11.8394ZM14.5128 12.9275C14.2102 12.5888 14.2102 12.0916 14.5128 11.825C14.8515 11.4863 15.3487 11.4863 15.6154 11.825L17.4385 13.612L22.4466 8.63992C22.7493 8.33727 23.2465 8.33727 23.5491 8.63992C23.8518 8.94257 23.8518 9.43979 23.5491 9.74244L18.0077 15.2838C17.8564 15.4352 17.7051 15.5144 17.4385 15.5144C17.2511 15.5144 17.0998 15.4424 16.9052 15.2838L14.5128 12.9275Z" fill="#6A31F7"/>
</svg>
