<svg width="20" height="18" viewBox="0 0 20 18" fill="none" xmlns="http://www.w3.org/2000/svg">
<path d="M18.1269 3.2138C19.1991 3.2138 20 4.03751 20 5.14029V16.069C20 17.1718 19.1991 17.9955 18.1269 17.9955H1.87309C0.800875 17.9955 0 17.1718 0 16.069V5.14479C0 4.04201 0.800875 3.2183 1.87309 3.2183H4.68709L7.186 0H12.8096L15.3085 3.2138H16.2451V1.92648H17.4967V3.2138H18.1225H18.1269ZM18.7527 5.14029C18.7527 4.75769 18.4989 4.49662 18.1269 4.49662H14.6915L12.1926 1.28282H7.81619L5.31729 4.49662H1.88184C1.50985 4.49662 1.25602 4.75769 1.25602 5.14029V16.069C1.25602 16.4516 1.50985 16.7127 1.88184 16.7127H18.1313C18.5033 16.7127 18.7571 16.4516 18.7571 16.069V5.14479L18.7527 5.14029ZM15.628 9.64141C15.628 12.8552 13.1291 15.4254 10.0044 15.4254C6.87965 15.4254 4.38074 12.8552 4.38074 9.64141C4.38074 6.42761 6.87965 3.85746 10.0044 3.85746C13.1291 3.85746 15.628 6.42761 15.628 9.64141ZM14.3764 9.64141C14.3764 7.12978 12.4245 5.14029 10 5.14029C7.57549 5.14029 5.62363 7.14779 5.62363 9.64141C5.62363 12.135 7.57549 14.1425 10 14.1425C12.4245 14.1425 14.3764 12.135 14.3764 9.64141ZM12.2101 7.37284C12.814 7.994 13.1291 8.74119 13.1291 9.64141C13.1291 10.5416 12.8184 11.3068 12.2101 11.9325C11.6018 12.5581 10.8797 12.8552 10.0044 12.8552C9.1291 12.8552 8.38512 12.5536 7.77681 11.9325C7.17287 11.3113 6.87965 10.5461 6.87965 9.64141C6.87965 8.73668 7.17287 7.994 7.77681 7.37284C8.38074 6.75169 9.12473 6.42761 10.0044 6.42761C10.884 6.42761 11.6061 6.74719 12.2101 7.37284ZM11.8775 9.64141C11.8775 8.53863 11.0766 7.71493 10.0044 7.71493C8.93217 7.71493 8.13129 8.53863 8.13129 9.64141C8.13129 10.7442 8.93217 11.5679 10.0044 11.5679C11.0766 11.5679 11.8775 10.7442 11.8775 9.64141Z" fill="#9E9D9D"/>
</svg>
