<svg width="37" height="35" viewBox="0 0 37 35" fill="none" xmlns="http://www.w3.org/2000/svg">
<path d="M0 34.0855L3.50537 13.2462C3.61621 12.8444 4.08729 12.5881 4.41981 12.6227C4.82161 12.7336 5.07794 13.1008 5.0433 13.4956L1.68341 33.4551H34.8182L32.3381 18.3868C32.2272 17.985 32.5598 17.5485 32.9616 17.5139C33.3634 17.403 33.7998 17.7355 33.8344 18.1374L36.5016 34.0855C36.6124 34.522 36.2452 34.9584 35.9196 35H0.768964C0.332525 35 0 34.709 0 34.231V34.0855ZM3.83097 9.88618C3.062 8.53523 2.80568 7.07344 3.10357 5.54236C3.42917 3.97664 4.16349 2.69497 5.32733 1.67656C6.60201 0.547308 8.13994 0 9.85106 0C11.5622 0 13.1001 0.547308 14.3748 1.67656C15.0675 2.30008 15.5802 2.99287 15.982 3.75495C16.9657 5.68785 16.8964 8.06413 15.9058 9.95546C15.6495 10.5374 15.1022 11.2718 14.5203 12.1793C13.7929 13.2393 12.9477 14.5141 12.0402 16.0867C11.1257 17.6178 10.6547 18.8579 10.6547 19.7724H9.12366C9.12366 18.8579 8.64565 17.6178 7.73814 16.0867C6.82369 14.521 5.98545 13.2393 5.25805 12.1793C4.56529 11.1956 4.12885 10.4612 3.83789 9.87926L3.83097 9.88618ZM14.6311 9.19339C15.8019 7.115 15.2546 4.44774 13.4603 2.84046C12.4766 1.96754 11.195 1.52415 9.8857 1.52415C8.57638 1.52415 7.32941 1.96061 6.31105 2.84046C4.52373 4.44774 4.01108 7.14964 5.18185 9.19339C5.43817 9.66449 5.87461 10.4335 6.45653 11.2718C7.77277 13.0592 8.90198 14.9574 9.8857 16.9665C10.8694 14.9574 12.0055 13.0592 13.3149 11.2718C13.8968 10.3989 14.3748 9.66449 14.6311 9.19339ZM6.85833 27.4C7.29477 27.4 7.58573 27.691 7.58573 28.1275C7.58573 28.5639 7.29477 28.8965 6.85833 28.8965C6.42189 28.8965 6.08937 28.5709 6.08937 28.1275C6.08937 27.6841 6.41496 27.4 6.85833 27.4ZM9.8857 4.60016C11.2019 4.60016 12.151 5.58393 12.151 6.8656C12.151 8.14727 11.2019 9.16568 9.8857 9.16568C8.56945 9.16568 7.58573 8.14727 7.58573 6.8656C7.58573 5.58393 8.56945 4.60016 9.8857 4.60016ZM9.80949 27.407C10.2459 27.407 10.5785 27.6979 10.5785 28.1344C10.5785 28.5709 10.2529 28.9034 9.80949 28.9034C9.36613 28.9034 9.04053 28.5778 9.04053 28.1344C9.04053 27.691 9.36613 27.407 9.80949 27.407ZM9.8857 6.0966C9.44926 6.0966 9.11673 6.38757 9.11673 6.8656C9.11673 7.34363 9.44233 7.6346 9.8857 7.6346C10.3568 7.6346 10.6547 7.34363 10.6547 6.8656C10.6547 6.38757 10.3637 6.0966 9.8857 6.0966ZM9.8857 21.3104C10.3221 21.3104 10.6547 21.636 10.6547 22.0794C10.6547 22.5228 10.3291 22.8484 9.8857 22.8484C9.44233 22.8484 9.11673 22.5228 9.11673 22.0794C9.11673 21.636 9.44233 21.3104 9.8857 21.3104ZM9.8857 24.3379C10.3221 24.3379 10.6547 24.6635 10.6547 25.1069C10.6547 25.5503 10.3291 25.8759 9.8857 25.8759C9.44233 25.8759 9.11673 25.5503 9.11673 25.1069C9.11673 24.6635 9.44233 24.3379 9.8857 24.3379ZM12.7676 27.4C13.204 27.4 13.5365 27.691 13.5365 28.1275C13.5365 28.5639 13.2109 28.8965 12.7676 28.8965C12.3658 28.8965 11.9986 28.5709 11.9986 28.1275C11.9986 27.6841 12.3658 27.4 12.7676 27.4ZM15.8296 27.4C16.266 27.4 16.557 27.691 16.557 28.1275C16.557 28.5639 16.266 28.8965 15.8296 28.8965C15.3931 28.8965 15.026 28.5709 15.026 28.1275C15.026 27.6841 15.3931 27.4 15.8296 27.4ZM18.7877 27.4C19.2241 27.4 19.5151 27.691 19.5151 28.1275C19.5151 28.5639 19.2241 28.8965 18.7877 28.8965C18.3512 28.8965 18.0187 28.5709 18.0187 28.1275C18.0187 27.6841 18.3443 27.4 18.7877 27.4ZM22.6533 18.2067L20.9768 15.6502C20.1386 14.3755 19.5151 13.4956 19.2587 12.7682C18.7461 11.9299 18.4205 11.0154 18.275 10.0317C17.9494 8.13341 18.3097 6.23515 19.3003 4.52395C19.7714 3.65103 20.3602 2.88203 21.1223 2.22387C21.9605 1.49644 22.9096 0.949129 23.8933 0.547308C25.937 -0.180127 27.9806 -0.180127 30.0243 0.547308C31.008 0.949129 31.9224 1.49644 32.7607 2.22387C33.5296 2.84739 34.1115 3.60946 34.5826 4.48931C35.5663 6.13124 35.8989 8.06413 35.6079 9.99703C35.4624 10.9808 35.1299 11.8953 34.6588 12.7682C34.3679 13.4956 33.6405 14.4863 32.8715 15.6502C32.3242 16.4192 31.7769 17.2575 31.195 18.2067C29.9203 20.0703 28.895 21.927 28.2023 23.6451C27.8767 24.4834 27.6896 25.2524 27.6896 25.869H26.1586C26.1586 25.2454 25.9785 24.4834 25.6114 23.6451C24.9879 21.927 23.8587 20.0703 22.6533 18.2067ZM33.4534 12.1101C34.5133 10.0663 34.548 7.55146 33.5296 5.50772C33.1278 4.73872 32.5459 3.97664 31.8531 3.35313C30.5023 2.22387 28.7496 1.53108 26.9969 1.53108C25.1334 1.53108 23.4915 2.22387 22.1406 3.35313C20.866 4.4131 20.097 5.79869 19.7714 7.44062C19.4804 9.08254 19.7368 10.6136 20.5404 12.1101C20.8313 12.692 21.5241 13.6827 22.293 14.8466C24.0804 17.3614 25.6876 20.0287 26.9969 22.8414C28.3478 20.0287 29.8441 17.3684 31.7007 14.8466C32.4697 13.6758 33.1209 12.5812 33.4534 12.1101ZM21.7388 27.4C22.1753 27.4 22.4662 27.691 22.4662 28.1275C22.4662 28.5639 22.1753 28.8965 21.7388 28.8965C21.3024 28.8965 20.9699 28.5709 20.9699 28.1275C20.9699 27.6841 21.2955 27.4 21.7388 27.4ZM24.6969 27.4C25.1334 27.4 25.4659 27.691 25.4659 28.1275C25.4659 28.5639 25.1403 28.8965 24.6969 28.8965C24.2536 28.8965 23.928 28.5709 23.928 28.1275C23.928 27.6841 24.2536 27.4 24.6969 27.4ZM26.9207 6.08967C28.417 6.08967 29.6571 7.26049 29.6571 8.82621C29.6571 10.3919 28.417 11.5627 26.9207 11.5627C25.3481 11.5627 24.1496 10.3226 24.1496 8.82621C24.1496 7.32977 25.355 6.08967 26.9207 6.08967ZM26.9207 7.55146C26.2279 7.55146 25.6806 8.06413 25.6806 8.75693C25.6806 9.44972 26.2279 9.96239 26.9207 9.96239C27.6134 9.96239 28.1261 9.44972 28.1261 8.75693C28.1261 8.06413 27.6134 7.55146 26.9207 7.55146ZM27.6896 27.4C28.0914 27.4 28.4586 27.691 28.4586 28.1275C28.4586 28.5639 28.0914 28.8965 27.6896 28.8965C27.2532 28.8965 26.9207 28.5709 26.9207 28.1275C26.9207 27.6841 27.2463 27.4 27.6896 27.4Z" fill="#6A31F7"/>
</svg>
