<svg width="73" height="60" viewBox="0 0 73 60" fill="none" xmlns="http://www.w3.org/2000/svg">
<g clip-path="url(#clip0_240_933)">
<path d="M3.06549 13.5247C3.06549 12.5854 3.65318 12.0219 4.5903 12.0219H69.9186V9.00078H1.5248C0.651218 9.00078 0 8.4216 0 7.49804C0 6.6371 0.651218 6.05792 1.5248 6.05792H6.05157V1.50274C6.05157 0.563527 6.70279 0 7.65579 0H16.7728C17.6464 0 18.2341 0.579181 18.2341 1.50274V6.04226H24.2857V1.50274C24.2857 0.563527 24.9369 0 25.8899 0H47.126C48.079 0 48.6667 0.579181 48.6667 1.50274V6.04226H54.7182V1.50274C54.7182 0.563527 55.3694 0 56.243 0H65.376C66.329 0 66.9008 0.579181 66.9008 1.50274V6.04226H71.507C72.3805 6.04226 72.9682 6.62145 72.9682 7.48239V13.5247C72.9682 14.3856 72.3805 15.0274 71.507 15.0274H6.05157V47.9781C6.05157 48.839 5.5433 49.4808 4.5903 49.4808C3.63729 49.4808 3.06549 48.839 3.06549 47.9781V13.5247ZM0 52.4393C0 51.5784 0.651218 50.9992 1.5248 50.9992H66.9325V17.9859C66.9325 17.125 67.5202 16.4675 68.4732 16.4675C69.4262 16.4675 69.9345 17.1093 69.9345 17.9859V52.4393C69.9345 53.3786 69.4262 53.9421 68.4732 53.9421H3.06549V56.9632H71.5387C72.4123 56.9632 73 57.5424 73 58.4659C73 59.3269 72.4123 59.9687 71.5387 59.9687H1.5248C0.651218 59.9687 0 59.3269 0 58.4659V52.4237V52.4393ZM15.1845 6.04226V3.02113H9.13294V6.04226H15.1845ZM10.6577 31.5106C11.5313 31.5106 12.1826 32.1524 12.1826 33.029C12.1826 33.8116 11.5313 34.4691 10.6577 34.4691C9.78416 34.4691 9.13294 33.8273 9.13294 33.029C9.13294 32.168 9.78416 31.5106 10.6577 31.5106ZM16.7887 31.5106C17.6623 31.5106 18.25 32.1524 18.25 33.029C18.25 33.8116 17.6623 34.4691 16.7887 34.4691C15.9151 34.4691 15.1845 33.8273 15.1845 33.029C15.1845 32.168 15.9151 31.5106 16.7887 31.5106ZM22.8403 31.5106C23.7139 31.5106 24.3016 32.1524 24.3016 33.029C24.3016 33.8116 23.7139 34.4691 22.8403 34.4691C21.9667 34.4691 21.3155 33.8273 21.3155 33.029C21.3155 32.168 21.9667 31.5106 22.8403 31.5106ZM45.6171 6.04226V3.02113H27.3671V6.04226H45.6171ZM33.5775 44.3934L38.6919 34.4691H31.9732C31.0202 34.4691 30.4484 33.8899 30.4484 33.029C30.4484 32.7472 30.369 32.5907 30.5914 32.3872L36.6429 20.4435C36.9288 19.6452 37.8819 19.3634 38.6919 19.6452C39.3431 19.9269 39.7084 20.8035 39.4225 21.5862L34.3875 31.5106H41.1062C42.0592 31.5106 42.5674 32.0897 42.5674 33.029C42.5674 33.2481 42.6469 33.389 42.4245 33.6081L36.3729 45.5518C36.087 46.1936 35.6423 46.491 35.0546 46.491C34.1016 46.491 33.4504 45.8492 33.4504 44.9883C33.4504 44.7065 33.5298 44.6282 33.5933 44.4091L33.5775 44.3934ZM50.2232 31.5106C51.0968 31.5106 51.6845 32.1524 51.6845 33.029C51.6845 33.8116 51.0968 34.4691 50.2232 34.4691C49.3497 34.4691 48.6984 33.8273 48.6984 33.029C48.6984 32.168 49.3497 31.5106 50.2232 31.5106ZM56.2748 31.5106C57.1484 31.5106 57.7996 32.1524 57.7996 33.029C57.7996 33.8116 57.1484 34.4691 56.2748 34.4691C55.4012 34.4691 54.75 33.8273 54.75 33.029C54.75 32.168 55.4012 31.5106 56.2748 31.5106ZM63.8671 6.04226V3.02113H57.7996V6.04226H63.8671ZM62.4058 31.5106C63.2794 31.5106 63.8671 32.1524 63.8671 33.029C63.8671 33.8116 63.2794 34.4691 62.4058 34.4691C61.5322 34.4691 60.8016 33.8273 60.8016 33.029C60.8016 32.168 61.5322 31.5106 62.4058 31.5106Z" fill="#00BB5A"/>
</g>
<defs>
<clipPath id="clip0_240_933">
<rect width="73" height="60" fill="white"/>
</clipPath>
</defs>
</svg>
