<svg width="45" height="45" viewBox="0 0 45 45" fill="none" xmlns="http://www.w3.org/2000/svg">
<g clip-path="url(#clip0_636_5682)">
<path d="M43.2827 23.5124C42.0695 20.7699 39.9934 18.6938 37.2508 17.4805C36.1487 17.0021 34.9867 16.7458 33.7479 16.6603V2.79381C33.7479 1.22176 32.5346 0 30.9541 0H10.842C10.7993 0 10.7053 0.0939814 10.7053 0.1367C10.7053 0.1367 10.6199 0.179419 10.6199 0.230682L0.2734 10.5772C0.0939814 10.7566 0 10.936 0 11.2521V42.172C0 43.7441 1.21321 45.0085 2.83653 45.0085H30.9626C32.5347 45.0085 33.7564 43.7526 33.7564 42.172V39.0877C33.4745 39.1133 33.184 39.1304 32.8935 39.1304C34.4655 39.1304 35.9094 38.8143 37.2593 38.2333C40.0019 37.0201 42.078 34.944 43.2912 32.2014C43.8722 30.8515 44.1456 29.4076 44.1456 27.8783C44.1456 26.349 43.8722 24.8624 43.2912 23.5124H43.2827ZM30.9626 43.1118H2.83653C2.25555 43.1118 1.88817 42.753 1.88817 42.1635V11.611L10.3465 3.19537L10.4405 11.2521H3.73362C3.19537 11.2521 2.83653 11.611 2.83653 12.1492C2.83653 12.7388 3.19537 13.0976 3.73362 13.0976H11.3376C11.9185 13.0976 12.2859 12.6448 12.2859 12.1492L12.192 1.84545H30.9541C31.535 1.84545 31.8511 2.20429 31.8511 2.79381V16.6774C30.6721 16.7714 29.57 17.0363 28.5618 17.4891C25.8193 18.7023 23.6577 20.7784 22.5299 23.521C21.9489 24.8709 21.6328 26.3148 21.6328 27.8868C21.6328 29.4589 21.9489 30.8601 22.5299 32.21C23.6577 34.9525 25.8193 37.0287 28.5618 38.2419C29.5785 38.6947 30.6721 38.9852 31.8511 39.0877V42.1806C31.8511 42.7615 31.535 43.1289 30.9541 43.1289L30.9626 43.1118ZM41.5312 31.5265C40.5829 33.8248 38.8314 35.5335 36.5331 36.4733C35.4054 36.9689 34.1921 37.2423 32.8849 37.2423C31.5777 37.2423 30.3645 36.9689 29.2368 36.4733C26.9385 35.525 25.187 33.8162 24.2899 31.5265C23.7944 30.356 23.521 29.1428 23.521 27.8783C23.521 26.6138 23.7944 25.3579 24.2899 24.1874C25.187 21.8891 26.947 20.1804 29.2368 19.2406C30.3645 18.745 31.5777 18.4716 32.8849 18.4716C34.1921 18.4716 35.4054 18.745 36.5331 19.2406C38.8314 20.1889 40.5829 21.8977 41.5312 24.1874C42.0268 25.3579 42.2489 26.5711 42.2489 27.8783C42.2489 29.1855 42.0268 30.356 41.5312 31.5265ZM38.2419 23.9225C38.6007 24.2814 38.6007 24.8709 38.2419 25.2297L31.6717 31.7999C31.4923 31.9793 31.3129 32.0733 30.9968 32.0733C30.7746 32.0733 30.5952 31.9879 30.3645 31.7999L27.528 29.0061C27.1692 28.6045 27.1692 28.015 27.528 27.6989C27.9296 27.2973 28.5191 27.2973 28.8352 27.6989L30.9968 29.8177L36.9347 23.9225C37.2935 23.5637 37.883 23.5637 38.2419 23.9225Z" fill="#00BB5A"/>
</g>
<defs>
<clipPath id="clip0_636_5682">
<rect width="44.1371" height="45" fill="white"/>
</clipPath>
</defs>
</svg>
