<svg width="20" height="20" viewBox="0 0 20 20" fill="none" xmlns="http://www.w3.org/2000/svg">
<path d="M19.999 6.06326C19.999 7.45239 19.5518 8.78269 18.7477 9.81887L18.689 9.89579L17.4196 11.4026L14.7815 14.5518C13.8239 15.7057 12.9069 16.8188 12.026 17.8595L10.4269 19.778L10.3682 19.8368C10.1333 20.0902 9.74477 20.0314 9.48729 19.778C9.29304 19.5246 8.76452 18.8957 7.88817 17.8595C7.02988 16.8233 6.11288 15.7102 5.13262 14.5518C4.17496 13.3799 3.29861 12.3211 2.49453 11.3618L1.24324 9.81434C0.452718 8.78269 0.000989933 7.45239 0.000989933 6.06326C-0.0577348 2.81897 2.50357 0.0588227 5.74246 0C7.38223 0 8.92714 0.764695 9.99774 1.93663C11.0729 0.764695 12.6178 0 14.2575 0C17.5009 0.0588227 20.0577 2.81897 19.999 6.06326ZM17.7539 9.13562C18.436 8.2759 18.7477 7.21709 18.689 6.06326C18.7884 3.52031 16.7737 1.3122 14.1762 1.25338C12.69 1.25338 11.3078 2.07689 10.5037 3.32575C10.5037 3.38457 10.445 3.38457 10.3682 3.44339C10.0565 3.69678 9.60474 3.63796 9.43308 3.32575C8.63352 2.07237 7.24671 1.25338 5.74246 1.25338C3.18568 1.3122 1.19355 3.52031 1.25228 6.06326C1.25228 7.21709 1.62269 8.27138 2.24608 9.13562L3.22181 10.3076C3.80906 10.9908 4.49117 11.8324 5.29073 12.7917L7.78879 15.7645C8.64707 16.7826 9.38791 17.6604 9.99322 18.407C10.5985 17.6649 11.3394 16.7826 12.1977 15.7645L14.6776 12.7917L16.7646 10.3076L17.7404 9.13562H17.7539Z" fill="black"/>
</svg>
