<svg width="17" height="18" viewBox="0 0 17 18" fill="none" xmlns="http://www.w3.org/2000/svg">
<path d="M14.7376 17.9961H0V0H9.86738L14.7376 4.83177V7.30869H13.6024V5.62328H9.06561V1.12623H1.13519V16.8738H13.6063V15.1884H14.7415V18L14.7376 17.9961ZM7.3668 8.43492C8.33925 8.43492 9.06561 9.15555 9.06561 10.1203C9.06561 11.0851 8.33925 11.8057 7.3668 11.8057H6.79921V14.0543H5.66402V8.43098H7.36283L7.3668 8.43492ZM7.3668 10.6834C7.70418 10.6834 7.93439 10.455 7.93439 10.1203C7.93439 9.78561 7.70418 9.55721 7.3668 9.55721H6.79921V10.6834H7.3668ZM11.336 8.43492C12.3084 8.43492 13.0348 9.15555 13.0348 10.1203V12.3688C13.0348 13.3336 12.3084 14.0543 11.336 14.0543H9.63717V8.43098H11.336V8.43492ZM10.2008 4.49705H12.8046L10.2008 1.9138V4.49705ZM11.8996 10.1203C11.8996 9.78561 11.6694 9.55721 11.332 9.55721H10.7644V12.932H11.332C11.6694 12.932 11.8996 12.7036 11.8996 12.3688V10.1203ZM15.3012 9.55721V10.6834H17V11.8097H15.3012V14.0582H14.166V9.27762C14.166 8.83658 14.5748 8.43492 15.0154 8.43492H17V9.56115H15.3012V9.55721Z" fill="#626262"/>
</svg>
