<svg width="45" height="45" viewBox="0 0 45 45" fill="none" xmlns="http://www.w3.org/2000/svg">
<path d="M43.2827 23.5124C42.0695 20.7699 39.9934 18.6938 37.2508 17.4805C36.1487 17.0021 34.9867 16.7458 33.7479 16.6603V2.79381C33.7479 1.22176 32.5346 0 30.9541 0H10.842C10.7993 0 10.7053 0.0939814 10.7053 0.1367C10.7053 0.1367 10.6199 0.179419 10.6199 0.230682L0.2734 10.5772C0.0939814 10.7566 0 10.936 0 11.2521V42.172C0 43.7441 1.21321 45.0085 2.83653 45.0085H30.9626C32.5347 45.0085 33.7564 43.7526 33.7564 42.172V39.0877C33.4745 39.1133 33.184 39.1304 32.8935 39.1304C34.4655 39.1304 35.9094 38.8143 37.2593 38.2333C40.0019 37.0201 42.078 34.944 43.2912 32.2014C43.8722 30.8515 44.1456 29.4076 44.1456 27.8783C44.1456 26.349 43.8722 24.8624 43.2912 23.5124H43.2827ZM31.8597 42.1635C31.8597 42.7444 31.5436 43.1118 30.9626 43.1118H2.83653C2.25555 43.1118 1.88817 42.753 1.88817 42.1635V11.611L10.3465 3.19537L10.4405 11.2521H3.73362C3.19537 11.2521 2.83653 11.611 2.83653 12.1492C2.83653 12.7388 3.19537 13.0976 3.73362 13.0976H11.3376C11.9185 13.0976 12.2859 12.6448 12.2859 12.1492L12.192 1.84545H30.9541C31.535 1.84545 31.8511 2.20429 31.8511 2.79381V16.6774C30.6721 16.7714 29.57 17.0363 28.5618 17.4891C25.8193 18.7023 23.6577 20.7784 22.5299 23.521C21.9489 24.8709 21.6328 26.3148 21.6328 27.8868C21.6328 29.4589 21.9489 30.8601 22.5299 32.21C23.6577 34.9525 25.8193 37.0287 28.5618 38.2419C29.5785 38.6947 30.6721 38.9852 31.8511 39.0877V42.1806L31.8597 42.1635ZM41.5312 31.5179C40.5829 33.8162 38.8314 35.525 36.5331 36.4648C35.4054 36.9603 34.1921 37.2337 32.8849 37.2337C31.5777 37.2337 30.3645 36.9603 29.2368 36.4648C26.9385 35.5164 25.187 33.8077 24.2899 31.5179C23.7944 30.3474 23.521 29.1342 23.521 27.8698C23.521 26.6053 23.7944 25.3493 24.2899 24.1788C25.187 21.8806 26.947 20.1718 29.2368 19.232C30.3645 18.7365 31.5777 18.4631 32.8849 18.4631C34.1921 18.4631 35.4054 18.7365 36.5331 19.232C38.8314 20.1804 40.5829 21.8891 41.5312 24.1788C42.0268 25.3493 42.2489 26.5626 42.2489 27.8698C42.2489 29.177 42.0268 30.3474 41.5312 31.5179ZM37.1397 30.8515C37.5071 31.2189 37.5071 31.817 37.1397 32.1844C36.9603 32.3638 36.7125 32.4578 36.4733 32.4578C36.2341 32.4578 35.9949 32.3638 35.8069 32.1844L32.7653 29.1342L29.7152 32.1844C29.5358 32.3638 29.288 32.4578 29.0488 32.4578C28.8096 32.4578 28.5703 32.3638 28.3824 32.1844C28.015 31.817 28.015 31.2189 28.3824 30.8515L31.4325 27.8014L28.3824 24.7513C28.015 24.3839 28.015 23.7858 28.3824 23.4185C28.7498 23.0511 29.3478 23.0511 29.7152 23.4185L32.7653 26.4686L35.8069 23.427C36.1743 23.0596 36.7724 23.0596 37.1397 23.427C37.5071 23.7944 37.5071 24.3924 37.1397 24.7598L34.0982 27.8014L37.1397 30.843V30.8515Z" fill="#D53C00"/>
</svg>
