<svg width="50" height="40" viewBox="0 0 50 40" fill="none" xmlns="http://www.w3.org/2000/svg">
<path d="M0 37.8715H5.30201C4.85139 37.2675 4.43912 36.4525 4.2953 35.8006H0V0H46.4142L50 26.3087V35.8006H45.7622V33.6817H47.8811V31.5628H45.7622V29.4918H47.8811V26.4142L47.5743 24.1898H44.1898C42.4257 24.1898 40.9588 23.5858 39.6932 22.3682C38.4851 21.1026 37.8715 19.6453 37.8715 17.8715V14.7363H35.7526V16.8552H33.6817V10.5465H35.7526V12.6174H37.8715V4.23778H44.8418L44.4871 2.11889H23.303H2.11889V4.23778H6.30872V27.3634H4.18984V6.30872H2.11889V29.4918H4.18984V31.5628H2.11889V33.6817H4.28571C4.8418 31.256 6.86481 29.4918 9.49185 29.4918C12.4736 29.4918 14.7459 31.7641 14.7459 34.7459C14.7459 35.906 14.3432 37.0662 13.6817 37.8811H34.1898C33.7872 37.2771 33.3845 36.4621 33.2311 35.8102H16.8169V33.6913H33.2311C33.7872 31.2656 35.8102 29.5014 38.4372 29.5014C41.3135 29.5014 43.6913 31.7737 43.6913 34.7555C43.6913 35.9156 43.2886 37.0757 42.627 37.8907H50V40.0096H0V37.8907V37.8715ZM9.49185 31.5628C7.67018 31.5628 6.30872 32.9243 6.30872 34.7459C6.30872 36.5676 7.67018 37.8811 9.49185 37.8811C11.3135 37.8811 12.627 36.5197 12.627 34.7459C12.627 32.9722 11.2656 31.5628 9.49185 31.5628ZM8.42761 13.6817H10.4986V15.8006H8.42761V13.6817ZM8.42761 33.6817H10.4986V35.8006H8.42761V33.6817ZM10.4986 17.8715H12.6174V19.9904H10.4986V17.8715ZM18.9358 19.8945H14.7459V17.7756H18.9358V15.7047H12.627V13.5858H18.9358V10.5561H31.5628V23.1831H18.9358V19.9041V19.8945ZM29.4439 21.0546V12.6174H21.0642V21.0546H29.4439ZM38.4372 31.5628C36.6155 31.5628 35.2541 32.9243 35.2541 34.7459C35.2541 36.5676 36.6155 37.8811 38.4372 37.8811C40.2589 37.8811 41.5724 36.5197 41.5724 34.7459C41.5724 32.9722 40.2109 31.5628 38.4372 31.5628ZM37.373 33.6817H39.4439V35.8006H37.373V33.6817ZM47.373 22.1189L45.1486 6.30872H40V17.8715C40 20.2493 41.9175 22.1093 44.1898 22.1093H47.373V22.1189Z" fill="#6A31F7"/>
</svg>
