<svg width="20" height="20" viewBox="0 0 20 20" fill="none" xmlns="http://www.w3.org/2000/svg">
<g clip-path="url(#clip0_284_10587)">
<path d="M14.2152 0C12.6576 0 11.1254 0.681067 9.99403 1.87548C8.87277 0.681067 7.34055 0 5.77789 0C2.53081 0.0609911 -0.0617852 2.79543 -0.000902391 6.09911C-0.000902391 7.48666 0.445571 8.82846 1.25734 9.88056L2.49529 11.4155C3.28677 12.3609 4.14928 13.3977 5.10818 14.5769C5.88951 15.4968 6.62518 16.3863 7.33548 17.2503L7.83776 17.8551C8.74085 18.9225 9.23299 19.507 9.43086 19.7611C9.58814 19.9187 9.79108 20.0102 9.98895 20.0102C9.98895 20.0102 9.9991 20.0102 10.0042 20.0102C10.1716 20.0102 10.3187 19.939 10.4304 19.8221L12.0793 17.8602C12.7591 17.0572 13.4542 16.2185 14.1949 15.324L17.4217 11.4612L18.685 9.96188L18.7409 9.88564C19.5526 8.83354 19.9991 7.49682 19.9991 6.10928C20.06 2.80559 17.4674 0.0660737 14.2203 0.0101652L14.2152 0ZM10.476 3.53748C10.5166 3.51715 10.5724 3.48666 10.5826 3.4155C11.3791 2.18551 12.7388 1.41804 14.1341 1.41804C15.3365 1.44346 16.4578 1.94663 17.2898 2.831C18.127 3.72554 18.5633 4.88437 18.5176 6.10419C18.5734 7.23253 18.2589 8.26429 17.6094 9.08767L14.5704 12.7116L12.1148 15.6595C11.2726 16.6557 10.5775 17.4841 9.99403 18.1957C9.41564 17.4841 8.71549 16.6607 7.87327 15.6595L5.39737 12.7116C5.08789 12.3456 4.79869 11.9949 4.52472 11.6595C4.09854 11.1461 3.69773 10.6633 3.34258 10.2465L2.3786 9.08767C1.7444 8.21347 1.40955 7.1817 1.40955 6.09403C1.38418 4.88945 1.82051 3.7357 2.63735 2.84625C3.46434 1.95172 4.58053 1.43837 5.77282 1.41296C7.18834 1.41296 8.56328 2.18551 9.35476 3.42058C9.44608 3.58323 9.59829 3.68996 9.79108 3.72554C10.0092 3.7662 10.2376 3.70521 10.4151 3.5629C10.4354 3.54765 10.4608 3.53748 10.476 3.52732V3.53748Z" fill="black"/>
</g>
<defs>
<clipPath id="clip0_284_10587">
<rect width="20" height="20" fill="white"/>
</clipPath>
</defs>
</svg>
