<svg width="47" height="45" viewBox="0 0 47 45" fill="none" xmlns="http://www.w3.org/2000/svg">
<path d="M39.7436 22.4332C38.336 21.8274 36.8303 21.5423 35.1911 21.5423C33.5518 21.5423 32.0461 21.8274 30.683 22.4332C27.8232 23.6983 25.5692 25.8632 24.3932 28.723C23.7874 30.1307 23.4577 31.6363 23.4577 33.2756C23.4577 34.9149 23.7874 36.376 24.3932 37.7836C25.5692 40.6434 27.8232 42.8084 30.683 44.0735C32.0461 44.6882 33.5429 45.0089 35.1911 45.0089C36.8392 45.0089 38.336 44.6793 39.7436 44.0735C42.6034 42.8084 44.7684 40.6434 46.0335 37.7836C46.6393 36.376 46.9244 34.8703 46.9244 33.2756C46.9244 31.6809 46.6393 30.1307 46.0335 28.723C44.7684 25.8632 42.6034 23.6983 39.7436 22.4332ZM44.1982 37.0709C43.2093 39.4674 41.3829 41.2493 38.9863 42.2293C37.8103 42.746 36.5452 43.0311 35.1821 43.0311C33.819 43.0311 32.554 42.746 31.3779 42.2293C28.9814 41.2404 27.155 39.4585 26.2196 37.0709C25.7028 35.8503 25.4177 34.5852 25.4177 33.2667C25.4177 31.9481 25.7028 30.6385 26.2196 29.4179C27.155 27.0214 28.9903 25.2396 31.3779 24.2596C32.554 23.7428 33.819 23.4577 35.1821 23.4577C36.5452 23.4577 37.8103 23.7428 38.9863 24.2596C41.3829 25.2485 43.2093 27.0303 44.1982 29.4179C44.7149 30.6385 44.9465 31.9036 44.9465 33.2667C44.9465 34.6298 44.7149 35.8503 44.1982 37.0709ZM40.7682 29.1418C41.1423 29.5159 41.1423 30.1307 40.7682 30.5049L33.917 37.356C33.73 37.5431 33.5429 37.6411 33.2132 37.6411C32.9816 37.6411 32.7945 37.552 32.554 37.356L29.5961 34.4427C29.2219 34.024 29.2219 33.4092 29.5961 33.0796C30.0149 32.6609 30.6296 32.6609 30.9592 33.0796L33.2132 35.2891L39.4051 29.1418C39.7793 28.7676 40.394 28.7676 40.7682 29.1418ZM45.9889 0H0.988913C0.418729 0 0 0.374183 0 0.988913V31.3067C0 31.8679 0.418729 32.2956 0.988913 32.2956H21.4977C22.1125 32.2956 22.5312 31.8769 22.5312 31.3067C22.5312 30.7365 22.1125 30.3178 21.4977 30.3178H3.99129L20.6514 18.3973C21.5423 18.9141 22.5312 19.1012 23.4666 19.1012C24.4556 19.1012 25.391 18.7715 26.3265 18.3973L30.3178 21.3552C30.5494 21.3997 30.7365 21.5423 30.879 21.5423C31.2087 21.5423 31.4938 21.3552 31.6809 21.1235C32.0105 20.7494 31.8679 20.001 31.4938 19.7604L27.9747 17.2303L44.9555 3.14492V24.3576C44.9555 24.9188 45.3742 25.3465 45.9889 25.3465C46.5502 25.3465 46.9244 24.9277 46.9244 24.3576V0.988913C46.9244 0.383092 46.5502 0 45.9889 0ZM1.96892 29.3288V3.14492L19.0032 17.2213L1.96892 29.3288ZM26.1394 16.1433C25.391 16.7046 24.4466 17.1323 23.4666 17.1323C22.4866 17.1323 21.5423 16.8472 20.8384 16.1433L3.61711 1.96892H43.3162L26.1394 16.1433Z" fill="#00BB5A"/>
</svg>
