<svg width="14" height="12" viewBox="0 0 14 12" fill="none" xmlns="http://www.w3.org/2000/svg">
<path d="M7.44391 0.252159L9.14418 3.30689C9.21143 3.43177 9.3363 3.51822 9.4804 3.54704L12.9098 4.21947C13.2844 4.29632 13.4381 4.75741 13.1787 5.03598L10.7964 7.5912C10.7004 7.69686 10.6523 7.84096 10.6715 7.98505L11.0942 11.4528C11.1422 11.8371 10.7484 12.1157 10.4026 11.9524L7.23257 10.4826C7.09809 10.425 6.954 10.425 6.81951 10.4826L3.64951 11.9524C3.30369 12.1157 2.90984 11.8275 2.95787 11.4528L3.38054 7.98505C3.39975 7.84096 3.35172 7.69686 3.25566 7.5912L0.86375 5.03598C0.604386 4.75741 0.748477 4.29632 1.13272 4.21947L4.56209 3.54704C4.70618 3.51822 4.83106 3.43177 4.8983 3.30689L6.57936 0.252159C6.76188 -0.0840531 7.25179 -0.0840531 7.4343 0.252159H7.44391Z" fill="white"/>
</svg>
