<svg width="24" height="22" viewBox="0 0 24 22" fill="none" xmlns="http://www.w3.org/2000/svg">
<path d="M0.480469 21.4252L2.68384 8.32621C2.75352 8.07363 3.04962 7.91251 3.25864 7.93428C3.5112 8.00396 3.67231 8.23476 3.65054 8.48298L1.53861 21.0289H22.3662L20.8073 11.5574C20.7376 11.3048 20.9466 11.0305 21.1992 11.0087C21.4517 10.939 21.7261 11.1481 21.7478 11.4006L23.4243 21.4252C23.494 21.6995 23.2632 21.9739 23.0585 22H0.963818C0.689485 22 0.480469 21.8171 0.480469 21.5166V21.4252ZM2.88851 6.21417C2.40516 5.365 2.24404 4.44616 2.43128 3.48377C2.63594 2.4996 3.09752 1.69398 3.82908 1.05384C4.6303 0.344022 5.597 0 6.67256 0C7.74812 0 8.71482 0.344022 9.51605 1.05384C9.9515 1.44576 10.2737 1.88124 10.5263 2.36025C11.1446 3.57522 11.1011 5.06888 10.4784 6.25772C10.3173 6.62352 9.97327 7.08511 9.60749 7.65558C9.15027 8.32185 8.61902 9.12312 8.04858 10.1116C7.47379 11.074 7.17768 11.8535 7.17768 12.4283H6.21534C6.21534 11.8535 5.91488 11.074 5.34444 10.1116C4.76965 9.12747 4.24275 8.32185 3.78553 7.65558C3.35008 7.03721 3.07575 6.57561 2.89286 6.20982L2.88851 6.21417ZM9.67717 5.7787C10.4131 4.47229 10.0691 2.79572 8.94125 1.78543C8.32292 1.23674 7.51733 0.958036 6.69433 0.958036C5.87134 0.958036 5.08753 1.23238 4.44741 1.78543C3.32395 2.79572 3.00172 4.49406 3.73763 5.7787C3.89875 6.07482 4.17308 6.55819 4.53886 7.08511C5.36621 8.20863 6.076 9.40182 6.69433 10.6647C7.31267 9.40182 8.02681 8.20863 8.84981 7.08511C9.21559 6.53642 9.51605 6.07482 9.67717 5.7787ZM4.79142 17.2229C5.06575 17.2229 5.24864 17.4058 5.24864 17.6801C5.24864 17.9545 5.06575 18.1635 4.79142 18.1635C4.51709 18.1635 4.30807 17.9588 4.30807 17.6801C4.30807 17.4014 4.51273 17.2229 4.79142 17.2229ZM6.69433 2.89153C7.52169 2.89153 8.11826 3.5099 8.11826 4.31552C8.11826 5.12114 7.52169 5.76128 6.69433 5.76128C5.86698 5.76128 5.24864 5.12114 5.24864 4.31552C5.24864 3.5099 5.86698 2.89153 6.69433 2.89153ZM6.64644 17.2272C6.92077 17.2272 7.12978 17.4101 7.12978 17.6845C7.12978 17.9588 6.92512 18.1679 6.64644 18.1679C6.36775 18.1679 6.16309 17.9632 6.16309 17.6845C6.16309 17.4058 6.36775 17.2272 6.64644 17.2272ZM6.69433 3.83215C6.42 3.83215 6.21099 4.01504 6.21099 4.31552C6.21099 4.61599 6.41565 4.79889 6.69433 4.79889C6.99044 4.79889 7.17768 4.61599 7.17768 4.31552C7.17768 4.01504 6.99479 3.83215 6.69433 3.83215ZM6.69433 13.3951C6.96867 13.3951 7.17768 13.5998 7.17768 13.8785C7.17768 14.1572 6.97302 14.3618 6.69433 14.3618C6.41565 14.3618 6.21099 14.1572 6.21099 13.8785C6.21099 13.5998 6.41565 13.3951 6.69433 13.3951ZM6.69433 15.2981C6.96867 15.2981 7.17768 15.5028 7.17768 15.7815C7.17768 16.0602 6.97302 16.2648 6.69433 16.2648C6.41565 16.2648 6.21099 16.0602 6.21099 15.7815C6.21099 15.5028 6.41565 15.2981 6.69433 15.2981ZM8.50581 17.2229C8.78014 17.2229 8.98915 17.4058 8.98915 17.6801C8.98915 17.9545 8.78449 18.1635 8.50581 18.1635C8.25324 18.1635 8.02246 17.9588 8.02246 17.6801C8.02246 17.4014 8.25324 17.2229 8.50581 17.2229ZM10.4305 17.2229C10.7048 17.2229 10.8877 17.4058 10.8877 17.6801C10.8877 17.9545 10.7048 18.1635 10.4305 18.1635C10.1562 18.1635 9.92537 17.9588 9.92537 17.6801C9.92537 17.4014 10.1562 17.2229 10.4305 17.2229ZM12.2899 17.2229C12.5642 17.2229 12.7471 17.4058 12.7471 17.6801C12.7471 17.9545 12.5642 18.1635 12.2899 18.1635C12.0155 18.1635 11.8065 17.9588 11.8065 17.6801C11.8065 17.4014 12.0112 17.2229 12.2899 17.2229ZM14.7197 11.4442L13.6659 9.83729C13.139 9.03603 12.7471 8.48298 12.586 8.02573C12.2637 7.49881 12.0591 6.92399 11.9676 6.30562C11.763 5.11243 11.9894 3.91924 12.6121 2.84363C12.9082 2.29493 13.2783 1.81156 13.7573 1.39786C14.2842 0.940618 14.8808 0.596595 15.4991 0.344022C16.7837 -0.113222 18.0683 -0.113222 19.3529 0.344022C19.9712 0.596595 20.546 0.940618 21.0729 1.39786C21.5562 1.78979 21.922 2.2688 22.2181 2.82185C22.8365 3.85392 23.0455 5.06888 22.8626 6.28385C22.7711 6.90222 22.5621 7.47704 22.266 8.02573C22.0831 8.48298 21.6259 9.1057 21.1426 9.83729C20.7985 10.3207 20.4545 10.8476 20.0888 11.4442C19.2875 12.6156 18.6431 13.7827 18.2076 14.8626C18.003 15.3895 17.8854 15.8729 17.8854 16.2605H16.923C16.923 15.8686 16.8098 15.3895 16.579 14.8626C16.1871 13.7827 15.4774 12.6156 14.7197 11.4442ZM21.5083 7.61203C22.1746 6.32739 22.1963 4.74663 21.5562 3.462C21.3037 2.97862 20.9379 2.4996 20.5024 2.10768C19.6533 1.39786 18.5516 0.962391 17.4499 0.962391C16.2786 0.962391 15.2466 1.39786 14.3974 2.10768C13.5962 2.77395 13.1129 3.64489 12.9082 4.67696C12.7253 5.70903 12.8864 6.67142 13.3915 7.61203C13.5744 7.97783 14.0099 8.60055 14.4932 9.33215C15.6167 10.9129 16.6269 12.5895 17.4499 14.3575C18.2991 12.5895 19.2396 10.9173 20.4066 9.33215C20.89 8.5962 21.2993 7.90815 21.5083 7.61203ZM14.1449 17.2229C14.4192 17.2229 14.6021 17.4058 14.6021 17.6801C14.6021 17.9545 14.4192 18.1635 14.1449 18.1635C13.8705 18.1635 13.6615 17.9588 13.6615 17.6801C13.6615 17.4014 13.8662 17.2229 14.1449 17.2229ZM16.0042 17.2229C16.2786 17.2229 16.4876 17.4058 16.4876 17.6801C16.4876 17.9545 16.2829 18.1635 16.0042 18.1635C15.7256 18.1635 15.5209 17.9588 15.5209 17.6801C15.5209 17.4014 15.7256 17.2229 16.0042 17.2229ZM17.402 3.82779C18.3426 3.82779 19.1221 4.56374 19.1221 5.5479C19.1221 6.53207 18.3426 7.26801 17.402 7.26801C16.4136 7.26801 15.6602 6.48852 15.6602 5.5479C15.6602 4.60728 16.4179 3.82779 17.402 3.82779ZM17.402 4.74663C16.9666 4.74663 16.6226 5.06888 16.6226 5.50435C16.6226 5.93983 16.9666 6.26207 17.402 6.26207C17.8375 6.26207 18.1597 5.93983 18.1597 5.50435C18.1597 5.06888 17.8375 4.74663 17.402 4.74663ZM17.8854 17.2229C18.138 17.2229 18.3687 17.4058 18.3687 17.6801C18.3687 17.9545 18.138 18.1635 17.8854 18.1635C17.6111 18.1635 17.402 17.9588 17.402 17.6801C17.402 17.4014 17.6067 17.2229 17.8854 17.2229Z" fill="#9E9D9D"/>
</svg>
