<svg width="93" height="15" viewBox="0 0 93 15" fill="none" xmlns="http://www.w3.org/2000/svg">
<path d="M8.38905 0.315199L10.5144 4.13361C10.5984 4.28971 10.7545 4.39778 10.9347 4.4338L15.2214 5.27433C15.6897 5.37039 15.8818 5.94676 15.5576 6.29498L12.5797 9.489C12.4596 9.62108 12.3996 9.8012 12.4236 9.98131L12.9519 14.316C13.012 14.7964 12.5197 15.1446 12.0874 14.9404L8.12489 13.1033C7.95678 13.0312 7.77667 13.0312 7.60856 13.1033L3.64606 14.9404C3.21378 15.1446 2.72147 14.7843 2.78151 14.316L3.30984 9.98131C3.33386 9.8012 3.27382 9.62108 3.15374 9.489L0.163855 6.29498C-0.16035 5.94676 0.0197641 5.37039 0.500068 5.27433L4.78678 4.4338C4.96689 4.39778 5.12299 4.28971 5.20704 4.13361L7.30837 0.315199C7.53651 -0.105066 8.1489 -0.105066 8.37705 0.315199H8.38905Z" fill="#6A31F7"/>
<path d="M27.598 0.315199L29.7234 4.13361C29.8074 4.28971 29.9635 4.39778 30.1436 4.4338L34.4304 5.27433C34.8987 5.37039 35.0908 5.94676 34.7666 6.29498L31.7887 9.489C31.6686 9.62108 31.6086 9.8012 31.6326 9.98131L32.1609 14.316C32.221 14.7964 31.7286 15.1446 31.2964 14.9404L27.3339 13.1033C27.1658 13.0312 26.9857 13.0312 26.8175 13.1033L22.855 14.9404C22.4228 15.1446 21.9305 14.7843 21.9905 14.316L22.5188 9.98131C22.5428 9.8012 22.4828 9.62108 22.3627 9.489L19.3728 6.29498C19.0486 5.94676 19.2287 5.37039 19.7091 5.27433L23.9958 4.4338C24.1759 4.39778 24.332 4.28971 24.416 4.13361L26.5174 0.315199C26.7455 -0.105066 27.3579 -0.105066 27.586 0.315199H27.598Z" fill="#6A31F7"/>
<path d="M46.8051 0.315199L48.9304 4.13361C49.0145 4.28971 49.1706 4.39778 49.3507 4.4338L53.6374 5.27433C54.1057 5.37039 54.2978 5.94676 53.9736 6.29498L50.9957 9.489C50.8756 9.62108 50.8156 9.8012 50.8396 9.98131L51.368 14.316C51.428 14.7964 50.9357 15.1446 50.5034 14.9404L46.5409 13.1033C46.3728 13.0312 46.1927 13.0312 46.0246 13.1033L42.0621 14.9404C41.6298 15.1446 41.1375 14.7843 41.1975 14.316L41.7259 9.98131C41.7499 9.8012 41.6898 9.62108 41.5698 9.489L38.5799 6.29498C38.2557 5.94676 38.4358 5.37039 38.9161 5.27433L43.2028 4.4338C43.3829 4.39778 43.539 4.28971 43.6231 4.13361L45.7244 0.315199C45.9525 -0.105066 46.5649 -0.105066 46.7931 0.315199H46.8051Z" fill="#9E9D9D"/>
<path d="M66.0101 0.315199L68.1355 4.13361C68.2195 4.28971 68.3756 4.39778 68.5558 4.4338L72.8425 5.27433C73.3108 5.37039 73.5029 5.94676 73.1787 6.29498L70.2008 9.489C70.0807 9.62108 70.0207 9.8012 70.0447 9.98131L70.573 14.316C70.6331 14.7964 70.1408 15.1446 69.7085 14.9404L65.746 13.1033C65.5779 13.0312 65.3978 13.0312 65.2297 13.1033L61.2671 14.9404C60.8349 15.1446 60.3426 14.7843 60.4026 14.316L60.9309 9.98131C60.955 9.8012 60.8949 9.62108 60.7748 9.489L57.7849 6.29498C57.4607 5.94676 57.6409 5.37039 58.1212 5.27433L62.4079 4.4338C62.588 4.39778 62.7441 4.28971 62.8281 4.13361L64.9295 0.315199C65.1576 -0.105066 65.77 -0.105066 65.9981 0.315199H66.0101Z" fill="#9E9D9D"/>
<path d="M85.2211 0.315199L87.3464 4.13361C87.4305 4.28971 87.5866 4.39778 87.7667 4.4338L92.0534 5.27433C92.5217 5.37039 92.7138 5.94676 92.3896 6.29498L89.4117 9.489C89.2917 9.62108 89.2316 9.8012 89.2556 9.98131L89.784 14.316C89.844 14.7964 89.3517 15.1446 88.9194 14.9404L84.9569 13.1033C84.7888 13.0312 84.6087 13.0312 84.4406 13.1033L80.4781 14.9404C80.0458 15.1446 79.5535 14.7843 79.6135 14.316L80.1419 9.98131C80.1659 9.8012 80.1059 9.62108 79.9858 9.489L76.9959 6.29498C76.6717 5.94676 76.8518 5.37039 77.3321 5.27433L81.6188 4.4338C81.7989 4.39778 81.955 4.28971 82.0391 4.13361L84.1404 0.315199C84.3685 -0.105066 84.9809 -0.105066 85.2091 0.315199H85.2211Z" fill="#9E9D9D"/>
</svg>
