<svg width="24" height="22" viewBox="0 0 24 22" fill="none" xmlns="http://www.w3.org/2000/svg">
<path d="M0.0390625 20.9931H3.53713C3.24868 20.6102 3.03366 20.0595 3.03366 19.4827C3.03366 18.1191 4.135 16.9915 5.551 16.9915C6.79919 16.9915 7.70648 17.8306 7.97395 19.0054H10.2763C10.25 18.8376 10.1819 18.6435 10.1819 18.4547V18.3341L10.6381 11.1911C10.6381 9.94296 11.451 8.86784 12.5786 8.41157L15.1169 7.66686V6.70712C14.4718 6.15645 14.1362 5.29111 14.1362 4.50444V3.3559C14.0628 3.2615 14.0628 3.2143 14.0628 3.11465C14.0628 2.99403 14.0628 2.94683 14.1362 2.87341C14.1624 1.43642 15.3844 0.214462 16.8214 0.020416C17.6133 -0.0739845 18.4262 0.162017 19.0241 0.665486C19.6219 1.14273 20.0048 1.84025 20.1254 2.60594H21.0117C21.3211 2.60594 21.5152 2.82096 21.5152 3.10941C21.5152 3.39786 21.3211 3.61288 21.0117 3.61288H20.1254V4.4992C20.1254 5.36453 19.7897 6.1512 19.1185 6.75432V7.71406L21.6358 8.45877C22.8106 8.91504 23.6235 9.99016 23.6235 11.2383L24.0063 18.3813C24.0063 18.7904 23.8857 19.147 23.6707 19.4355C23.4084 19.7449 23.0466 19.8917 22.6637 19.9651H21.5624V21.4965C21.5624 21.785 21.3683 22 21.0589 22C20.7705 22 20.5817 21.785 20.5817 21.4965V19.9651H18.4734C17.8755 19.9651 17.393 19.7029 17.0102 19.2939C16.7008 19.7029 16.1239 19.9651 15.5732 19.9651H13.5855V21.4965C13.5855 21.5909 13.6118 21.7116 13.5383 21.7378V22H0.0390625V20.9931ZM0.0390625 15.4549L1.28725 5.9624V3.51848H13.0296V4.4992H2.29419V6.0096H5.02656V14.9986H1.0932L1.046 15.5493V16.9863H2.02672V17.9932H1.046V19.0002H2.02672V19.9809H0.0390625V15.4497V15.4549ZM4.04059 13.9917V7.01654H2.14734L1.2348 13.9917H4.04059ZM5.551 17.9932C4.66469 17.9932 4.04059 18.6383 4.04059 19.4774C4.04059 20.3165 4.66469 20.9878 5.551 20.9878C6.39012 20.9878 7.03519 20.3427 7.03519 19.4774C7.03519 18.6121 6.39012 17.9932 5.551 17.9932ZM5.02131 19.0002H6.02825V19.9809H5.02131V19.0002ZM6.02825 6.0096H7.03519V14.9986H6.02825V6.0096ZM12.5734 20.9878V19.9547H11.5454V19.9809H7.97395C7.94773 20.3427 7.7327 20.6994 7.5439 20.9878H12.5786H12.5734ZM15.5679 19.0002C16.1186 19.0002 16.5277 18.5229 16.5277 18.0194V17.9932H12.5261C12.2377 17.9932 12.0227 17.7992 12.0227 17.4898C12.0227 17.1803 12.2377 16.9863 12.5261 16.9863H13.0768V10.0111H16.5749V10.9919H14.0575V16.9863H20.0467V10.9919H17.5766V10.0111H21.0537V16.9863H21.5099C21.8194 16.9863 22.0134 17.1803 22.0134 17.4898C22.0134 17.7992 21.8194 17.9932 21.5099 17.9932H17.5294C17.5294 18.5439 17.9594 18.953 18.4629 18.953H22.5588C22.7266 18.953 22.8001 18.9058 22.8945 18.7851C22.9889 18.6907 23.0623 18.5701 22.9889 18.4495L22.5588 11.2855C22.5588 10.4464 22.0082 9.70171 21.2634 9.39229L18.4104 8.50597C18.2164 8.43255 18.0486 8.26473 18.0486 8.0025V7.35743C17.7601 7.52526 17.4245 7.55148 17.0416 7.55148V6.57076C17.6185 6.57076 18.0486 6.30854 18.4052 6.02009C18.4542 6.00261 18.4856 5.97114 18.4996 5.92569C18.573 5.83129 18.6412 5.78409 18.7146 5.66347L18.7409 5.61627C18.8143 5.59005 18.8615 5.47467 18.8825 5.37502C18.8825 5.3016 18.9559 5.28062 18.9559 5.2072C18.9559 5.1128 19.0031 5.0656 19.0031 4.99218C19.0293 4.82435 19.0503 4.68275 19.0503 4.51493V3.62861H15.0959V4.51493C15.0959 5.16 15.4054 5.73689 15.8879 6.11974C16.0557 6.21414 16.1029 6.36098 16.1029 6.52881V8.06019C16.1029 8.25424 15.9351 8.46926 15.741 8.56366L12.888 9.40278C12.1433 9.7122 11.6189 10.4831 11.6189 11.2488L11.1626 18.4652C11.1626 18.7537 11.3566 19.0159 11.6661 19.0159H15.547L15.5679 19.0002ZM19.0188 2.60594C18.9454 2.14967 18.7304 1.76683 18.3737 1.4574C17.9647 1.09553 17.414 0.953932 16.9105 1.02735C16.0242 1.14798 15.3791 1.81927 15.1589 2.61119H19.0188V2.60594ZM16.5749 10.9971H17.5818V13.011H16.5749V10.9971Z" fill="#6A31F7"/>
</svg>
