<svg width="50" height="50" viewBox="0 0 50 50" fill="none" xmlns="http://www.w3.org/2000/svg">
<path d="M2.35455 13.0055L1.50018 11.705L0.854649 10.7082C0.607829 10.1576 0.408475 9.60699 0.256585 9.05639C0.104696 8.50579 0.00976562 7.90773 0.00976562 7.25271C0.00976562 6.59768 0.057231 5.99962 0.20912 5.55345C0.361009 4.95538 0.560364 4.45225 0.807184 4.00608V4.05354C1.054 3.50294 1.31032 3.10423 1.55714 2.80046C1.80396 2.44921 2.1552 2.09797 2.50644 1.85115C3.10451 1.30055 3.85446 0.854376 4.7563 0.446174C5.50625 0.142396 6.40809 0 7.40487 0C8.40164 0 9.30348 0.151889 10.0534 0.446174C10.9078 0.797418 11.6578 1.30055 12.2558 1.85115V1.80368L13.2526 2.80046C13.5564 3.1517 13.8032 3.55041 14.0026 3.99658V4.04405C14.2019 4.44276 14.4013 4.94589 14.5531 5.54395C14.705 5.99013 14.7525 6.59768 14.7525 7.24321C14.7525 7.9457 14.705 8.54376 14.5531 9.09436C14.4013 9.64496 14.2019 10.1956 13.9076 10.6987H13.9551L13.357 11.6955L12.4552 12.996C11.5059 14.344 10.6515 15.692 9.90154 16.9926C8.90477 18.5969 8.40164 19.8405 8.40164 20.7898H6.35114C6.35114 19.888 5.90496 18.6444 4.94616 16.9926L2.34506 12.996L2.35455 13.0055ZM22.0052 48.9558V46.8578H12.5026C10.8034 46.8578 9.19906 46.5066 7.65169 45.861C6.19925 45.263 4.85123 44.3611 3.6551 43.2125C2.50644 42.0638 1.6046 40.7158 1.00654 39.2633C0.361009 37.716 0.00976562 36.0642 0.00976562 34.3649C0.00976562 32.6657 0.361009 31.0139 1.00654 29.4665C1.6046 28.0141 2.50644 26.666 3.6551 25.5174C4.85123 24.3687 6.20874 23.4669 7.65169 22.8688C9.19906 22.2233 10.8034 21.872 12.5026 21.872H29.0016C29.6471 20.9227 30.3496 20.1253 31.0521 19.4703C31.8021 18.8722 32.552 18.3691 33.3494 17.9229V17.7236C33.3494 16.5749 32.9507 15.5686 32.1533 14.7238C31.2989 13.9263 30.3022 13.5276 29.1535 13.5276H21.3502C21.0464 13.5276 20.7996 13.4232 20.6002 13.2238C20.4009 13.0245 20.2965 12.7777 20.2965 12.5214C20.2965 12.2176 20.4009 11.9708 20.6002 11.7714C20.7996 11.5721 21.0464 11.4676 21.3502 11.4676H29.1535C30.9002 11.4676 32.4001 12.0657 33.6057 13.2713C34.6595 14.42 35.2575 15.6731 35.3525 17.1255C36.4062 16.8217 37.5074 16.6793 38.6561 16.6793H39.5579C39.4535 15.6256 39.2067 14.6288 38.8079 13.6795C38.2573 12.4264 37.5074 11.3252 36.5581 10.3759C35.5613 9.37915 34.4601 8.6292 33.207 8.12607C31.9539 7.57547 30.6059 7.27169 29.1535 7.27169H21.3502C21.0464 7.27169 20.7996 7.16727 20.6002 6.96791C20.4009 6.76856 20.2965 6.52174 20.2965 6.26543C20.2965 5.96165 20.4009 5.71483 20.6002 5.51547C20.7996 5.31612 21.0464 5.2117 21.3502 5.2117H29.1535C30.8527 5.2117 32.5045 5.56294 34.0519 6.20847C35.5993 6.854 36.9473 7.70837 38.0485 8.80957C39.1497 9.91076 40.0515 11.2588 40.6971 12.8062C41.2477 14.0592 41.5514 15.4547 41.6464 17.0021L42.795 17.3533C44.0481 17.9039 45.1968 18.6064 46.1936 19.4513C46.6967 19.8975 47.1903 20.4481 47.646 20.9987C47.9972 21.4448 48.3959 22.0524 48.7947 22.8024L48.8421 22.9068C49.1934 23.6093 49.4876 24.3592 49.6965 25.2041C49.9053 26.049 50.0003 26.9034 50.0003 27.8527C50.0003 28.8494 49.8959 29.7987 49.649 30.7006C49.4497 31.6024 49.0984 32.4473 48.6523 33.2542L48.6997 33.2068L47.7504 34.7541L46.3549 36.9091C45.5006 38.1052 44.8076 39.1589 44.2 40.1082C43.2507 41.5607 42.5482 42.7568 42.0546 43.7061C41.3046 45.1111 40.7066 46.2597 40.3553 47.1521C39.9091 48.2533 39.6528 49.2026 39.6528 50H37.6023C37.6023 49.2026 37.403 48.2533 36.9568 47.1521C36.653 46.4021 36.1024 45.2535 35.2575 43.7061L33.1121 40.1082L30.9097 36.9091L29.5617 34.7541C29.2104 34.2035 28.8592 33.7004 28.6124 33.2068C28.2137 32.5043 27.8624 31.6594 27.6156 30.6531C27.5681 30.4538 27.5112 30.3019 27.5112 30.2069H12.5121C11.3635 30.2069 10.4142 30.6057 9.60726 31.4031C8.75288 32.2575 8.35417 33.2068 8.35417 34.3554C8.35417 35.5041 8.75288 36.4534 9.60726 37.3078C10.4047 38.1052 11.354 38.5039 12.5121 38.5039H22.0147V36.6053C22.0147 36.3015 22.1191 36.0547 22.3659 35.8553C22.5178 35.656 22.7647 35.5515 23.0115 35.5515C23.1634 35.5515 23.3153 35.5515 23.4102 35.599L23.714 35.7984L30.9097 41.9499C31.0616 42.0543 31.1565 42.1492 31.2135 42.3011C31.261 42.5005 31.3179 42.6524 31.3179 42.8043C31.3179 42.9087 31.2704 43.0511 31.2135 43.2504C31.166 43.4023 31.0616 43.4972 30.9097 43.6017L23.714 49.7532L23.4102 50H23.0115C22.7647 50 22.5083 49.9051 22.3659 49.7532C22.1191 49.5064 22.0147 49.25 22.0147 48.9558H22.0052ZM10.7464 11.7524L11.5438 10.6038L12.047 9.74938C12.2463 9.39814 12.3982 8.99943 12.4932 8.55326C12.5976 8.10708 12.645 7.69888 12.645 7.25271C12.645 6.94893 12.5976 6.55022 12.5406 6.05658C12.4362 5.6104 12.2938 5.25916 12.0944 4.90792V4.95538C11.9426 4.55667 11.7907 4.2529 11.6483 4.10101L10.8983 3.39852C10.5471 3.04728 9.99648 2.69603 9.35095 2.40175C8.75288 2.15493 8.09786 2.0505 7.40487 2.0505C6.65491 2.0505 6.05685 2.15493 5.50625 2.40175C4.80377 2.64857 4.25317 2.99981 3.85446 3.39852C3.35133 3.84469 2.90515 4.39529 2.55391 5.09778C2.20266 5.74331 2.05078 6.49326 2.05078 7.24321C2.05078 7.74635 2.09824 8.19252 2.25013 8.54376C2.35455 8.98994 2.49695 9.4456 2.75326 9.79685L2.7058 9.74938L3.30386 10.6038L4.05381 11.8568C4.90819 13.053 5.50625 13.9073 5.75307 14.3535L7.25298 17.0021L7.40487 17.3059C7.80358 16.4515 8.35417 15.4547 9.10413 14.3535C9.80661 13.1574 10.3572 12.303 10.7559 11.7524H10.7464ZM28.6504 42.8043L24.1032 38.8551V39.5576C24.1032 39.8614 23.9988 40.1082 23.7994 40.3076C23.5526 40.5069 23.2963 40.6114 23.002 40.6114H12.5026C10.8034 40.6114 9.35095 40.0133 8.09786 38.7602C6.84478 37.5071 6.24671 36.0642 6.24671 34.3554C6.24671 32.6467 6.84478 31.1563 8.09786 29.9032C9.29399 28.707 10.7464 28.0995 12.5026 28.0995H27.2549V27.8527C27.2549 26.5047 27.5017 25.2041 27.9574 23.951H12.5026C11.0502 23.951 9.70219 24.1978 8.4491 24.7484C7.19602 25.2516 6.09482 26.0015 5.14552 26.9983C4.14874 27.9476 3.39879 29.0488 2.89566 30.3019C2.34506 31.555 2.09824 32.903 2.09824 34.3554C2.09824 35.8079 2.34506 37.1559 2.89566 38.409C3.39879 39.662 4.14874 40.7632 5.14552 41.7126C6.09482 42.7093 7.19602 43.4593 8.4491 43.9624C9.70219 44.513 11.0502 44.7598 12.5026 44.7598H23.002C23.3058 44.7598 23.5526 44.8643 23.7994 45.0636C23.9988 45.3104 24.1032 45.5667 24.1032 45.8136V46.7154L28.6504 42.8137V42.8043ZM5.80054 7.30017C5.80054 6.854 5.95243 6.50275 6.30367 6.19898C6.60745 5.8952 6.9492 5.7528 7.40487 5.7528C7.80358 5.7528 8.15482 5.90469 8.50606 6.19898C8.80984 6.55022 8.95224 6.90146 8.95224 7.30017C8.95224 7.74635 8.80035 8.09759 8.50606 8.3539C8.15482 8.70515 7.80358 8.85703 7.40487 8.85703C6.95869 8.85703 6.60745 8.70515 6.30367 8.3539C5.95243 8.10708 5.80054 7.75584 5.80054 7.30017ZM17.2017 6.24644C17.2017 5.94266 17.3061 5.69584 17.5055 5.49649C17.7048 5.29713 17.9517 5.19271 18.2554 5.19271C18.5023 5.19271 18.7586 5.29713 19.0054 5.49649C19.2048 5.69584 19.3092 5.94266 19.3092 6.24644C19.3092 6.49326 19.2048 6.74957 19.0054 6.94893C18.7586 7.14828 18.5023 7.25271 18.2554 7.25271C17.9517 7.25271 17.7048 7.14828 17.5055 6.94893C17.3061 6.74957 17.2017 6.50275 17.2017 6.24644ZM17.2017 12.4929C17.2017 12.1891 17.3061 11.9423 17.5055 11.7429C17.7048 11.5436 17.9517 11.4391 18.2554 11.4391C18.5023 11.4391 18.7586 11.5341 19.0054 11.7429C19.2048 11.9423 19.3092 12.1891 19.3092 12.4929C19.3092 12.7397 19.2048 12.996 19.0054 13.1954C18.7586 13.3947 18.5023 13.4991 18.2554 13.4991C17.9517 13.4991 17.7048 13.3947 17.5055 13.1954C17.3061 12.996 17.2017 12.7492 17.2017 12.4929ZM44.7506 35.4946L44.5987 35.6939C45.0449 35.1433 45.5006 34.4409 45.9467 33.6434C46.3454 33.0928 46.6492 32.5897 46.8486 32.191C47.1998 31.536 47.4941 30.843 47.646 30.1405C47.7979 29.3431 47.8928 28.5931 47.8928 27.8432C47.8928 27.2451 47.7884 26.5426 47.646 25.6882C47.4941 25.0427 47.2948 24.3877 46.9435 23.7422L46.991 23.7896C46.6397 23.1916 46.3454 22.6884 45.9942 22.2897C45.5955 21.7391 45.1968 21.3404 44.8455 21.0366V20.9892C44.0956 20.3342 43.1463 19.7931 41.9976 19.2899C40.9439 18.9387 39.7952 18.7393 38.6466 18.7393C37.3935 18.7393 36.2923 18.9387 35.2955 19.3374C34.1468 19.8405 33.1975 20.3911 32.4476 21.0366V20.9892C31.4508 21.891 30.7009 22.8878 30.1977 24.0365C29.5997 25.2326 29.2959 26.5331 29.2959 27.8906C29.2959 28.6406 29.4003 29.3905 29.5997 30.1405C29.799 30.8905 30.1028 31.5929 30.5015 32.2385L30.454 32.191C30.6534 32.5897 30.9572 33.0928 31.3084 33.6434C31.8116 34.4409 32.2577 35.1433 32.7039 35.6939C33.6057 36.9945 34.6025 38.5419 35.7512 40.3455C36.7479 41.9973 37.6498 43.6966 38.5042 45.4433L38.6561 45.7946C39.5104 43.9434 40.5072 42.0923 41.5609 40.3455C42.5102 38.7982 43.564 37.1938 44.7601 35.4946H44.7506ZM35.0012 27.9951C35.0012 27.0458 35.3525 26.1914 36.1024 25.4414C36.7479 24.7389 37.6023 24.3877 38.6561 24.3877C39.7098 24.3877 40.5072 24.7389 41.2097 25.4414C41.9122 26.1914 42.2634 27.0458 42.2634 27.9951C42.2634 28.9918 41.9122 29.8462 41.2097 30.5487C40.5642 31.1942 39.7098 31.6024 38.6561 31.6499C37.6023 31.6499 36.7574 31.2987 36.1024 30.5962C35.3525 29.8462 35.0012 28.9918 35.0012 27.9951ZM40.2034 27.9951C40.2034 27.5489 40.0515 27.1976 39.7573 26.9413C39.406 26.6376 39.0548 26.4952 38.6561 26.4952C38.2099 26.4952 37.8586 26.647 37.5549 26.9413C37.2036 27.1882 37.0517 27.5394 37.0517 27.9951C37.0517 28.4507 37.2036 28.7925 37.5549 29.0963C37.8586 29.4 38.2004 29.5424 38.6561 29.5424C39.0548 29.5424 39.406 29.3905 39.7573 29.0963C40.061 28.7925 40.2034 28.4412 40.2034 27.9951Z" fill="#6A31F7"/>
</svg>
