<svg width="33" height="32" viewBox="0 0 33 32" fill="none" xmlns="http://www.w3.org/2000/svg">
<path d="M32.0141 10.6511C31.4002 10.0317 30.6635 9.74014 29.8546 9.51422L22.7335 8.47206L19.5413 2.02964C19.1224 1.14781 18.4436 0.535636 17.5119 0.207685C16.5802 -0.120267 15.6775 -0.0546762 14.8036 0.368017C14.0597 0.659529 13.5469 1.27899 13.1569 2.02964L10.0658 8.47206L3.03863 9.51422C1.06697 9.80573 -0.254687 11.5912 0.041423 13.5808C0.171422 14.3971 0.554199 15.1404 1.0742 15.6651L6.23084 20.6719L5.00307 27.7337C4.71418 29.716 5.93473 31.6036 7.87028 31.8951C8.74416 32.0263 9.41583 31.8951 10.1597 31.6036L16.443 28.2512L22.7263 31.6036C23.6002 32.0554 24.5319 32.121 25.4635 31.8003C26.3952 31.5088 27.1102 30.9185 27.5941 30.044C27.9841 29.2933 28.1069 28.55 27.883 27.7337L26.7563 20.7739L31.9129 15.7672C33.3646 14.4335 33.3285 12.1233 32.0068 10.6584L32.0141 10.6511ZM30.0713 14.7614L24.6835 19.9941L25.868 27.3183L25.8896 27.3912C25.998 27.7775 25.9474 28.12 25.7235 28.5573C25.4563 29.0455 25.0663 29.3589 24.5246 29.5338C24.2646 29.6213 24.0408 29.665 23.8313 29.665C23.5424 29.665 23.2608 29.5921 22.9719 29.4464L16.443 25.9628L9.97916 29.4099C9.6036 29.5484 9.30749 29.614 9.00416 29.614C8.87416 29.614 8.73694 29.5994 8.5925 29.5848C7.5525 29.4245 6.87361 28.3896 7.03973 27.2309L8.31083 19.9212L2.94474 14.7104C2.6703 14.4262 2.44641 13.9816 2.37419 13.5225C2.30197 12.9978 2.42475 12.4731 2.7353 12.0504C3.04585 11.6277 3.5153 11.3507 4.04974 11.2706L11.3586 10.1847L14.5797 3.47991C14.818 3.02078 15.0925 2.72198 15.3958 2.59809L15.4897 2.55436C15.7786 2.41589 16.0602 2.34301 16.3419 2.34301C16.5586 2.34301 16.768 2.37945 16.9991 2.45962C17.5263 2.64181 17.8875 2.96248 18.1258 3.47262L21.448 10.1847L28.7496 11.2487C29.313 11.4163 29.7607 11.5985 30.1002 11.9411C30.8224 12.7427 30.8224 14.0545 30.0568 14.7614H30.0713Z" fill="white"/>
</svg>
