<svg width="12" height="14" viewBox="0 0 12 14" fill="none" xmlns="http://www.w3.org/2000/svg">
<g clip-path="url(#clip0_615_5437)">
<path d="M12 2.41417H8.80381V1.31699C8.80381 0.59285 8.24773 0.00585938 7.56171 0.00585938H4.43828C3.75227 0.00585938 3.19619 0.59285 3.19619 1.31699V2.41417H0V4.0325H1.32005C1.32005 4.0325 1.32005 4.05993 1.32005 4.07091L1.83976 12.3985C1.83976 13.2817 2.52057 14.0004 3.3573 14.0004H8.73625C9.57297 14.0004 10.2538 13.2817 10.2538 12.4534L10.7735 4.0325H12.0104V2.41417H12ZM4.72932 1.61871H7.27068V2.39222H4.72932V1.61871ZM8.71546 12.382L3.36249 12.3491L2.84799 4.03799H9.22997L8.71546 12.3875V12.382ZM5.6388 10.045H4.10567V5.23392H5.6388V10.045ZM7.97748 10.045H6.44435V5.23392H7.97748V10.045Z" fill="#9E9D9D"/>
</g>
<defs>
<clipPath id="clip0_615_5437">
<rect width="12" height="14" fill="white"/>
</clipPath>
</defs>
</svg>
