<svg width="12" height="28" viewBox="0 0 12 28" fill="none" xmlns="http://www.w3.org/2000/svg">
<path d="M0.000269054 5.96607C-0.0311325 2.69508 2.69033 -0.0316213 5.96132 -0.000219737C9.26372 -0.000219737 11.9276 2.65321 11.9276 5.96083L11.9381 23.5038C11.9067 24.7599 11.4618 25.8328 10.5878 26.7068C9.7138 27.5808 8.67232 27.9942 7.4529 27.9995C6.23347 28.0047 5.20769 27.5703 4.32844 26.6963C3.45444 25.8223 2.98865 24.7651 2.95725 23.509L2.94154 5.96607C2.95724 4.26515 4.26041 2.95676 5.96132 2.94106C7.66224 2.95676 8.97064 4.25992 8.98634 5.96083V24.247H7.49476L7.44766 6.01317C7.47906 5.2229 6.78823 4.52683 5.96132 4.52683C5.17105 4.49543 4.47499 5.18626 4.47499 6.01317L4.43835 23.5038C4.43835 25.2204 5.74675 26.5236 7.46336 26.5236C8.29027 26.5236 9.01774 26.2253 9.59343 25.6444C10.1691 25.0634 10.4674 24.3412 10.4674 23.5143L10.5041 6.02364C10.5041 3.57955 8.43681 1.48089 6.00843 1.53322C3.58004 1.48612 1.51801 3.58479 1.51801 6.02887L1.48137 24.247H0.000269054V5.96607Z" fill="#626262"/>
</svg>
