<svg width="13" height="13" viewBox="0 0 13 13" fill="none" xmlns="http://www.w3.org/2000/svg">
<path d="M13 8.61555V13H8.52823L0.887527 5.29882C0.301532 4.71385 0 3.9301 0 3.11796C0 2.30581 0.307221 1.49367 0.887527 0.914373C1.49628 0.306684 2.23589 0 3.07221 0C3.90853 0 4.6709 0.306684 5.27965 0.914373L13 8.62123V8.61555ZM2.03107 4.15727L2.43501 4.56051L4.54004 2.45915L4.13611 2.05592C3.55011 1.47095 2.61138 1.47095 2.03107 2.05592C1.44508 2.69201 1.44508 3.57798 2.03107 4.15727ZM11.3729 9.28004L5.68928 3.6007L3.58424 5.70205L9.27352 11.3814H11.3786V9.28004H11.3729Z" fill="#9E9D9D"/>
</svg>
