<svg width="28" height="31" viewBox="0 0 28 31" fill="none" xmlns="http://www.w3.org/2000/svg">
<g clip-path="url(#clip0_658_153045)">
<path d="M11.707 1.12895L8.59923 8.54019H18.7216L15.607 1.12895V0H17.5605V0.770344L20.8799 8.53355H27.314V10.4328H21.6449L22.4372 12.1528V13.2818H20.4838V12.5114L19.6027 10.4395H7.7113L6.83021 12.5114V13.2818H4.87677V12.1528L5.66907 10.4328H0V8.53355H6.43405L9.75353 0.770344V0H11.707V1.12895ZM0 12.3321H1.95344V14.1385L3.81125 28.4562H23.5027L25.3606 14.1385V12.3321H27.314V14.3178L25.2718 30.3555H2.04223L0 14.2248V12.3255V12.3321Z" fill="white"/>
</g>
<defs>
<clipPath id="clip0_658_153045">
<rect width="27.314" height="30.3489" fill="white"/>
</clipPath>
</defs>
</svg>
