<svg width="26" height="17" viewBox="0 0 26 17" fill="none" xmlns="http://www.w3.org/2000/svg">
<g clip-path="url(#clip0_473_11687)">
<path d="M25.2754 3.11165C24.9809 2.148 24.114 1.38876 23.0114 1.13324C21.0083 0.666016 12.9959 0.666016 12.9959 0.666016C12.9959 0.666016 4.97508 0.666016 2.9804 1.13324C1.87785 1.38876 1.00254 2.148 0.707968 3.11165C0.177734 4.85645 0.177734 8.49935 0.177734 8.49935C0.177734 8.49935 0.177734 12.1423 0.707968 13.887C1.00254 14.8507 1.87785 15.6099 2.9804 15.8655C4.97508 16.3327 12.9959 16.3327 12.9959 16.3327C12.9959 16.3327 21.0083 16.3327 23.0114 15.8655C24.114 15.6099 24.9809 14.8507 25.2754 13.887C25.8141 12.1423 25.8141 8.49935 25.8141 8.49935C25.8141 8.49935 25.8141 4.85645 25.2754 3.11165ZM10.37 11.8064V5.19227L17.0695 8.49935L10.37 11.8064Z" fill="white"/>
</g>
<defs>
<clipPath id="clip0_473_11687">
<rect width="25.6364" height="15.6667" fill="white" transform="translate(0.177734 0.666016)"/>
</clipPath>
</defs>
</svg>
