<svg width="35" height="35" viewBox="0 0 35 35" fill="none" xmlns="http://www.w3.org/2000/svg">
<g clip-path="url(#clip0_473_13349)">
<path d="M31.3373 28.0026C30.9351 28.0026 30.6286 28.309 30.6286 28.7112C30.6286 29.1135 30.9351 29.4199 31.3373 29.4199C31.7395 29.4199 32.046 29.1135 32.046 28.7112C32.046 28.309 31.7395 28.0026 31.3373 28.0026ZM31.3373 19.6005C30.9351 19.6005 30.6286 19.9006 30.6286 20.3028C30.6286 20.705 30.9351 21.0115 31.3373 21.0115C31.7395 21.0115 32.046 20.705 32.046 20.3028C32.046 19.9006 31.7395 19.6005 31.3373 19.6005ZM31.3373 11.1921C30.9351 11.1921 30.6286 11.4922 30.6286 11.8944C30.6286 12.2966 30.9351 12.6031 31.3373 12.6031C31.7395 12.6031 32.046 12.303 32.046 11.8944C32.046 11.4858 31.7395 11.1921 31.3373 11.1921ZM20.1069 28.0026V29.4199H29.2495V28.0026H20.1069ZM20.1069 19.6005V21.0115H29.2495V19.6005H20.1069ZM20.1069 11.1921V12.6031H29.2495V11.1921H20.1069ZM5.4097 28.0026V29.4199H14.5204V28.0026H5.4097ZM5.4097 19.6005V21.0115H14.5204V19.6005H5.4097ZM5.4097 11.1921V12.6031H14.5204V11.1921H5.4097ZM3.29004 28.0026C2.88781 28.0026 2.61966 28.309 2.61966 28.7112C2.61966 29.1135 2.88781 29.4199 3.29004 29.4199C3.69227 29.4199 4.03065 29.1135 4.03065 28.7112C4.03065 28.309 3.69227 28.0026 3.29004 28.0026ZM3.29004 19.6005C2.88781 19.6005 2.61966 19.9006 2.61966 20.3028C2.61966 20.705 2.88781 21.0115 3.29004 21.0115C3.69227 21.0115 4.03065 20.705 4.03065 20.3028C4.03065 19.9006 3.69227 19.6005 3.29004 19.6005ZM3.29004 11.1921C2.88781 11.1921 2.61966 11.4922 2.61966 11.8944C2.61966 12.2966 2.88781 12.6031 3.29004 12.6031C3.69227 12.6031 4.03065 12.303 4.03065 11.8944C4.03065 11.4858 3.69227 11.1921 3.29004 11.1921ZM31.3373 29.4199C31.7395 29.4199 32.046 29.1135 32.046 28.7112C32.046 28.309 31.7395 28.0026 31.3373 28.0026C30.9351 28.0026 30.6286 28.309 30.6286 28.7112C30.6286 29.1135 30.9351 29.4199 31.3373 29.4199ZM20.1069 29.4199H29.2495V28.0026H20.1069V29.4199ZM5.4097 29.4199H14.5204V28.0026H5.4097V29.4199ZM3.29004 28.0026C2.88781 28.0026 2.61966 28.309 2.61966 28.7112C2.61966 29.1135 2.88781 29.4199 3.29004 29.4199C3.69227 29.4199 4.03065 29.1135 4.03065 28.7112C4.03065 28.309 3.69227 28.0026 3.29004 28.0026ZM31.3373 21.0115C31.7395 21.0115 32.046 20.705 32.046 20.3028C32.046 19.9006 31.7395 19.6005 31.3373 19.6005C30.9351 19.6005 30.6286 19.9006 30.6286 20.3028C30.6286 20.705 30.9351 21.0115 31.3373 21.0115ZM20.1069 21.0115H29.2495V19.6005H20.1069V21.0115ZM5.4097 21.0115H14.5204V19.6005H5.4097V21.0115ZM3.29004 19.6005C2.88781 19.6005 2.61966 19.9006 2.61966 20.3028C2.61966 20.705 2.88781 21.0115 3.29004 21.0115C3.69227 21.0115 4.03065 20.705 4.03065 20.3028C4.03065 19.9006 3.69227 19.6005 3.29004 19.6005ZM31.3373 12.6031C31.7395 12.6031 32.046 12.303 32.046 11.8944C32.046 11.4858 31.7395 11.1921 31.3373 11.1921C30.9351 11.1921 30.6286 11.4922 30.6286 11.8944C30.6286 12.2966 30.9351 12.6031 31.3373 12.6031ZM20.1069 12.6031H29.2495V11.1921H20.1069V12.6031ZM5.4097 12.6031H14.5204V11.1921H5.4097V12.6031ZM3.29004 11.1921C2.88781 11.1921 2.61966 11.4922 2.61966 11.8944C2.61966 12.2966 2.88781 12.6031 3.29004 12.6031C3.69227 12.6031 4.03065 12.303 4.03065 11.8944C4.03065 11.4858 3.69227 11.1921 3.29004 11.1921ZM0.5 8.40204V35H34.1273V8.40204H0.5ZM32.7163 33.6209H18.0192V28.0026H16.6401V33.6209H1.91098V26.5916H32.7163V33.6209ZM32.7163 25.2125H18.0192V19.6005H16.6401V25.2125H1.91098V18.1831H32.7163V25.2125ZM32.7163 16.8041H18.0192V11.1921H16.6401V16.8041H1.91098V9.77472H32.7163V16.8041ZM31.3373 12.6031C31.7395 12.6031 32.046 12.303 32.046 11.8944C32.046 11.4858 31.7395 11.1921 31.3373 11.1921C30.9351 11.1921 30.6286 11.4922 30.6286 11.8944C30.6286 12.2966 30.9351 12.6031 31.3373 12.6031ZM31.3373 21.0115C31.7395 21.0115 32.046 20.705 32.046 20.3028C32.046 19.9006 31.7395 19.6005 31.3373 19.6005C30.9351 19.6005 30.6286 19.9006 30.6286 20.3028C30.6286 20.705 30.9351 21.0115 31.3373 21.0115ZM31.3373 29.4199C31.7395 29.4199 32.046 29.1135 32.046 28.7112C32.046 28.309 31.7395 28.0026 31.3373 28.0026C30.9351 28.0026 30.6286 28.309 30.6286 28.7112C30.6286 29.1135 30.9351 29.4199 31.3373 29.4199ZM29.2495 28.0026H20.1069V29.4199H29.2495V28.0026ZM29.2495 19.6005H20.1069V21.0115H29.2495V19.6005ZM29.2495 11.1921H20.1069V12.6031H29.2495V11.1921ZM14.5204 28.0026H5.4097V29.4199H14.5204V28.0026ZM14.5204 19.6005H5.4097V21.0115H14.5204V19.6005ZM14.5204 11.1921H5.4097V12.6031H14.5204V11.1921ZM3.29004 12.6031C3.69227 12.6031 4.03065 12.303 4.03065 11.8944C4.03065 11.4858 3.69227 11.1921 3.29004 11.1921C2.88781 11.1921 2.61966 11.4922 2.61966 11.8944C2.61966 12.2966 2.88781 12.6031 3.29004 12.6031ZM3.29004 21.0115C3.69227 21.0115 4.03065 20.705 4.03065 20.3028C4.03065 19.9006 3.69227 19.6005 3.29004 19.6005C2.88781 19.6005 2.61966 19.9006 2.61966 20.3028C2.61966 20.705 2.88781 21.0115 3.29004 21.0115ZM3.29004 29.4199C3.69227 29.4199 4.03065 29.1135 4.03065 28.7112C4.03065 28.309 3.69227 28.0026 3.29004 28.0026C2.88781 28.0026 2.61966 28.309 2.61966 28.7112C2.61966 29.1135 2.88781 29.4199 3.29004 29.4199ZM4.01149 0V6.99106H6.80153V8.40204H8.21251V6.99106H26.4084V8.40204H27.8194V6.99106H30.6158V0H4.01149ZM29.2368 5.58008H5.39055V1.37906H29.2368V5.58008Z" fill="black"/>
</g>
<defs>
<clipPath id="clip0_473_13349">
<rect width="33.6273" height="35" fill="white" transform="translate(0.5)"/>
</clipPath>
</defs>
</svg>
