<svg width="21" height="19" viewBox="0 0 21 19" fill="none" xmlns="http://www.w3.org/2000/svg">
<path d="M2.62328 10.8538V9.49525H5.24655V10.8538H2.62328ZM6.56049 10.8538H9.18377V9.49525H6.56049V10.8538ZM20.9954 1.3585V8.1415H19.6815V6.783H1.31394V13.566H9.18836V14.9245H1.31394C0.597243 14.9245 0 14.3117 0 13.566V1.3585C0 0.61275 0.592649 0 1.31394 0H19.6861C20.4028 0 21 0.61275 21 1.3585H20.9954ZM19.6815 4.07075H1.31394V5.42925H19.6861V4.07075H19.6815ZM19.6815 1.3585H1.31394V2.717H19.6861V1.3585H19.6815ZM20.9954 13.5707C20.9954 16.5585 18.6386 19 15.7443 19C12.8499 19 10.4931 16.5632 10.4931 13.5707C10.4931 10.5782 12.8729 8.1415 15.7443 8.1415C18.6156 8.1415 20.9954 10.5782 20.9954 13.5707ZM19.6815 13.5707C19.6815 12.445 19.291 11.495 18.5145 10.7112C17.7565 9.90375 16.8331 9.50475 15.7443 9.50475C14.6554 9.50475 13.6953 9.9085 12.9372 10.7112C12.1792 11.495 11.807 12.4497 11.807 13.5707C11.807 14.6917 12.1976 15.6465 12.9556 16.454C13.7366 17.2377 14.6554 17.6415 15.7443 17.6415C16.8331 17.6415 17.7519 17.2377 18.5145 16.454C19.2772 15.6702 19.6815 14.6965 19.6815 13.5707ZM16.4012 10.8585H15.0873V14.25H18.3675V12.8915H16.4012V10.8538V10.8585Z" fill="#626262"/>
</svg>
