<svg width="28" height="28" viewBox="0 0 28 28" fill="none" xmlns="http://www.w3.org/2000/svg">
<path d="M1.17509 7.00266H0V4.25902L13.4417 0H14.7869L28.0053 4.25902V7.00266H2.32359V25.6551H1.17509V7.00266ZM0 26.8302H3.49867V8.15116H26.2666V9.32624H4.67907V10.5013H16.3289V11.6498H4.67907V12.8249H16.3289V14H4.67907V26.8249H10.5066V18.6472H14.5955V19.8223H11.6817V26.8249H18.6844V19.8223H15.7706V18.6472H17.5093V10.496H21.5982V11.6445H18.6844V18.6472H25.687V11.6445H22.7733V10.496H26.8356V18.6472H28.0106V28H0V26.8249V26.8302ZM26.8302 5.82757V5.07254L14.4785 1.1485H13.5002L1.17509 5.06722V5.82226H26.8302V5.82757ZM14.5902 19.8329H15.7653V22.1565H14.5902V19.8329ZM26.8302 26.8356V19.8329H23.943V22.1565H22.7679V19.8329H19.8276V26.8356H26.8302ZM21.5929 11.6551H22.7679V14.0053H21.5929V11.6551Z" fill="#6A31F7"/>
</svg>
