<svg width="22" height="24" viewBox="0 0 22 24" fill="none" xmlns="http://www.w3.org/2000/svg">
<g clip-path="url(#clip0_658_126377)">
<path d="M10.719 12.979C7.1426 12.979 4.22949 10.0659 4.22949 6.4895C4.22949 2.91311 7.1426 0 10.719 0C14.2954 0 17.2085 2.91311 17.2085 6.4895C17.2085 10.0659 14.2954 12.979 10.719 12.979ZM10.719 1.43268C7.93323 1.43268 5.66217 3.69843 5.66217 6.4895C5.66217 9.28057 7.92792 11.5463 10.719 11.5463C13.5101 11.5463 15.7758 9.28057 15.7758 6.4895C15.7758 3.69843 13.5101 1.43268 10.719 1.43268Z" fill="white"/>
<path d="M20.1738 24L16.7088 17.3725C16.2419 16.4758 15.4778 15.9398 14.6659 15.9398H6.78092C5.96907 15.9398 5.20497 16.4758 4.73802 17.3725L1.27307 24L0.00488281 23.3367L3.46984 16.7092C4.19148 15.3296 5.42783 14.5125 6.78092 14.5125H14.6659C16.019 14.5125 17.2607 15.3349 17.977 16.7092L21.442 23.3367L20.1738 24Z" fill="white"/>
</g>
<defs>
<clipPath id="clip0_658_126377">
<rect width="21.4424" height="24" fill="white"/>
</clipPath>
</defs>
</svg>
