<svg width="32" height="28" viewBox="0 0 32 28" fill="none" xmlns="http://www.w3.org/2000/svg">
<path d="M0.957031 26.7184H5.40911C5.042 26.2312 4.76833 25.5303 4.76833 24.7961C4.76833 23.0607 6.17004 21.6256 7.97223 21.6256C9.56083 21.6256 10.7156 22.6935 11.056 24.1887H13.9862C13.9528 23.9751 13.8661 23.7281 13.8661 23.4878V23.3343L14.4468 14.2433C14.4468 12.6547 15.4814 11.2863 16.9164 10.7056L20.147 9.75782V8.53633C19.326 7.83548 18.8988 6.73414 18.8988 5.73292V4.27115C18.8054 4.151 18.8054 4.09093 18.8054 3.96411C18.8054 3.81059 18.8054 3.75051 18.8988 3.65707C18.9322 1.82818 20.4874 0.272951 22.3163 0.025984C23.3242 -0.0941621 24.3588 0.206203 25.1197 0.846982C25.8807 1.45439 26.3679 2.34213 26.5214 3.31665H27.6495C28.0433 3.31665 28.2903 3.59032 28.2903 3.95743C28.2903 4.32454 28.0433 4.59821 27.6495 4.59821H26.5214V5.72625C26.5214 6.82759 26.0943 7.82881 25.2399 8.59641V9.81789L28.4438 10.7657C29.9389 11.3464 30.9735 12.7147 30.9735 14.3033L31.4608 23.3944C31.4608 23.915 31.3073 24.3689 31.0336 24.736C30.6999 25.1298 30.2393 25.3167 29.752 25.4102H28.3503V27.3592C28.3503 27.7263 28.1034 28 27.7096 28C27.3424 28 27.1022 27.7263 27.1022 27.3592V25.4102H24.4189C23.658 25.4102 23.0439 25.0764 22.5566 24.5558C22.1628 25.0764 21.4286 25.4102 20.7277 25.4102H18.198V27.3592C18.198 27.4794 18.2314 27.6329 18.1379 27.6663V28H0.957031V26.7184ZM0.957031 19.6699L2.54563 7.58851V4.47806H17.4905V5.72625H3.82719V7.64859H7.30475V19.0892H2.29866L2.23859 19.79V21.6189H3.48677V22.9005H2.23859V24.182H3.48677V25.4302H0.957031V19.6632V19.6699ZM6.04989 17.8076V8.93015H3.64029L2.47888 17.8076H6.04989ZM7.97223 22.9005C6.84419 22.9005 6.04989 23.7215 6.04989 24.7894C6.04989 25.8574 6.84419 26.7118 7.97223 26.7118C9.04019 26.7118 9.86119 25.8908 9.86119 24.7894C9.86119 23.6881 9.04019 22.9005 7.97223 22.9005ZM7.29807 24.182H8.57963V25.4302H7.29807V24.182ZM8.57963 7.64859H9.86119V19.0892H8.57963V7.64859ZM16.9098 26.7118V25.3968H15.6015V25.4302H11.056C11.0226 25.8908 10.7489 26.3447 10.5086 26.7118H16.9164H16.9098ZM20.7211 24.182C21.4219 24.182 21.9425 23.5746 21.9425 22.9338V22.9005H16.8497C16.4826 22.9005 16.2089 22.6535 16.2089 22.2597C16.2089 21.8659 16.4826 21.6189 16.8497 21.6189H17.5505V12.7414H22.0026V13.9896H18.7987V21.6189H26.4213V13.9896H23.2775V12.7414H27.7029V21.6189H28.2836C28.6774 21.6189 28.9244 21.8659 28.9244 22.2597C28.9244 22.6535 28.6774 22.9005 28.2836 22.9005H23.2174C23.2174 23.6013 23.7648 24.122 24.4055 24.122H29.6185C29.8321 24.122 29.9256 24.0619 30.0457 23.9084C30.1659 23.7882 30.2593 23.6347 30.1659 23.4812L29.6185 14.3634C29.6185 13.2955 28.9177 12.3476 27.9699 11.9538L24.3388 10.8258C24.0918 10.7323 23.8782 10.5187 23.8782 10.185V9.36401C23.5111 9.5776 23.0839 9.61097 22.5967 9.61097V8.36279C23.3309 8.36279 23.8782 8.02905 24.3321 7.66194C24.3944 7.63969 24.4345 7.59964 24.4523 7.54179C24.5457 7.42164 24.6325 7.36157 24.7259 7.20805L24.7593 7.14798C24.8528 7.1146 24.9128 6.96776 24.9395 6.84094C24.9395 6.74749 25.033 6.72079 25.033 6.62735C25.033 6.5072 25.093 6.44713 25.093 6.35368C25.1264 6.14009 25.1531 5.95987 25.1531 5.74627V4.61824H20.1203V5.74627C20.1203 6.56727 20.5141 7.3015 21.1282 7.78876C21.3418 7.9089 21.4019 8.0958 21.4019 8.30939V10.2584C21.4019 10.5054 21.1883 10.7791 20.9413 10.8992L17.3102 11.9672C16.3624 12.361 15.695 13.3422 15.695 14.3167L15.1142 23.5012C15.1142 23.8683 15.3612 24.202 15.755 24.202H20.6944L20.7211 24.182ZM25.1131 3.31665C25.0196 2.73595 24.746 2.24869 24.2921 1.85487C23.7714 1.39431 23.0706 1.2141 22.4298 1.30754C21.3018 1.46106 20.4808 2.31543 20.2004 3.32333H25.1131V3.31665ZM22.0026 13.9963H23.2842V16.5594H22.0026V13.9963Z" fill="#6A31F7"/>
</svg>
