<svg width="32" height="32" viewBox="0 0 32 32" fill="none" xmlns="http://www.w3.org/2000/svg">
<g clip-path="url(#clip0_658_153061)">
<path d="M31.9991 9.70136C31.9991 11.924 31.2835 14.0525 29.9969 15.7104L29.9029 15.8335L27.8717 18.2443L23.6504 23.2833C22.118 25.1294 20.6506 26.9104 19.2411 28.5756L16.6822 31.6452L16.5883 31.7394C16.2124 32.1448 15.5907 32.0507 15.1787 31.6452C14.8679 31.2398 14.0222 30.2335 12.6199 28.5756C11.2465 26.9176 9.77913 25.1367 8.21057 23.2833C6.67816 21.4081 5.27585 19.714 3.9892 18.1792L1.98694 15.7032C0.72198 14.0525 -0.000857356 11.924 -0.000857356 9.70136C-0.0948262 4.51041 4.00366 0.0941176 9.1864 0C11.8103 0 14.2824 1.22353 15.9955 3.09864C17.7159 1.22353 20.188 0 22.8119 0C28.0019 0.0941176 32.0931 4.51041 31.9991 9.70136ZM28.4066 14.6172C29.4981 13.2416 29.9969 11.5475 29.9029 9.70136C30.0619 5.63258 26.8381 2.09955 22.6818 2.00543C20.3036 2.00543 18.0918 3.32308 16.8051 5.32127C16.8051 5.41538 16.7111 5.41538 16.5883 5.5095C16.0895 5.91493 15.3667 5.82081 15.092 5.32127C13.8126 3.31584 11.5934 2.00543 9.1864 2.00543C5.09514 2.09955 1.90743 5.63258 2.0014 9.70136C2.0014 11.5475 2.59413 13.2344 3.59164 14.6172L5.15297 16.4923C6.09266 17.5855 7.18414 18.9321 8.46356 20.467L12.4609 25.2235C13.8342 26.8525 15.0197 28.257 15.9883 29.4516C16.9569 28.2643 18.1424 26.8525 19.5157 25.2235L23.4841 20.467L26.8236 16.4923L28.385 14.6172H28.4066Z" fill="white"/>
</g>
<defs>
<clipPath id="clip0_658_153061">
<rect width="32" height="32" fill="white"/>
</clipPath>
</defs>
</svg>
