<svg width="92" height="79" viewBox="0 0 92 79" fill="none" xmlns="http://www.w3.org/2000/svg">
<path d="M14.7975 39.5V32.8717H18.1176V39.5H14.7975ZM37.9027 62.4892V55.9358H34.5826V62.4892H37.9027ZM79.3357 39.9799L68.8948 50.3273L65.0941 46.6082C64.5382 45.9034 63.5167 45.9034 62.7956 46.6082C62.1646 47.1631 62.1646 48.1828 62.7956 48.9026L67.7831 53.8064C68.1737 54.1213 68.4892 54.2863 68.8948 54.2863C69.4507 54.2863 69.7662 54.1363 70.0816 53.8064L81.6342 42.2743C82.2652 41.6445 82.2652 40.6097 81.6342 39.9799C81.0033 39.35 79.9667 39.35 79.3357 39.9799ZM92 46.9381C92 49.6224 91.5193 52.1568 90.4977 54.5262C88.3645 59.34 84.7139 62.9841 79.8916 65.1135C78.5846 65.6834 77.2175 66.0883 75.8054 66.3432V72.3717H72.5604V66.6731C72.4402 66.6731 72.3351 66.6881 72.2149 66.6881C71.1783 66.6881 70.2018 66.5831 69.2404 66.4332V75.6858H79.1254V79H0V52.6217H3.32005V29.6325H14.7975V32.8717H6.56499V52.6217H26.3501V32.8717H18.1176V29.6325H29.6702V52.6217H34.5826V55.9358H26.3501V75.6858H46.1352V55.9358H37.9027V52.6217H49.4553V75.6858H65.9203V65.6084C65.9203 65.6084 66.0255 65.6384 66.0705 65.6534C65.5748 65.4884 65.0941 65.3085 64.6283 65.0985C59.806 62.9691 56.0052 59.325 54.0222 54.5112C52.9856 52.1418 52.4448 49.6074 52.4448 46.9231C52.4448 44.2388 52.9706 41.7944 53.9321 39.5H33.0052V36.1858H55.6597C56.4409 34.9711 57.3423 33.8614 58.3788 32.8717H33.0202V29.6325H62.7505C63.3664 29.2876 63.9824 28.9727 64.6434 28.6877C65.064 28.4928 65.4997 28.3428 65.9353 28.1929V26.3183H4.91248V23.0042H69.2404V27.4131C70.2018 27.2781 71.1933 27.1881 72.2149 27.1881C72.3351 27.1881 72.4402 27.1881 72.5604 27.2031V19.765H0V12.027L37.3468 0H41.1476L79.1254 12.012V19.75H75.8054V27.488C77.2175 27.728 78.5846 28.1179 79.8916 28.6727C84.7139 30.8022 88.3645 34.4463 90.4977 39.2601C91.5343 41.6295 92 44.1638 92 46.9231V46.9381ZM75.8054 16.4508V14.3214L40.9824 3.23918H38.2182L3.32005 14.2914V16.4208H75.8054V16.4508ZM23.1052 55.9208H14.7975V62.4742H11.4775V55.9208H3.32005V75.6708H23.1052V55.9208ZM67.5728 66.0883C67.5728 66.0883 67.5127 66.0733 67.4827 66.0583C67.5127 66.0583 67.5428 66.0733 67.5728 66.0883ZM88.6799 46.9231C88.6799 44.6287 88.2894 42.4992 87.418 40.4448C85.7505 36.4108 82.6708 33.4115 78.6297 31.762C76.6466 30.8922 74.5134 30.4123 72.2149 30.4123C69.9164 30.4123 67.7831 30.8922 65.8001 31.762C61.759 33.4265 58.6793 36.4258 57.1019 40.4448C56.2306 42.4992 55.7498 44.6287 55.7498 46.9231C55.7498 49.2175 56.2306 51.272 57.1019 53.3265C58.6793 57.3605 61.774 60.3597 65.8001 62.0093C67.7831 62.8791 69.9164 63.359 72.2149 63.359C74.5134 63.359 76.6466 62.8791 78.6297 62.0093C82.6708 60.3447 85.7505 57.3455 87.418 53.3265C88.2894 51.272 88.6799 49.1426 88.6799 46.9231Z" fill="#00BB5A"/>
</svg>
