<svg width="13" height="12" viewBox="0 0 13 12" fill="none" xmlns="http://www.w3.org/2000/svg">
<path d="M6.71124 0.252159L8.41152 3.30689C8.47876 3.43177 8.60364 3.51822 8.74773 3.54704L12.1771 4.21947C12.5517 4.29632 12.7054 4.75741 12.4461 5.03598L10.0638 7.5912C9.9677 7.69686 9.91967 7.84096 9.93888 7.98505L10.3616 11.4528C10.4096 11.8371 10.0157 12.1157 9.66991 11.9524L6.49991 10.4826C6.36542 10.425 6.22133 10.425 6.08685 10.4826L2.91684 11.9524C2.57103 12.1157 2.17718 11.8275 2.22521 11.4528L2.64787 7.98505C2.66709 7.84096 2.61906 7.69686 2.523 7.5912L0.131084 5.03598C-0.12828 4.75741 0.0158113 4.29632 0.400054 4.21947L3.82942 3.54704C3.97351 3.51822 4.09839 3.43177 4.16563 3.30689L5.8467 0.252159C6.02921 -0.0840531 6.51912 -0.0840531 6.70164 0.252159H6.71124Z" fill="#6A31F7"/>
</svg>
