<svg width="73" height="73" viewBox="0 0 73 73" fill="none" xmlns="http://www.w3.org/2000/svg">
<g clip-path="url(#clip0_240_931)">
<path d="M2.63338 52.5567C0.887032 48.468 0 44.0883 0 39.4868C0 34.8853 0.873173 30.5056 2.63338 26.4862C6.20923 18.3089 12.4185 12.1828 20.5265 8.67629C24.6152 6.92994 28.9256 6.04291 33.4439 6.04291C40.2352 6.04291 46.8048 8.01101 52.3488 11.8086C53.1526 12.169 53.2912 13.1253 52.7923 13.9292C52.2795 14.7331 51.337 14.8024 50.6717 14.442C47.2345 12.0304 43.52 10.4226 39.57 9.61876C31.6837 8.16347 23.8806 9.54946 17.0892 13.846C13.652 16.0359 10.8107 18.8772 8.39909 22.3144C5.98747 25.7517 4.37972 29.3968 3.57585 33.4162C2.0374 41.2332 3.42339 48.967 7.73381 55.689C9.85438 59.1263 12.6957 61.9675 16.1329 64.2267C19.5702 66.6383 23.2846 68.1629 27.2347 68.9668C35.1209 70.4221 42.9379 69.0361 49.7154 64.7257C53.1526 62.6051 55.9939 59.7638 58.4055 56.3266C60.3736 53.4853 61.8428 50.3391 62.716 47.0543C64.393 40.554 63.8802 33.7627 61.33 27.3455C60.0826 24.2132 58.2669 21.3581 55.8553 18.8079L49.4243 25.1557C51.2538 27.2762 52.5567 29.6047 53.4437 32.1688C55.1208 37.1999 54.899 42.536 52.9309 47.5671C51.836 50.048 50.2975 52.3072 48.3294 54.2892C44.4625 58.1561 38.9185 60.4984 33.2914 60.4984C30.4502 60.4984 27.6643 59.9163 25.0448 58.8213C19.8612 56.5622 15.9943 52.6953 13.7351 47.4285C12.6402 44.8783 12.0581 42.0925 12.0581 39.1819C12.0581 36.2713 12.6402 33.4855 13.7351 30.866C15.9943 25.8348 19.8612 21.8155 25.0448 19.5563C27.6782 18.4614 30.4502 17.9485 33.2914 17.9485C37.0197 17.9485 40.5124 18.7524 43.5062 20.4988C44.31 21.0116 44.5318 21.8155 44.1576 22.6193C43.6448 23.4232 42.7716 23.7143 41.9677 23.2014C39.7779 21.9541 37.5187 21.3026 35.1071 21.0809C30.2145 20.7205 25.6962 22.0234 21.8986 24.9478C19.9998 26.4862 18.4614 28.3019 17.2278 30.4917C15.9943 32.6816 15.2597 35.0239 15.038 37.4217C14.5252 42.1618 15.9943 46.8325 18.9742 50.6301C20.4295 52.529 22.259 54.0674 24.4488 55.3009C26.708 56.5483 28.981 57.269 31.3788 57.4908C36.2713 57.7818 40.7896 56.4652 44.5872 53.5546C46.5553 52.0993 48.0938 50.2698 49.258 48.0106C52.9863 41.2886 52.0993 33.2637 47.1375 27.4287L44.0051 30.6442L40.651 33.9983C43.2013 37.5048 42.8409 42.536 39.6947 45.6822C38.0177 47.5117 35.8278 48.5234 33.2776 48.5234C30.7274 48.5234 28.6761 47.6503 26.8466 45.8208C25.0171 43.9913 24.1439 41.8014 24.1439 39.3898C24.1439 36.8396 25.0171 34.719 26.8466 32.9588C28.6761 31.1293 30.7828 30.2561 33.2776 30.2561C34.2201 30.2561 34.8853 30.7689 34.8853 31.7114C34.8853 32.5846 34.2339 33.2499 33.2776 33.2499C29.9928 33.2499 27.2208 35.8832 27.2208 39.3759C27.2208 42.6607 29.9928 45.4327 33.2776 45.4327C36.5624 45.4327 39.4036 42.6607 39.4036 39.3759C39.4036 38.2117 39.0433 37.1168 38.5305 36.3129L35.606 39.1542V39.3759C35.606 40.4709 34.5111 41.6351 33.2637 41.6351C32.0995 41.6351 31.0046 40.4709 31.0046 39.3759C31.0046 38.1285 32.0995 37.0336 33.2637 37.0336H33.4162L37.5741 32.9449L40.7896 29.7294C38.378 27.8999 35.6753 27.0961 32.6123 27.2485C29.6186 27.401 26.9852 28.5652 24.7953 30.7551C22.3837 33.1667 21.2195 36.008 21.2195 39.4452C21.2195 42.8825 22.3837 45.6544 24.7953 47.9829C27.1376 50.3945 29.9789 51.5588 33.333 51.5588C36.6871 51.5588 39.6115 50.3945 41.94 47.9829C45.3773 44.6981 46.389 39.4452 44.712 35.0655C44.4209 34.2616 44.7813 33.3885 45.5852 33.0974C46.389 32.8063 47.3315 33.1667 47.6364 33.9706C48.371 35.9387 48.662 37.9068 48.5789 39.8887C48.5096 43.9081 46.9018 47.6226 44.0467 50.3252C42.5914 51.7112 40.8312 52.8062 38.8631 53.61C37.3247 54.4139 35.3566 54.705 33.3885 54.705C31.2679 54.705 29.3691 54.2614 27.5534 53.4576C23.8251 51.7805 20.9839 49.0778 19.4454 45.3495C18.6415 43.52 18.198 41.5519 18.198 39.4314C18.198 37.3108 18.6415 35.412 19.4454 33.5132C20.9839 29.7849 23.8251 27.0822 27.5534 25.4052C29.3829 24.6013 31.2818 24.2409 33.3885 24.2409C36.895 24.2409 40.3184 25.4052 43.0211 27.6782L49.3689 21.3304C46.9573 19.2098 44.3378 17.6852 41.4826 16.5903C35.5645 14.6222 29.5077 14.6222 23.742 17.1724C20.9007 18.3366 18.3366 20.0968 16.0775 22.4253C13.7351 24.7676 11.9888 27.3871 10.8246 30.3809C8.48225 36.4376 8.56541 42.7855 10.977 48.6343C12.2244 51.6281 13.9708 54.3307 16.3824 56.6592C18.794 58.9877 21.4967 60.7479 24.4904 61.9121C30.5472 64.3237 36.9089 64.2544 42.7439 61.8428C45.7376 60.6786 48.4403 58.9184 50.8519 56.5067C52.82 54.4693 54.4278 52.1963 55.5227 49.6461C57.7819 44.6843 58.4471 39.2789 57.0611 33.8043C56.479 31.1016 55.3841 28.6207 53.8456 26.209C53.3328 25.4052 53.6239 24.4627 54.2892 24.0885C55.093 23.5757 56.0355 23.8667 56.4097 24.532C58.5303 27.6782 59.847 31.0323 60.3459 34.6081C61.5933 41.6905 60.1242 48.8422 56.1048 54.7604C54.1367 57.8234 51.5033 60.3875 48.2878 62.4249C43.9081 65.2662 38.7245 66.8046 33.3885 66.8046C29.6601 66.8046 26.0843 66.0701 22.7995 64.6148C16.0775 61.7735 11.1156 56.7285 8.27435 50.0896C6.7359 46.8048 6.01519 43.229 6.01519 39.4314C6.01519 35.6338 6.74976 32.1272 8.27435 28.8424C11.1156 22.2035 16.0913 17.0892 22.7995 14.248C26.0843 12.7927 29.6601 12.0581 33.3885 12.0581C40.1798 12.0581 46.6801 14.6083 51.6419 19.0712L57.768 12.9451V7.53978C57.768 7.02696 57.9204 6.7359 58.2115 6.44485L64.5316 0.360357C64.8227 0.0692994 65.183 0 65.5572 0C66.0701 0 66.4997 0.0692994 66.5829 0.360357L68.0382 1.81564C68.3292 2.1067 68.4817 2.39776 68.4817 2.91058V4.51832H69.937C70.4498 4.51832 70.9626 4.67078 71.0319 4.96184L72.5703 6.50028C73.1525 7.0824 73.1525 8.03873 72.5703 8.69015L66.4443 14.7469C66.1532 15.038 65.9315 15.1904 65.4186 15.1904H60.0965L58.2669 17.0199C61.2607 20.3047 63.5198 24.033 64.989 28.0385C67.8303 36.1466 67.6224 44.6843 64.3376 52.6398C62.6605 56.6592 60.2489 60.235 57.0334 63.4505C55.4257 64.989 53.7486 66.2918 51.9191 67.4699C48.1908 69.8815 44.1853 71.4893 40.0135 72.3624C37.8929 72.806 35.7031 73.0139 33.4439 73.0139C28.8424 73.0139 24.532 72.1407 20.4433 70.3112C12.3353 66.8739 6.13993 60.6786 2.63338 52.5705V52.5567ZM64.8227 12.1135L69.3549 7.58136H66.9432C66.0008 7.58136 65.4048 6.92994 65.4048 6.04291V3.70059L60.8033 8.14961V12.0858H64.8227V12.1135Z" fill="#00BB5A"/>
</g>
<defs>
<clipPath id="clip0_240_931">
<rect width="73" height="73" fill="white"/>
</clipPath>
</defs>
</svg>
