<svg width="50" height="46" viewBox="0 0 50 46" fill="none" xmlns="http://www.w3.org/2000/svg">
<path d="M0 35.3929C0 37.1963 1.34776 38.544 3.1511 38.544H18.7453L17.7487 43.5459V43.7453H15.6511V45.8428H34.3964V43.7453H32.2988L31.2453 38.544H46.8964C48.6427 38.544 50 37.1963 50 35.3929V31.2453H0V35.3929ZM19.7988 43.7453L20.8523 38.7434V38.544H29.1477L30.2487 43.7453H19.7988ZM2.09757 33.3428H47.8929V35.3929C47.8929 35.9909 47.5418 36.4465 46.8964 36.4465H3.1511C2.50569 36.4465 2.09757 36.0004 2.09757 35.3929V33.3428ZM49.9905 3.10364V29.2521H47.8929V3.10364C47.8929 2.50569 47.5418 2.10706 46.8964 2.10706H3.1511C2.50569 2.10706 2.09757 2.50569 2.09757 3.10364V29.1477H0V3.10364C0 1.34776 1.34776 0 3.1511 0H46.8964C48.6427 0 50 1.34776 50 3.10364H49.9905ZM12.2627 12.7658V15.9169H14.3603V7.57403H16.4579V15.9263H18.508V10.7251H20.6055V15.9263H22.7031V5.52392H24.7532V18.0239H10.2031V12.7752H12.2532L12.2627 12.7658ZM37.5095 16.1636C38.7623 14.9108 39.3603 13.4681 39.3603 11.7597C39.3603 10.0513 38.7623 8.56112 37.5095 7.35573C36.3136 6.10289 34.8614 5.50494 33.1055 5.50494C31.3497 5.50494 29.907 6.10289 28.6541 7.35573C27.4582 8.55163 26.8508 10.0038 26.8508 11.7597C26.8508 13.5156 27.4487 14.9108 28.6541 16.1636C29.907 17.4165 31.3497 18.0144 33.1055 18.0144C34.8614 18.0144 36.3041 17.4165 37.5095 16.1636ZM34.1591 7.66894C35.6112 8.06758 36.7597 9.27297 37.1583 10.7156H34.1591V7.66894ZM28.9579 11.7692C28.9579 9.76651 30.2582 8.21944 32.109 7.66894V12.7658H37.1583C36.6078 14.5691 35.1082 15.9169 33.1055 15.9169C30.8561 15.9169 28.9579 14.0186 28.9579 11.7692ZM10.2126 21.1181H24.8386V23.2156H10.2126V21.1181ZM10.2126 25.2658H24.8386V27.3633H10.2126V25.2658ZM26.8603 21.1181H39.3603V23.2156H26.8603V21.1181ZM26.8603 25.2658H39.3603V27.3633H26.8603V25.2658Z" fill="#6A31F7"/>
</svg>
