<svg width="39" height="35" viewBox="0 0 39 35" fill="none" xmlns="http://www.w3.org/2000/svg">
<path d="M0 33.3981H5.5651C5.10621 32.789 4.76413 31.9129 4.76413 30.9951C4.76413 28.8258 6.51626 27.032 8.769 27.032C10.7547 27.032 12.1982 28.3669 12.6237 30.2359H16.2865C16.2448 29.9689 16.1363 29.6602 16.1363 29.3598V29.1679L16.8622 17.8041C16.8622 15.8183 18.1554 14.1079 19.9493 13.382L23.9875 12.1973V10.6704C22.9613 9.79435 22.4273 8.41768 22.4273 7.16615V5.33893C22.3105 5.18875 22.3105 5.11366 22.3105 4.95513C22.3105 4.76323 22.3105 4.68814 22.4273 4.57133C22.469 2.28522 24.413 0.341189 26.6991 0.03248C27.959 -0.117703 29.2522 0.257754 30.2034 1.05873C31.1545 1.81798 31.7636 2.92767 31.9555 4.14581H33.3656C33.8578 4.14581 34.1665 4.4879 34.1665 4.94679C34.1665 5.40568 33.8578 5.74776 33.3656 5.74776H31.9555V7.15781C31.9555 8.53449 31.4215 9.78601 30.3536 10.7455V12.2724L34.3584 13.4571C36.2274 14.183 37.5206 15.8934 37.5206 17.8792L38.1297 29.243C38.1297 29.8938 37.9378 30.4611 37.5957 30.92C37.1785 31.4123 36.6028 31.6459 35.9938 31.7627H34.2416V34.199C34.2416 34.6579 33.9329 35 33.4407 35C32.9818 35 32.6814 34.6579 32.6814 34.199V31.7627H29.3273C28.3762 31.7627 27.6086 31.3456 26.9995 30.6948C26.5072 31.3456 25.5894 31.7627 24.7134 31.7627H21.5512V34.199C21.5512 34.3492 21.5929 34.5411 21.4761 34.5828V35H0V33.3981ZM0 24.5873L1.98575 9.48564V5.59758H20.6668V7.15781H3.5877V9.56073H7.93465V23.8615H1.67704L1.60195 24.7375V27.0236H3.16218V28.6256H1.60195V30.2275H3.16218V31.7878H0V24.579V24.5873ZM6.36607 22.2595V11.1627H3.35408L1.90231 22.2595H6.36607ZM8.769 28.6256C7.35895 28.6256 6.36607 29.6518 6.36607 30.9868C6.36607 32.3217 7.35895 33.3897 8.769 33.3897C10.104 33.3897 11.1302 32.3635 11.1302 30.9868C11.1302 29.6101 10.104 28.6256 8.769 28.6256ZM7.9263 30.2275H9.52825V31.7878H7.9263V30.2275ZM9.52825 9.56073H11.1302V23.8615H9.52825V9.56073ZM19.9409 33.3897V31.746H18.3056V31.7878H12.6237C12.582 32.3635 12.2399 32.9308 11.9395 33.3897H19.9493H19.9409ZM24.705 30.2275C25.5811 30.2275 26.2319 29.4683 26.2319 28.6673V28.6256H19.8658C19.4069 28.6256 19.0648 28.3169 19.0648 27.8246C19.0648 27.3323 19.4069 27.0236 19.8658 27.0236H20.7419V15.9268H26.307V17.487H22.3021V27.0236H31.8304V17.487H27.9006V15.9268H33.4323V27.0236H34.1582C34.6505 27.0236 34.9592 27.3323 34.9592 27.8246C34.9592 28.3169 34.6505 28.6256 34.1582 28.6256H27.8255C27.8255 29.5016 28.5097 30.1524 29.3106 30.1524H35.8269C36.0939 30.1524 36.2107 30.0773 36.3609 29.8854C36.5111 29.7353 36.6279 29.5434 36.5111 29.3515L35.8269 17.9543C35.8269 16.6193 34.9508 15.4345 33.7661 14.9423L29.2272 13.5322C28.9185 13.4154 28.6515 13.1484 28.6515 12.7313V11.705C28.1926 11.972 27.6586 12.0137 27.0496 12.0137V10.4535C27.9673 10.4535 28.6515 10.0363 29.2189 9.57742C29.2967 9.54961 29.3468 9.49955 29.369 9.42724C29.4859 9.27706 29.5943 9.20196 29.7111 9.01006L29.7528 8.93497C29.8697 8.89326 29.9447 8.7097 29.9781 8.55117C29.9781 8.43436 30.0949 8.40099 30.0949 8.28418C30.0949 8.134 30.17 8.05891 30.17 7.9421C30.2117 7.67511 30.2451 7.44983 30.2451 7.18284V5.77279H23.9541V7.18284C23.9541 8.20909 24.4464 9.12687 25.214 9.73595C25.481 9.88613 25.5561 10.1197 25.5561 10.3867V12.823C25.5561 13.1317 25.2891 13.4738 24.9804 13.624L20.4415 14.959C19.2567 15.4512 18.4224 16.6777 18.4224 17.8959L17.6965 29.3765C17.6965 29.8354 18.0052 30.2526 18.4975 30.2526H24.6717L24.705 30.2275ZM30.195 4.14581C30.0782 3.41993 29.7362 2.81086 29.1688 2.31859C28.518 1.74289 27.6419 1.51762 26.841 1.63443C25.4309 1.82633 24.4047 2.89429 24.0542 4.15416H30.195V4.14581ZM26.307 17.4954H27.9089V20.6993H26.307V17.4954Z" fill="#6A31F7"/>
</svg>
