<svg width="25" height="25" viewBox="0 0 25 25" fill="none" xmlns="http://www.w3.org/2000/svg">
<g clip-path="url(#clip0_473_11694)">
<path d="M12.8455 2.57462C16.0823 2.57462 16.4651 2.58622 17.7413 2.64423C18.9246 2.70223 19.5627 2.89946 19.992 3.06188C20.5604 3.2823 20.9549 3.54914 21.3841 3.96679C21.8134 4.39604 22.0686 4.79049 22.289 5.35895C22.4515 5.78821 22.6487 6.42628 22.7067 7.60962C22.7647 8.88578 22.7763 9.26862 22.7763 12.5054C22.7763 15.7422 22.7647 16.1251 22.7067 17.4012C22.6487 18.5845 22.4515 19.2226 22.289 19.6519C22.0686 20.2203 21.8018 20.6148 21.3841 21.044C20.9665 21.4617 20.5604 21.7285 19.992 21.949C19.5627 22.1114 18.9246 22.3086 17.7413 22.3666C16.4651 22.4246 16.0823 22.4362 12.8455 22.4362C9.6087 22.4362 9.22586 22.4246 7.9497 22.3666C6.76636 22.3086 6.12828 22.1114 5.69903 21.949C5.13056 21.7285 4.73612 21.4617 4.30686 21.044C3.87761 20.6148 3.62238 20.2203 3.40195 19.6519C3.23954 19.2226 3.04231 18.5845 2.9843 17.4012C2.9263 16.1251 2.9147 15.7422 2.9147 12.5054C2.9147 9.26862 2.9263 8.88578 2.9843 7.60962C3.04231 6.42628 3.23954 5.78821 3.40195 5.35895C3.62238 4.79049 3.88921 4.39604 4.30686 3.96679C4.73612 3.53753 5.13056 3.2823 5.69903 3.06188C6.12828 2.89946 6.76636 2.70223 7.9497 2.64423C9.22586 2.58622 9.6087 2.57462 12.8455 2.57462ZM12.8455 0.393555C9.5623 0.393555 9.14465 0.405156 7.85689 0.463163C6.56914 0.52117 5.68743 0.729995 4.92174 1.03163C4.12124 1.34487 3.44836 1.75092 2.77548 2.4238C2.1026 3.09668 1.68495 3.76956 1.38331 4.57006C1.08168 5.33575 0.884451 6.21746 0.826444 7.50521C0.768437 8.79297 0.756836 9.21062 0.756836 12.4938C0.756836 15.777 0.768437 16.1947 0.826444 17.4824C0.884451 18.7702 1.09328 19.6519 1.38331 20.4176C1.69655 21.2181 2.1026 21.8909 2.77548 22.5638C3.44836 23.2367 4.12124 23.6544 4.92174 23.956C5.68743 24.2576 6.56914 24.4549 7.85689 24.5245C9.14465 24.5825 9.5623 24.5941 12.8455 24.5941C16.1287 24.5941 16.5463 24.5825 17.8341 24.5245C19.1219 24.4665 20.0036 24.2576 20.7692 23.956C21.5697 23.6428 22.2426 23.2367 22.9155 22.5638C23.5884 21.8909 24.006 21.2181 24.3077 20.4176C24.6093 19.6519 24.8065 18.7702 24.8761 17.4824C24.9342 16.1947 24.9458 15.777 24.9458 12.4938C24.9458 9.21062 24.9342 8.79297 24.8761 7.50521C24.8181 6.21746 24.6093 5.33575 24.3077 4.57006C23.9944 3.76956 23.5884 3.09668 22.9155 2.4238C22.2426 1.75092 21.5697 1.33327 20.7692 1.03163C20.0036 0.729995 19.1219 0.532771 17.8341 0.463163C16.5463 0.405156 16.1287 0.393555 12.8455 0.393555Z" fill="white"/>
<path d="M12.8453 6.28711C9.41129 6.28711 6.62695 9.07144 6.62695 12.5055C6.62695 15.9395 9.41129 18.7238 12.8453 18.7238C16.2793 18.7238 19.0637 15.9395 19.0637 12.5055C19.0637 9.07144 16.2793 6.28711 12.8453 6.28711ZM12.8453 16.5427C10.6178 16.5427 8.80802 14.7329 8.80802 12.5055C8.80802 10.278 10.6178 8.46817 12.8453 8.46817C15.0728 8.46817 16.8826 10.278 16.8826 12.5055C16.8826 14.7329 15.0728 16.5427 12.8453 16.5427Z" fill="white"/>
<path d="M20.769 6.03221C20.769 6.8327 20.1193 7.48238 19.3188 7.48238C18.5183 7.48238 17.8687 6.8327 17.8687 6.03221C17.8687 5.23171 18.5183 4.58203 19.3188 4.58203C20.1193 4.58203 20.769 5.23171 20.769 6.03221Z" fill="white"/>
</g>
<defs>
<clipPath id="clip0_473_11694">
<rect width="24.2121" height="24.2121" fill="white" transform="translate(0.745117 0.393555)"/>
</clipPath>
</defs>
</svg>
