<svg width="64" height="70" viewBox="0 0 64 70" fill="none" xmlns="http://www.w3.org/2000/svg">
<g clip-path="url(#clip0_240_922)">
<path d="M2.4484 50.322C0.839858 46.4006 0 42.2653 0 37.8591C0 30.5725 2.4484 23.8563 6.56228 18.4662L3.20285 15.1009C2.57651 14.4735 2.57651 13.6322 3.20285 13.0761L7.40213 8.94082C8.02847 8.456 8.86833 8.456 9.42349 8.94082L12.7829 12.1635C17.0391 9.01212 22.0783 6.84467 27.6726 6.07466V2.852H26.2064C25.2954 2.852 24.7402 2.29588 24.7402 1.38327C24.7402 0.541961 25.2954 -0.0141602 26.2064 -0.0141602H37.8078C38.7189 -0.0141602 39.3452 0.541961 39.3452 1.38327C39.3452 2.29588 38.7189 2.852 37.8078 2.852H36.4128V6.07466C41.9359 6.91597 47.032 9.15471 51.4306 12.3061L54.7189 8.94082C55.274 8.456 56.1851 8.456 56.8114 8.94082L60.7972 13.0761C61.4235 13.6322 61.4235 14.4735 60.7972 15.1009L57.5089 18.4662C61.4947 23.8563 64 30.5725 64 37.8591C64 42.2653 63.1601 46.3293 61.5516 50.1794C58.2633 57.9508 52.5409 63.8257 44.9253 67.2623C41.0818 69.0162 37.0249 69.9288 32.6263 69.9858H32C27.6014 69.9858 23.4021 69.1445 19.5587 67.3906C11.7295 64.0254 5.86477 58.0791 2.43416 50.3077L2.4484 50.322ZM59.0463 48.7106C60.5125 45.1457 61.21 41.367 61.1388 37.303C61.0676 33.3103 60.2278 29.6029 58.6904 26.1806C55.6157 19.1079 50.2349 13.8604 43.1744 10.9942C39.6868 9.52546 35.9715 8.75545 32 8.75545H31.3737C27.3879 8.82674 23.6868 9.66806 20.1993 11.2794C13.21 14.3594 7.90036 19.8208 5.03915 27.0219C3.57295 30.5868 2.80427 34.3656 2.87544 38.4295C2.94662 42.4222 3.78648 46.201 5.39502 49.6945C8.68327 56.7673 14.1352 62.0861 21.1815 64.9522C24.7402 66.421 28.5836 67.1197 32.6406 67.0484C36.6263 66.9771 40.3986 66.1358 43.8149 64.5244C50.8043 61.3731 56.1851 55.9117 59.0463 48.7106ZM7.27402 36.4047C8.11388 36.4047 8.74021 37.1034 8.74021 37.8734C8.74021 38.7147 8.11388 39.3421 7.27402 39.3421C6.43416 39.3421 5.80783 38.7147 5.80783 37.8734C5.80783 37.1034 6.43416 36.4047 7.27402 36.4047ZM8.25623 12.0494L6.23488 14.1455L8.25623 16.1704C8.88256 15.4004 9.58007 14.7017 10.3488 14.1455L8.25623 12.0494ZM10.9751 48.8675C11.7438 49.0814 12.2278 49.8514 12.0285 50.6214C11.7438 51.4627 11.0463 51.8762 10.2776 51.6766C9.43772 51.4627 8.95374 50.6927 9.15302 49.8514C9.43772 49.0814 10.2064 48.6679 10.9751 48.8675ZM10.2776 24.0844C11.0463 23.7992 11.8149 24.2983 12.0285 25.1396C12.242 25.9097 11.7438 26.6797 10.9751 26.8936C10.2064 27.1075 9.43772 26.5371 9.2242 25.9097C8.9395 25.0683 9.43772 24.2983 10.2776 24.0844ZM19.2883 57.9651C20.0569 57.6799 20.8256 58.1077 21.0391 58.949C21.2527 59.719 20.8256 60.5603 19.9858 60.7742C19.3594 60.9881 18.4484 60.489 18.2349 59.719C18.0214 58.8777 18.4484 58.179 19.2883 57.9651ZM20.0569 14.9869C20.8256 15.2008 21.3096 16.0421 21.1103 16.8121C20.8256 17.6534 19.9858 18.0669 19.3594 17.796C18.5196 17.5821 18.0356 16.8834 18.306 16.0421C18.5196 15.272 19.2883 14.7872 20.0569 14.9869ZM24.7402 39.3421C23.9004 39.3421 23.274 38.7147 23.274 37.8734C23.274 37.0321 23.9004 36.4047 24.7402 36.4047H27.9573C28.5125 34.6507 30.121 33.5385 32.0142 33.5385C33.9075 33.5385 35.5018 34.665 36.1423 36.4047H55.1459C54.9324 33.3959 54.2349 30.5297 52.9822 27.8632C50.4626 22.4731 46.2776 18.4804 40.7544 16.2417C38.0356 15.1152 35.1601 14.5591 32.0142 14.5591C31.1032 14.5591 30.6192 14.003 30.6192 13.0903C30.6192 12.1777 31.1032 11.6216 32.0142 11.6216C35.573 11.6216 39.0036 12.3203 42.2206 13.7178C48.5836 16.4413 53.395 21.3466 56.1993 27.7206C57.5231 30.872 58.2206 34.223 58.2206 37.8734C58.2206 38.7147 57.6655 39.3421 56.8256 39.3421H36.1423C35.516 41.096 33.9786 42.2796 32.0142 42.2796C30.0498 42.2796 28.5267 41.096 27.9573 39.3421H24.7402ZM32 5.88928H33.4662V2.88052H30.605V5.88928H32ZM32 36.4047C31.089 36.4047 30.605 37.0321 30.605 37.8734C30.605 38.7147 31.089 39.3421 32 39.3421C32.911 39.3421 33.4662 38.7147 33.4662 37.8734C33.4662 37.0321 32.911 36.4047 32 36.4047ZM32 61.259C32.8399 61.259 33.4662 61.8151 33.4662 62.6564C33.4662 63.4978 32.8399 64.1252 32 64.1252C31.1601 64.1252 30.605 63.4978 30.605 62.6564C30.605 61.8151 31.1601 61.259 32 61.259ZM44.7117 57.9651C45.5516 58.179 45.9644 58.949 45.7651 59.719C45.5516 60.5603 44.7829 61.0451 43.9431 60.7742C43.1744 60.5603 42.7616 59.7903 42.9609 58.949C43.1744 58.179 43.9431 57.7654 44.7117 57.9651ZM53.0249 48.9388C53.8648 48.6536 54.5623 49.1527 54.7758 49.9227C54.9893 50.6927 54.6335 51.4627 53.7936 51.7479C53.0249 51.9618 52.1851 51.4627 51.9715 50.6927C51.758 49.8514 52.2562 49.1527 53.0249 48.9388ZM57.7794 14.1455L55.758 12.0494L53.7367 14.1455C54.5053 14.7017 54.9893 15.4004 55.758 16.1704L57.7794 14.1455Z" fill="#00BB5A"/>
</g>
<defs>
<clipPath id="clip0_240_922">
<rect width="64" height="70" fill="white"/>
</clipPath>
</defs>
</svg>
