<svg width="19" height="19" viewBox="0 0 19 19" fill="none" xmlns="http://www.w3.org/2000/svg">
<path d="M18.2915 9.31492C18.885 8.68345 19.1285 7.80017 18.9345 6.94789C18.7442 6.0956 18.1507 5.40602 17.3442 5.09997L16.1724 4.65446C15.6854 4.47238 15.343 4.03074 15.2745 3.50774L15.1109 2.24481C14.9968 1.37703 14.4679 0.637087 13.6956 0.257431C12.9233 -0.122224 12.0216 -0.0796093 11.2873 0.369778L10.2183 1.02449C9.77313 1.29567 9.22147 1.29567 8.78015 1.02449L7.71107 0.369778C6.97679 -0.0796093 6.07511 -0.122224 5.30279 0.257431C4.53047 0.637087 4.00164 1.3809 3.8875 2.24481L3.72391 3.50774C3.65542 4.03074 3.31302 4.4685 2.82603 4.65446L1.65423 5.09997C0.851475 5.40602 0.254161 6.0956 0.063934 6.94789C-0.126293 7.80017 0.113393 8.68345 0.710707 9.31492L1.57814 10.2331C1.93577 10.6127 2.06132 11.1628 1.89772 11.6626L1.50966 12.8713C1.24334 13.7003 1.40313 14.6068 1.93577 15.2887C2.47221 15.9705 3.3016 16.3308 4.15382 16.2494L5.39791 16.1332C5.91152 16.0829 6.40991 16.3269 6.69526 16.7686L7.38007 17.8339C7.85184 18.5661 8.64318 19 9.50301 19C10.3628 19 11.1542 18.5622 11.6259 17.8339L12.3108 16.7686C12.5961 16.3269 13.0907 16.0829 13.6081 16.1332L14.8522 16.2494C15.7044 16.3308 16.5376 15.9705 17.0702 15.2887C17.6067 14.6068 17.7665 13.7003 17.4964 12.8713L17.1083 11.6626C16.9485 11.1628 17.0702 10.6127 17.4279 10.2331L18.2953 9.31492H18.2915ZM16.6023 9.42727C15.9517 10.1168 15.7272 11.1125 16.0202 12.0229L16.4083 13.2316C16.5566 13.6964 16.4729 14.1807 16.1724 14.5604C15.8718 14.9439 15.4267 15.1337 14.9511 15.0911L13.707 14.9749C12.7673 14.8858 11.8656 15.3274 11.3482 16.1293L10.6634 17.1947C10.4009 17.6015 9.97477 17.8378 9.4954 17.8378C9.01603 17.8378 8.58992 17.6053 8.3274 17.1947L7.64259 16.1293C7.17082 15.3971 6.37187 14.9633 5.52346 14.9633C5.44356 14.9633 5.36747 14.9633 5.28757 14.9749L4.04349 15.0911C3.56412 15.1376 3.12279 14.9439 2.82223 14.5604C2.52167 14.1807 2.43797 13.6926 2.58635 13.2316L2.97441 12.0229C3.26736 11.1125 3.0467 10.1168 2.39232 9.42727L1.52488 8.50912C1.19388 8.15658 1.06453 7.68395 1.17106 7.20745C1.27758 6.73094 1.59717 6.36291 2.0461 6.19245L3.2179 5.74694C4.10056 5.41377 4.7245 4.61572 4.85005 3.66271L5.01365 2.39977C5.07832 1.91552 5.35986 1.51649 5.79358 1.30729C6.2273 1.09422 6.71047 1.11747 7.11756 1.36928L8.18664 2.02399C8.9932 2.51987 9.9938 2.51987 10.8042 2.02399L11.8732 1.36928C12.2841 1.11747 12.7673 1.09422 13.1972 1.30729C13.6271 1.52037 13.9125 1.91939 13.9772 2.39977L14.1407 3.66271C14.2625 4.61184 14.8902 5.40989 15.7729 5.74694L16.9447 6.19245C17.3936 6.36291 17.7132 6.73481 17.8197 7.20745C17.9263 7.68395 17.7969 8.15658 17.4659 8.50912L16.5985 9.42727H16.6023ZM7.32681 8.05198C8.25892 8.05198 8.95516 7.34304 8.95516 6.3939C8.95516 5.44476 8.25892 4.73581 7.32681 4.73581C6.3947 4.73581 5.69846 5.44476 5.69846 6.3939C5.69846 7.34304 6.3947 8.05198 7.32681 8.05198ZM7.32681 5.83991C7.6502 5.83991 7.87086 6.06461 7.87086 6.3939C7.87086 6.72319 7.6502 6.94789 7.32681 6.94789C7.00342 6.94789 6.78276 6.72319 6.78276 6.3939C6.78276 6.06461 7.00342 5.83991 7.32681 5.83991ZM11.6754 10.2679C10.7433 10.2679 10.0471 10.9769 10.0471 11.926C10.0471 12.8752 10.7433 13.5841 11.6754 13.5841C12.6075 13.5841 13.3038 12.8752 13.3038 11.926C13.3038 11.0427 12.6075 10.2679 11.6754 10.2679ZM11.6754 12.48C11.352 12.48 11.1314 12.2553 11.1314 11.926C11.1314 11.5967 11.352 11.372 11.6754 11.372C11.9988 11.372 12.2195 11.5967 12.2195 11.926C12.2195 12.2553 11.9988 12.48 11.6754 12.48ZM13.1516 6.21957L6.61536 12.8752L5.85065 12.0965L12.3869 5.44089L13.1516 6.21957Z" fill="#626262"/>
</svg>
