<svg width="76" height="70" viewBox="0 0 76 70" fill="none" xmlns="http://www.w3.org/2000/svg">
<g clip-path="url(#clip0_240_926)">
<path d="M0 0H76V57.1872H52.2924V53.9876H72.8111V3.19959H3.18891V53.9876H23.7798V57.1872H0V0ZM6.30568 12.7404C6.30568 11.7415 6.98386 11.1334 7.9795 11.1334C9.58117 11.1334 11.0963 9.75801 11.0963 7.93382C11.0963 6.93485 11.7023 6.32678 12.6979 6.32678H33.2888C34.2844 6.32678 34.8039 6.93485 34.8039 7.93382C34.8039 8.93278 34.27 9.54085 33.2888 9.54085H14.1409C13.4627 11.7559 11.7023 13.5078 9.50902 14.1158V25.4085C9.50902 26.3206 8.90298 27.0155 7.99392 27.0155C7.01272 27.0155 6.32011 26.3351 6.32011 25.4085V12.7549L6.30568 12.7404ZM7.9795 6.34126C8.88855 6.34126 9.49459 7.02172 9.49459 7.94829C9.49459 8.87487 8.88855 9.55533 7.9795 9.55533C7.07044 9.55533 6.30568 8.87487 6.30568 7.94829C6.30568 7.02172 7.07044 6.34126 7.9795 6.34126ZM7.9795 28.6081C8.88855 28.6081 9.49459 29.2885 9.49459 30.2151C9.49459 31.1417 8.88855 31.8221 7.9795 31.8221C7.07044 31.8221 6.30568 31.1417 6.30568 30.2151C6.30568 29.2885 7.07044 28.6081 7.9795 28.6081ZM7.9795 46.0683C6.99829 46.0683 6.30568 45.3878 6.30568 44.4612V34.9348C6.30568 34.0228 6.98386 33.3278 7.9795 33.3278C8.88855 33.3278 9.49459 34.0083 9.49459 34.9348V43.0134C11.7023 43.6939 13.4483 45.4602 14.1264 47.6608H22.1781C23.0871 47.6608 23.7798 48.2689 23.7798 49.2678C23.7798 50.1799 23.1016 50.8749 22.1781 50.8749H12.6835C11.7023 50.8749 11.0818 50.1944 11.0818 49.2678C11.0818 47.4436 9.56674 46.0683 7.96507 46.0683H7.9795ZM7.9795 47.6753C8.88855 47.6753 9.49459 48.3557 9.49459 49.2823C9.49459 50.2089 8.88855 50.8894 7.9795 50.8894C7.07044 50.8894 6.30568 50.2089 6.30568 49.2823C6.30568 48.3557 7.07044 47.6753 7.9795 47.6753ZM15.8147 17.4747H31.7015V20.6742H15.8147V17.4747ZM15.8147 23.8014H47.5018V27.001H15.8147V23.8014ZM15.8147 30.2006H47.5018V33.3278H15.8147V30.2006ZM30.2586 59.5615L27.4448 56.7384V53.9152L25.3237 51.787V46.908L27.1418 44.9245V42.1013L30.6338 38.5977H33.4475L35.4965 36.5419H40.3592L42.3361 38.4529H45.1498L48.6417 41.9566H48.9447V44.4757L50.9937 46.5315V51.4829L48.9447 53.5388V56.4343L45.4528 59.938H42.6391L40.5035 61.9214H36.319C35.3378 61.9214 34.6451 61.3133 34.6451 60.4012C34.6451 59.4023 35.3233 58.7942 36.319 58.7942H39.1327L40.6478 57.1872L41.9465 56.8831H44.1542L45.828 55.2761V53.061L46.2897 51.9173L47.8048 50.3971V48.1096L46.2897 46.5026L45.828 45.3588V43.2306L44.1542 41.5512H41.9465L40.8065 41.1748L39.2914 39.5677H37.0837L35.4821 41.1748L34.3421 41.5512H32.1344L30.6193 43.2306V45.3588L30.0854 46.5026L28.4838 48.1096V50.3971L30.0854 51.9173L30.4606 53.061V55.2761L33.2743 58.0993V66.5688L37.8341 63.6732L42.6246 66.424V64.2813C42.6246 63.3692 43.3028 62.7611 44.1397 62.7611C45.1354 62.7611 45.8136 63.3692 45.8136 64.2813V70H42.4659L37.9784 67.4809L34.0247 70H30.2297V59.5471L30.2586 59.5615ZM38.0072 6.32678C38.9163 6.32678 39.6089 7.00724 39.6089 7.93382C39.6089 8.86039 38.9307 9.54085 38.0072 9.54085C37.0837 9.54085 36.4921 8.86039 36.4921 7.93382C36.4921 7.00724 37.0982 6.32678 38.0072 6.32678ZM66.5054 14.1013C64.3699 13.4933 62.6239 11.7415 61.9457 9.52637H42.7978C41.8022 9.52637 41.1961 8.9183 41.1961 7.91934C41.1961 6.92037 41.8022 6.31231 42.7978 6.31231H63.3165C64.2977 6.31231 64.9903 6.92037 64.9903 7.91934C64.9903 9.74354 66.3611 11.1189 68.1071 11.1189C69.1027 11.1189 69.7088 11.727 69.7088 12.726V25.3795C69.7088 26.2916 69.1027 26.9866 68.1071 26.9866C67.198 26.9866 66.5054 26.3061 66.5054 25.3795V14.0869V14.1013ZM53.8075 47.6608H61.9457C62.6239 45.4457 64.3843 43.6939 66.5054 43.0134V34.9348C66.5054 34.0228 67.1836 33.3278 68.1071 33.3278C69.1027 33.3278 69.7088 34.0083 69.7088 34.9348V44.4612C69.7088 45.3733 69.1027 46.0683 68.1071 46.0683C66.3611 46.0683 64.9903 47.4436 64.9903 49.2678C64.9903 50.1799 64.3121 50.8749 63.3165 50.8749H53.8219C52.9129 50.8749 52.3068 50.1944 52.3068 49.2678C52.3068 48.2834 52.9129 47.6608 53.8219 47.6608H53.8075ZM68.0927 6.32678C69.0017 6.32678 69.6943 7.00724 69.6943 7.93382C69.6943 8.86039 69.0161 9.54085 68.0927 9.54085C67.1692 9.54085 66.491 8.86039 66.491 7.93382C66.491 7.00724 67.1692 6.32678 68.0927 6.32678ZM68.0927 28.5936C69.0017 28.5936 69.6943 29.274 69.6943 30.2006C69.6943 31.1272 69.0161 31.8077 68.0927 31.8077C67.1692 31.8077 66.491 31.1272 66.491 30.2006C66.491 29.274 67.1692 28.5936 68.0927 28.5936ZM68.0927 47.6608C69.0017 47.6608 69.6943 48.3413 69.6943 49.2678C69.6943 50.1944 69.0161 50.8749 68.0927 50.8749C67.1692 50.8749 66.491 50.1944 66.491 49.2678C66.491 48.3413 67.1692 47.6608 68.0927 47.6608Z" fill="#00BB5A"/>
</g>
<defs>
<clipPath id="clip0_240_926">
<rect width="76" height="70" fill="white"/>
</clipPath>
</defs>
</svg>
