<svg width="44" height="36" viewBox="0 0 44 36" fill="none" xmlns="http://www.w3.org/2000/svg">
<path d="M43.0925 26.488V29.5401C43.0925 29.975 42.7683 30.2991 42.3334 30.2991H20.55V28.7731H41.5743V27.2471H20.55V25.7606H42.3334C42.7683 25.7606 43.0925 26.0532 43.0925 26.488ZM23.3964 22.7085C23.3964 23.1434 23.7206 23.4676 24.195 23.4676C24.4876 23.4676 24.7011 23.3253 24.8513 22.9932L27.8638 16.9602C27.9745 16.8496 27.935 16.7784 27.935 16.6677C27.935 16.1933 27.682 15.9007 27.2076 15.9007H23.8629L26.3694 10.8878C26.5118 10.4845 26.3299 10.0496 26.0057 9.90731C25.6025 9.76499 25.136 9.90731 24.9857 10.3106L21.9732 16.3435C21.8625 16.4542 21.902 16.5254 21.902 16.6677C21.902 17.1026 22.1946 17.3951 22.6611 17.3951H26.0057L23.4597 22.4081C23.4202 22.5188 23.3885 22.5504 23.3885 22.7006L23.3964 22.7085ZM9.00593 8.31803C8.53152 8.31803 8.2785 8.64221 8.2785 9.085V16.3119H9.76499V9.085C9.76499 8.65012 9.47244 8.31803 8.99802 8.31803H9.00593ZM6.75247 6.83154V3.77949C6.75247 3.34461 7.04503 3.05205 7.4799 3.05205H9.7729V0.75906C9.7729 0.284647 10.0655 0 10.532 0H15.0784C15.5133 0 15.8375 0.292554 15.8375 0.75906V3.05205H18.85V0.75906C18.85 0.284647 19.1425 0 19.617 0H30.1884C30.6629 0 30.987 0.292554 30.987 0.75906V3.05205H33.9996V0.75906C33.9996 0.284647 34.2921 0 34.727 0H39.2655C39.74 0 40.0641 0.292554 40.0641 0.75906V3.05205H42.3176C42.7525 3.05205 43.0767 3.34461 43.0767 3.77949C43.0767 4.2539 42.7525 4.53855 42.3176 4.53855H8.2785V6.06457H40.7995C41.2739 6.06457 41.5585 6.35713 41.5585 6.82363V24.2267C41.5585 24.6615 41.266 24.9857 40.7995 24.9857C40.333 24.9857 40.072 24.6615 40.072 24.2267V7.59851H7.4799C7.04503 7.59851 6.75247 7.27432 6.75247 6.83945V6.83154ZM35.5335 3.05205H38.546V1.52603H35.5335V3.05205ZM20.376 3.05205H29.461V1.52603H20.376V3.05205ZM11.291 3.05205H14.3114V1.52603H11.291V3.05205ZM7.18735 35.4465C7.30595 35.7628 7.62223 36 7.9385 36H10.1761C10.4529 36 10.7692 35.7628 10.8878 35.4465L11.4017 33.9521L12.2636 33.5568L13.6394 34.2289C13.9952 34.387 14.3114 34.3079 14.5803 34.0312L16.1142 32.4973C16.391 32.2205 16.47 31.8252 16.3119 31.5563L15.7189 30.2596L16.1142 29.3978L17.6086 28.8838C17.9249 28.7652 18.2016 28.4489 18.2016 28.1327V25.9345C18.083 25.4997 17.8458 25.2625 17.5295 25.1122L16.0351 24.5983L15.7189 23.7364L16.391 22.3211C16.5491 22.0048 16.4305 21.6886 16.2328 21.4197L14.6593 19.8463C14.3826 19.6486 13.9477 19.5695 13.758 19.6881L12.3426 20.3602L11.4808 19.9649L10.9668 18.4705C10.8482 18.1542 10.532 17.917 10.2631 17.917H8.02548C7.7092 17.917 7.39293 18.1542 7.27432 18.4705L6.79991 19.9649L5.81946 20.3602L4.40413 19.6881C4.08785 19.5695 3.81111 19.6486 3.54228 19.8463L1.96881 21.4197C1.77114 21.6965 1.65254 22.1234 1.81067 22.3211L2.44322 23.7364L2.08741 24.5983L0.553481 25.1122C0.276741 25.2308 0 25.5471 0 25.8634V28.0615C0 28.3778 0.276741 28.694 0.553481 28.8127L2.08741 29.3266L2.44322 30.1884L1.81067 31.5642C1.65254 31.9201 1.77114 32.2363 1.96881 32.5052L3.54228 34.0391C3.81902 34.3158 4.21436 34.3949 4.40413 34.2368L5.81946 33.5647L6.72084 33.96L7.19526 35.4544L7.18735 35.4465ZM8.52361 34.387L8.08873 33.1298C8.0492 32.8531 7.81199 32.774 7.61432 32.6554L6.04085 31.9833C5.76411 31.9438 5.52691 31.9438 5.36877 31.9833L4.15111 32.5763L3.43949 31.8252L3.99297 30.6075C4.03251 30.3308 4.03251 30.0936 3.99297 29.9354L3.36042 28.362C3.24182 28.0852 3.12322 27.9666 2.84647 27.848L1.70789 27.4922V26.4722L2.92554 26.1164C3.20228 25.9978 3.32089 25.8792 3.43949 25.6025L4.07204 24.029C4.11158 23.7523 4.11158 23.515 4.07204 23.3569L3.51856 22.1392L4.23018 21.396L5.44784 21.989C5.72458 22.0286 5.96178 22.0286 6.11992 21.989L7.69339 21.3169C7.97013 21.1983 8.08873 21.1193 8.20734 20.8425L8.60268 19.6249H9.58313L9.97848 20.8425C10.0971 21.1193 10.2552 21.1983 10.4529 21.3169L12.0264 21.989C12.3031 22.0286 12.5403 22.0286 12.6984 21.989L13.9161 21.396L14.6673 22.1392L14.0742 23.3569C14.0347 23.6336 14.0347 23.8709 14.0742 24.029L14.7463 25.6025C14.8649 25.8792 15.0231 25.9978 15.2207 26.1164L16.4779 26.4722V27.4922L15.2207 27.848C15.0231 27.9666 14.8649 28.0852 14.7463 28.362L14.0742 29.9354C14.0347 30.2122 14.0347 30.4494 14.0742 30.6075L14.6673 31.8252L13.9161 32.5763L12.6984 31.9833C12.4217 31.9438 12.1845 31.9438 12.0264 31.9833L10.4529 32.6554C10.2552 32.774 10.0971 32.8531 9.97848 33.1298L9.58313 34.387H8.52361ZM5.81155 27.1522C5.81155 28.9233 7.30595 30.4573 9.07709 30.4573C10.8482 30.4573 12.3426 28.9233 12.3426 27.1522C12.3426 25.3811 10.8482 23.8867 9.07709 23.8867C7.30595 23.8867 5.81155 25.3811 5.81155 27.1522ZM10.7296 27.1522C10.7296 28.0536 10.018 28.8047 9.07709 28.8047C8.13617 28.8047 7.42456 28.0536 7.42456 27.1522C7.42456 26.2508 8.17571 25.5392 9.07709 25.5392C9.97848 25.5392 10.7296 26.2508 10.7296 27.1522Z" fill="white"/>
</svg>
