<svg width="39" height="35" viewBox="0 0 39 35" fill="none" xmlns="http://www.w3.org/2000/svg">
<path d="M0.5 33.3981H6.0651C5.60621 32.789 5.26413 31.9129 5.26413 30.9951C5.26413 28.8258 7.01626 27.032 9.269 27.032C11.2547 27.032 12.6982 28.3669 13.1237 30.2359H16.7865C16.7448 29.9689 16.6363 29.6602 16.6363 29.3598V29.1679L17.3622 17.8041C17.3622 15.8183 18.6554 14.1079 20.4493 13.382L24.4875 12.1973V10.6704C23.4613 9.79435 22.9273 8.41768 22.9273 7.16615V5.33893C22.8105 5.18875 22.8105 5.11366 22.8105 4.95513C22.8105 4.76323 22.8105 4.68814 22.9273 4.57133C22.969 2.28522 24.913 0.341189 27.1991 0.03248C28.459 -0.117703 29.7522 0.257754 30.7034 1.05873C31.6545 1.81798 32.2636 2.92767 32.4555 4.14581H33.8656C34.3578 4.14581 34.6665 4.4879 34.6665 4.94679C34.6665 5.40568 34.3578 5.74776 33.8656 5.74776H32.4555V7.15781C32.4555 8.53449 31.9215 9.78601 30.8536 10.7455V12.2724L34.8584 13.4571C36.7274 14.183 38.0206 15.8934 38.0206 17.8792L38.6297 29.243C38.6297 29.8938 38.4378 30.4611 38.0957 30.92C37.6785 31.4123 37.1028 31.6459 36.4938 31.7627H34.7416V34.199C34.7416 34.6579 34.4329 35 33.9407 35C33.4818 35 33.1814 34.6579 33.1814 34.199V31.7627H29.8273C28.8762 31.7627 28.1086 31.3456 27.4995 30.6948C27.0072 31.3456 26.0894 31.7627 25.2134 31.7627H22.0512V34.199C22.0512 34.3492 22.0929 34.5411 21.9761 34.5828V35H0.5V33.3981ZM0.5 24.5873L2.48575 9.48564V5.59758H21.1668V7.15781H4.0877V9.56073H8.43465V23.8615H2.17704L2.10195 24.7375V27.0236H3.66218V28.6256H2.10195V30.2275H3.66218V31.7878H0.5V24.579V24.5873ZM6.86607 22.2595V11.1627H3.85408L2.40231 22.2595H6.86607ZM9.269 28.6256C7.85895 28.6256 6.86607 29.6518 6.86607 30.9868C6.86607 32.3217 7.85895 33.3897 9.269 33.3897C10.604 33.3897 11.6302 32.3635 11.6302 30.9868C11.6302 29.6101 10.604 28.6256 9.269 28.6256ZM8.4263 30.2275H10.0283V31.7878H8.4263V30.2275ZM10.0283 9.56073H11.6302V23.8615H10.0283V9.56073ZM20.4409 33.3897V31.746H18.8056V31.7878H13.1237C13.082 32.3635 12.7399 32.9308 12.4395 33.3897H20.4493H20.4409ZM25.205 30.2275C26.0811 30.2275 26.7319 29.4683 26.7319 28.6673V28.6256H20.3658C19.9069 28.6256 19.5648 28.3169 19.5648 27.8246C19.5648 27.3323 19.9069 27.0236 20.3658 27.0236H21.2419V15.9268H26.807V17.487H22.8021V27.0236H32.3304V17.487H28.4006V15.9268H33.9323V27.0236H34.6582C35.1505 27.0236 35.4592 27.3323 35.4592 27.8246C35.4592 28.3169 35.1505 28.6256 34.6582 28.6256H28.3255C28.3255 29.5016 29.0097 30.1524 29.8106 30.1524H36.3269C36.5939 30.1524 36.7107 30.0773 36.8609 29.8854C37.0111 29.7353 37.1279 29.5434 37.0111 29.3515L36.3269 17.9543C36.3269 16.6193 35.4508 15.4345 34.2661 14.9423L29.7272 13.5322C29.4185 13.4154 29.1515 13.1484 29.1515 12.7313V11.705C28.6926 11.972 28.1586 12.0137 27.5496 12.0137V10.4535C28.4673 10.4535 29.1515 10.0363 29.7189 9.57742C29.7967 9.54961 29.8468 9.49955 29.869 9.42724C29.9859 9.27706 30.0943 9.20196 30.2111 9.01006L30.2528 8.93497C30.3697 8.89326 30.4447 8.7097 30.4781 8.55117C30.4781 8.43436 30.5949 8.40099 30.5949 8.28418C30.5949 8.134 30.67 8.05891 30.67 7.9421C30.7117 7.67511 30.7451 7.44983 30.7451 7.18284V5.77279H24.4541V7.18284C24.4541 8.20909 24.9464 9.12687 25.714 9.73595C25.981 9.88613 26.0561 10.1197 26.0561 10.3867V12.823C26.0561 13.1317 25.7891 13.4738 25.4804 13.624L20.9415 14.959C19.7567 15.4512 18.9224 16.6777 18.9224 17.8959L18.1965 29.3765C18.1965 29.8354 18.5052 30.2526 18.9975 30.2526H25.1717L25.205 30.2275ZM30.695 4.14581C30.5782 3.41993 30.2362 2.81086 29.6688 2.31859C29.018 1.74289 28.1419 1.51762 27.341 1.63443C25.9309 1.82633 24.9047 2.89429 24.5542 4.15416H30.695V4.14581ZM26.807 17.4954H28.4089V20.6993H26.807V17.4954Z" fill="black"/>
</svg>
