<svg width="34" height="35" viewBox="0 0 34 35" fill="none" xmlns="http://www.w3.org/2000/svg">
<g clip-path="url(#clip0_473_13410)">
<path d="M30.8373 28.0026C30.4351 28.0026 30.1286 28.309 30.1286 28.7112C30.1286 29.1135 30.4351 29.4199 30.8373 29.4199C31.2395 29.4199 31.546 29.1135 31.546 28.7112C31.546 28.309 31.2395 28.0026 30.8373 28.0026ZM30.8373 19.6005C30.4351 19.6005 30.1286 19.9006 30.1286 20.3028C30.1286 20.705 30.4351 21.0115 30.8373 21.0115C31.2395 21.0115 31.546 20.705 31.546 20.3028C31.546 19.9006 31.2395 19.6005 30.8373 19.6005ZM30.8373 11.1921C30.4351 11.1921 30.1286 11.4922 30.1286 11.8944C30.1286 12.2966 30.4351 12.6031 30.8373 12.6031C31.2395 12.6031 31.546 12.303 31.546 11.8944C31.546 11.4858 31.2395 11.1921 30.8373 11.1921ZM19.6069 28.0026V29.4199H28.7495V28.0026H19.6069ZM19.6069 19.6005V21.0115H28.7495V19.6005H19.6069ZM19.6069 11.1921V12.6031H28.7495V11.1921H19.6069ZM4.9097 28.0026V29.4199H14.0204V28.0026H4.9097ZM4.9097 19.6005V21.0115H14.0204V19.6005H4.9097ZM4.9097 11.1921V12.6031H14.0204V11.1921H4.9097ZM2.79004 28.0026C2.38781 28.0026 2.11966 28.309 2.11966 28.7112C2.11966 29.1135 2.38781 29.4199 2.79004 29.4199C3.19227 29.4199 3.53065 29.1135 3.53065 28.7112C3.53065 28.309 3.19227 28.0026 2.79004 28.0026ZM2.79004 19.6005C2.38781 19.6005 2.11966 19.9006 2.11966 20.3028C2.11966 20.705 2.38781 21.0115 2.79004 21.0115C3.19227 21.0115 3.53065 20.705 3.53065 20.3028C3.53065 19.9006 3.19227 19.6005 2.79004 19.6005ZM2.79004 11.1921C2.38781 11.1921 2.11966 11.4922 2.11966 11.8944C2.11966 12.2966 2.38781 12.6031 2.79004 12.6031C3.19227 12.6031 3.53065 12.303 3.53065 11.8944C3.53065 11.4858 3.19227 11.1921 2.79004 11.1921ZM30.8373 29.4199C31.2395 29.4199 31.546 29.1135 31.546 28.7112C31.546 28.309 31.2395 28.0026 30.8373 28.0026C30.4351 28.0026 30.1286 28.309 30.1286 28.7112C30.1286 29.1135 30.4351 29.4199 30.8373 29.4199ZM19.6069 29.4199H28.7495V28.0026H19.6069V29.4199ZM4.9097 29.4199H14.0204V28.0026H4.9097V29.4199ZM2.79004 28.0026C2.38781 28.0026 2.11966 28.309 2.11966 28.7112C2.11966 29.1135 2.38781 29.4199 2.79004 29.4199C3.19227 29.4199 3.53065 29.1135 3.53065 28.7112C3.53065 28.309 3.19227 28.0026 2.79004 28.0026ZM30.8373 21.0115C31.2395 21.0115 31.546 20.705 31.546 20.3028C31.546 19.9006 31.2395 19.6005 30.8373 19.6005C30.4351 19.6005 30.1286 19.9006 30.1286 20.3028C30.1286 20.705 30.4351 21.0115 30.8373 21.0115ZM19.6069 21.0115H28.7495V19.6005H19.6069V21.0115ZM4.9097 21.0115H14.0204V19.6005H4.9097V21.0115ZM2.79004 19.6005C2.38781 19.6005 2.11966 19.9006 2.11966 20.3028C2.11966 20.705 2.38781 21.0115 2.79004 21.0115C3.19227 21.0115 3.53065 20.705 3.53065 20.3028C3.53065 19.9006 3.19227 19.6005 2.79004 19.6005ZM30.8373 12.6031C31.2395 12.6031 31.546 12.303 31.546 11.8944C31.546 11.4858 31.2395 11.1921 30.8373 11.1921C30.4351 11.1921 30.1286 11.4922 30.1286 11.8944C30.1286 12.2966 30.4351 12.6031 30.8373 12.6031ZM19.6069 12.6031H28.7495V11.1921H19.6069V12.6031ZM4.9097 12.6031H14.0204V11.1921H4.9097V12.6031ZM2.79004 11.1921C2.38781 11.1921 2.11966 11.4922 2.11966 11.8944C2.11966 12.2966 2.38781 12.6031 2.79004 12.6031C3.19227 12.6031 3.53065 12.303 3.53065 11.8944C3.53065 11.4858 3.19227 11.1921 2.79004 11.1921ZM0 8.40204V35H33.6273V8.40204H0ZM32.2163 33.6209H17.5192V28.0026H16.1401V33.6209H1.41098V26.5916H32.2163V33.6209ZM32.2163 25.2125H17.5192V19.6005H16.1401V25.2125H1.41098V18.1831H32.2163V25.2125ZM32.2163 16.8041H17.5192V11.1921H16.1401V16.8041H1.41098V9.77472H32.2163V16.8041ZM30.8373 12.6031C31.2395 12.6031 31.546 12.303 31.546 11.8944C31.546 11.4858 31.2395 11.1921 30.8373 11.1921C30.4351 11.1921 30.1286 11.4922 30.1286 11.8944C30.1286 12.2966 30.4351 12.6031 30.8373 12.6031ZM30.8373 21.0115C31.2395 21.0115 31.546 20.705 31.546 20.3028C31.546 19.9006 31.2395 19.6005 30.8373 19.6005C30.4351 19.6005 30.1286 19.9006 30.1286 20.3028C30.1286 20.705 30.4351 21.0115 30.8373 21.0115ZM30.8373 29.4199C31.2395 29.4199 31.546 29.1135 31.546 28.7112C31.546 28.309 31.2395 28.0026 30.8373 28.0026C30.4351 28.0026 30.1286 28.309 30.1286 28.7112C30.1286 29.1135 30.4351 29.4199 30.8373 29.4199ZM28.7495 28.0026H19.6069V29.4199H28.7495V28.0026ZM28.7495 19.6005H19.6069V21.0115H28.7495V19.6005ZM28.7495 11.1921H19.6069V12.6031H28.7495V11.1921ZM14.0204 28.0026H4.9097V29.4199H14.0204V28.0026ZM14.0204 19.6005H4.9097V21.0115H14.0204V19.6005ZM14.0204 11.1921H4.9097V12.6031H14.0204V11.1921ZM2.79004 12.6031C3.19227 12.6031 3.53065 12.303 3.53065 11.8944C3.53065 11.4858 3.19227 11.1921 2.79004 11.1921C2.38781 11.1921 2.11966 11.4922 2.11966 11.8944C2.11966 12.2966 2.38781 12.6031 2.79004 12.6031ZM2.79004 21.0115C3.19227 21.0115 3.53065 20.705 3.53065 20.3028C3.53065 19.9006 3.19227 19.6005 2.79004 19.6005C2.38781 19.6005 2.11966 19.9006 2.11966 20.3028C2.11966 20.705 2.38781 21.0115 2.79004 21.0115ZM2.79004 29.4199C3.19227 29.4199 3.53065 29.1135 3.53065 28.7112C3.53065 28.309 3.19227 28.0026 2.79004 28.0026C2.38781 28.0026 2.11966 28.309 2.11966 28.7112C2.11966 29.1135 2.38781 29.4199 2.79004 29.4199ZM3.51149 0V6.99106H6.30153V8.40204H7.71251V6.99106H25.9084V8.40204H27.3194V6.99106H30.1158V0H3.51149ZM28.7368 5.58008H4.89055V1.37906H28.7368V5.58008Z" fill="#6A31F7"/>
</g>
<defs>
<clipPath id="clip0_473_13410">
<rect width="33.6273" height="35" fill="white"/>
</clipPath>
</defs>
</svg>
