<svg width="68" height="68" viewBox="0 0 68 68" fill="none" xmlns="http://www.w3.org/2000/svg">
<g clip-path="url(#clip0_240_924)">
<path d="M1.21688 14.5041C-0.414347 11.717 -0.345227 8.23654 1.07864 5.44943C1.61777 4.29853 2.43339 3.06444 3.45636 2.45432C5.35024 0.818108 7.58972 0 10.1057 0C12.6216 0 14.8611 0.818108 16.755 2.45432C17.778 3.27243 18.6489 4.29853 19.1327 5.44943C20.5566 8.23654 20.4875 11.717 19.0636 14.5041C18.5936 15.2529 17.9162 16.3483 17.0315 17.6378C16.0085 19.0661 14.792 20.9103 13.5064 23.0873C12.2207 25.2643 11.5434 26.9698 11.5434 28.2594H8.69564C8.69564 26.9698 8.01826 25.2643 6.66352 23.0873C5.37789 20.9103 4.21668 19.0661 3.20753 17.6378C2.3228 16.3483 1.71454 15.2529 1.24453 14.5041H1.21688ZM29.9154 63.7153H17.0177C14.6399 63.7153 12.4696 63.2439 10.5066 62.3564C6.37321 60.6509 3.11076 57.4617 1.41041 53.3018C0.525682 51.2635 0.0556676 49.0865 0.0556676 46.7015C0.0556676 44.3165 0.525682 42.1395 1.41041 40.1011C3.11076 35.9551 6.35939 32.8214 10.5066 30.9772C12.4696 30.0897 14.6399 29.6183 17.0177 29.5489H39.3433C40.2281 28.398 41.1128 27.3026 42.1911 26.2765C43.214 25.3891 44.2232 24.7096 45.3153 24.1688V23.8915C45.3153 20.6884 42.7993 18.1786 39.6198 18.1786H29.0307C28.2151 18.1786 27.6068 17.5685 27.6068 16.8197C27.6068 15.9323 28.2151 15.3915 29.0307 15.3915H39.6198C44.237 15.3915 47.7621 18.7333 48.1077 23.1566C50.0016 22.5465 51.9784 22.5465 53.8032 22.6158C53.5958 20.7716 53.1258 19.1493 52.3102 17.5824C50.679 14.5179 48.1768 12.133 44.8453 10.8434C43.214 10.1639 41.4584 9.81729 39.6198 9.81729H29.0307C28.2151 9.81729 27.6068 9.27651 27.6068 8.4584C27.6068 7.57096 28.2151 7.03018 29.0307 7.03018H39.6198C41.9284 7.03018 44.0988 7.4323 46.0618 8.25041C50.0707 9.88662 53.112 12.9511 55.0197 16.8197C55.9044 18.7887 56.4436 20.9103 56.5818 23.1566C58.9595 23.6974 60.9916 24.8622 62.8302 26.429C64.2541 27.8573 65.5397 29.4241 66.4244 31.1297C68.5257 35.4837 68.5257 40.7945 66.4244 45.2178C65.678 46.2439 64.5306 47.9356 63.0929 50.1126L60.176 54.5359C58.0748 57.8083 56.098 61.1362 54.9506 64.062C54.3423 65.5595 54.0658 66.8491 54.0658 68.0139H51.2181C51.2181 66.863 50.8725 65.5595 50.2643 64.062C49.1722 61.1362 47.2092 57.7945 45.1079 54.5359L42.1911 50.1126C40.629 47.9356 39.4816 46.23 38.9286 45.2178C38.3204 43.8589 37.643 42.5 37.3665 41.0718H17.0038C13.9487 41.0718 11.3775 43.6648 11.3775 46.7153C11.3775 49.7659 13.9626 52.3589 17.0038 52.3589H29.9016V49.9739C29.9016 49.0865 30.4407 48.5457 31.2563 48.5457C31.7263 48.5457 32.0028 48.5457 32.2793 48.823L42.0528 57.1982C42.592 57.6697 42.7302 58.6264 42.1911 59.2365L42.0528 59.3752L32.2793 67.7504C32.0028 67.8197 31.6019 68.0277 31.2563 68.0277C30.4407 68.0277 29.9016 67.4176 29.9016 66.5995V63.7431L29.9154 63.7153ZM16.4094 13.27C17.5568 11.1623 17.6259 8.84666 16.6168 6.66966C16.1467 5.85155 15.6629 5.1721 14.9164 4.56199C13.4925 3.46656 11.7922 2.71778 10.1057 2.71778C8.26709 2.71778 6.58057 3.46656 5.28112 4.56199C2.76516 6.66966 2.15691 10.2749 3.71901 13.27L5.5576 16.0571C7.25795 18.3034 8.82005 20.8964 10.1057 23.4062C11.4604 20.8825 13.0225 18.4421 14.6538 16.0571C15.4694 14.9062 16.2159 13.8108 16.4232 13.27H16.4094ZM38.9424 58.1966L32.7631 52.8165V53.7732C32.7631 54.5914 32.1549 55.2015 31.2701 55.2015H17.0177C14.6399 55.2015 12.6769 54.3834 10.9766 52.7471C9.34536 51.0416 8.52975 49.0726 8.52975 46.6876C8.52975 44.3026 9.34536 42.3336 10.9766 40.6974C12.6769 38.9918 14.6399 38.1737 17.0177 38.1737H36.9656C36.9656 36.2602 37.2421 34.3605 37.9886 32.5302H17.0177C15.0547 32.5302 13.2161 32.9323 11.5157 33.6811C8.05973 35.04 5.40554 37.7023 4.05079 41.1688C3.3043 42.8744 2.9034 44.7047 2.9034 46.6876C2.9034 48.6705 3.3043 50.5008 4.05079 52.2064C5.40554 55.6729 8.05973 58.3352 11.5157 59.7635C13.2161 60.5122 15.0408 60.8589 17.0177 60.8589H31.2701C32.1549 60.8589 32.7631 61.469 32.7631 62.2871V63.5767L38.9424 58.1966ZM10.1057 7.69576C11.2531 7.69576 12.2069 8.65253 12.2069 9.80343C12.2069 11.093 11.2531 11.9111 10.1057 11.9111C8.95829 11.9111 7.93532 11.093 7.93532 9.80343C7.93532 8.65253 8.95829 7.69576 10.1057 7.69576ZM24.7591 7.01631C25.5747 7.01631 26.2521 7.62643 26.2521 8.44454C26.2521 9.19331 25.5747 9.80343 24.7591 9.80343C24.0126 9.80343 23.4043 9.19331 23.4043 8.44454C23.4043 7.62643 24.0126 7.01631 24.7591 7.01631ZM24.7591 15.5302C25.5747 15.5302 26.2521 16.1403 26.2521 16.9584C26.2521 17.7072 25.5747 18.3173 24.7591 18.3173C24.0126 18.3173 23.4043 17.7072 23.4043 16.9584C23.4043 16.1403 24.0126 15.5302 24.7591 15.5302ZM63.715 43.845C65.5535 40.2398 65.5535 35.8858 63.9914 32.544C63.2449 30.9078 62.2911 29.6876 61.0055 28.6615C58.766 26.7618 55.78 25.5277 52.7249 25.5277C49.6698 25.5277 46.5456 26.748 44.3752 28.6615C42.1358 30.5057 40.781 32.8768 40.2419 35.7471C39.7719 38.6036 40.2419 41.3352 41.6658 43.845C42.0114 44.9405 43.2279 46.5628 44.5826 48.5457C47.7759 52.8997 50.3472 57.4617 52.7249 62.301C54.8953 57.4617 57.6739 52.9135 60.729 48.5457C62.0146 46.5767 63.1758 44.9405 63.715 43.845ZM52.5176 33.0848C55.2271 33.0848 57.4665 35.3312 57.4665 38.0489C57.4665 40.7667 55.2271 43.0131 52.5176 43.0131C49.8081 43.0131 47.5686 40.6974 47.5686 38.0489C47.5686 35.4005 49.8081 33.0848 52.5176 33.0848ZM52.5176 35.9413C51.4255 35.9413 50.3472 36.898 50.3472 38.0489C50.3472 39.1998 51.4393 40.1566 52.5176 40.1566C53.5958 40.1566 54.6188 39.1998 54.6188 38.0489C54.6188 36.898 53.5958 35.9413 52.5176 35.9413Z" fill="#00BB5A"/>
</g>
<defs>
<clipPath id="clip0_240_924">
<rect width="68" height="68" fill="white"/>
</clipPath>
</defs>
</svg>
