<svg width="13" height="12" viewBox="0 0 13 12" fill="none" xmlns="http://www.w3.org/2000/svg">
<path d="M6.80988 0.252159L8.51015 3.30689C8.57739 3.43177 8.70227 3.51822 8.84636 3.54704L12.2757 4.21947C12.6504 4.29632 12.8041 4.75741 12.5447 5.03598L10.1624 7.5912C10.0663 7.69687 10.0183 7.84096 10.0375 7.98505L10.4602 11.4528C10.5082 11.8371 10.1144 12.1157 9.76855 11.9524L6.59854 10.4826C6.46406 10.425 6.31997 10.425 6.18548 10.4826L3.01548 11.9524C2.66966 12.1157 2.27581 11.8275 2.32384 11.4528L2.74651 7.98505C2.76572 7.84096 2.71769 7.69687 2.62163 7.5912L0.229717 5.03598C-0.0296469 4.75741 0.114444 4.29632 0.498687 4.21947L3.92805 3.54704C4.07215 3.51822 4.19702 3.43177 4.26427 3.30689L5.94533 0.252159C6.12784 -0.0840531 6.61775 -0.0840531 6.80027 0.252159H6.80988Z" fill="#9E9D9D"/>
</svg>
