<svg width="45" height="46" viewBox="0 0 45 46" fill="none" xmlns="http://www.w3.org/2000/svg">
<path d="M22.1393 5.30554V7.19976H11.9825V5.30554H22.1393ZM29.9733 9.05113H11.9825V10.9454H29.9733V9.05113ZM26.6734 16.6623L13.9538 29.3819L15.2909 30.719L28.0105 17.9994L26.6734 16.6623ZM17.1423 21.7021C15.4795 21.7021 14.2367 20.4593 14.2367 18.7965C14.2367 17.1337 15.4795 15.8909 17.1423 15.8909C18.8051 15.8909 20.0479 17.1337 20.0479 18.7965C20.0479 20.4593 18.8051 21.7021 17.1423 21.7021ZM17.1423 19.7651C17.7166 19.7651 18.1108 19.3708 18.1108 18.7965C18.1108 18.2223 17.7166 17.828 17.1423 17.828C16.568 17.828 16.1737 18.2223 16.1737 18.7965C16.1737 19.3708 16.568 19.7651 17.1423 19.7651ZM24.8906 25.5763C26.5534 25.5763 27.7962 26.9391 27.7962 28.4819C27.7962 30.1447 26.5534 31.3875 24.8906 31.3875C23.2278 31.3875 21.985 30.1447 21.985 28.4819C21.985 26.8191 23.2278 25.5763 24.8906 25.5763ZM24.8906 27.5134C24.3163 27.5134 23.9221 27.9076 23.9221 28.4819C23.9221 29.0562 24.3163 29.4505 24.8906 29.4505C25.4649 29.4505 25.8591 29.0562 25.8591 28.4819C25.8591 27.9076 25.4649 27.5134 24.8906 27.5134ZM44.9642 38.3216C44.8271 37.1902 44.4242 36.0674 43.6528 35.1588C43.4728 34.8417 43.0186 34.576 42.7957 34.3874C42.2557 33.9846 41.4843 33.8475 40.7644 33.8475H16.2937C15.7023 33.8475 15.3423 34.2074 15.3423 34.7474V35.4245C15.3423 35.7417 15.4366 35.8788 15.6166 36.0588C16.5166 36.9588 16.8337 37.953 16.8337 39.0844C16.8337 40.2158 16.3795 41.2529 15.6166 42.0158C13.9453 43.6443 11.2796 43.6443 9.70253 41.8786C8.93113 41.1586 8.48543 40.1215 8.48543 38.9901V4.19986C8.48543 3.42846 8.21116 2.52849 7.71403 1.85137H30.5561C31.8675 1.85137 32.9475 2.93133 32.9475 4.19986V31.7647C32.9475 32.3046 33.2646 32.6646 33.8474 32.6646C34.4303 32.6646 34.7988 32.3046 34.7988 31.7647V4.19986C34.7988 1.85137 32.9046 0 30.5561 0H4.24272C1.89422 0 0 1.85137 0 4.19986C0 6.54835 1.89422 8.44258 4.24272 8.44258C4.83413 8.44258 5.19411 8.03973 5.19411 7.49118C5.19411 6.94263 4.83413 6.53978 4.24272 6.53978C2.98276 6.53978 1.89422 5.50267 1.89422 4.19129C1.89422 2.8799 2.97419 1.8428 4.24272 1.8428C5.51125 1.8428 6.59121 2.92276 6.59121 4.19129V38.9987C6.59121 40.6272 7.26833 42.1615 8.39972 43.2843C9.61682 44.5442 11.1082 45.1356 12.6853 45.1356C14.2624 45.1356 15.7538 44.5442 17.0223 43.4214C18.1537 42.29 18.8308 40.7986 18.8308 39.2216C18.8308 37.953 18.4708 36.8302 17.7937 35.7931H40.7729C41.0901 35.7931 41.4929 35.8788 41.8529 36.0674L42.2557 36.4702C42.7957 37.0102 43.1129 37.7388 43.1557 38.6387C43.4728 40.8501 41.8957 43.0186 39.5901 43.2414H18.5994C18.1023 43.2414 17.6994 43.6014 17.6994 44.1928C17.6994 44.7328 18.1023 45.1442 18.5994 45.1442H39.5901C41.3043 44.9214 42.6586 44.1071 43.6957 42.7957C44.7328 41.4843 45.1442 39.993 44.9557 38.3302L44.9642 38.3216Z" fill="#6A31F7"/>
</svg>
