<svg width="39" height="35" viewBox="0 0 39 35" fill="none" xmlns="http://www.w3.org/2000/svg">
<mask id="path-1-inside-1_1013_14804" fill="white">
<path d="M4.30594 7.2961H36.0652V23.2777C36.0652 23.6952 36.3117 24.0065 36.7738 24.0065C37.236 24.0065 37.5133 23.6952 37.5133 23.2777V6.55965C37.5133 6.10412 37.2283 5.8308 36.7738 5.8308H5.09165V4.36551H38.2605C38.6842 4.36551 39 4.0846 39 3.63666C39 3.21909 38.6842 2.93818 38.2605 2.93818H36.0652V0.72885C36.0652 0.273319 35.7494 0 35.2872 0H30.8657C30.442 0 30.157 0.280911 30.157 0.72885V2.93059H27.2222V0.72885C27.2222 0.273319 26.9064 0 26.4442 0H16.1454C15.6832 0 15.3982 0.280911 15.3982 0.72885V2.93059H12.4634V0.72885C12.4634 0.273319 12.1475 0 11.7239 0H7.29469C6.83251 0 6.5552 0.280911 6.5552 0.72885V2.93059H4.32135C3.89769 2.93059 3.61268 3.2115 3.61268 3.62907V6.55965C3.61268 6.97722 3.89769 7.2885 4.32135 7.2885L4.30594 7.2961ZM31.636 1.46529H34.5708V2.93059H31.636V1.46529ZM16.8694 1.46529H25.7201V2.93059H16.8694V1.46529ZM8.01876 1.46529H10.9613V2.93059H8.01876V1.46529ZM38.9923 25.4338V28.3644C38.9923 28.782 38.6765 29.0933 38.2528 29.0933H17.0312V27.628H37.5133V26.1627H17.0312V24.7354H38.2528C38.6765 24.7354 38.9923 25.0163 38.9923 25.4338ZM19.8736 21.5239L22.3539 16.7104H19.0956C18.6334 16.7104 18.3561 16.4295 18.3561 16.0119C18.3561 15.8753 18.3176 15.7993 18.4254 15.7007L21.3603 9.90781C21.4989 9.52061 21.9611 9.38395 22.3539 9.52061C22.6698 9.65727 22.8469 10.0824 22.7083 10.462L20.2664 15.2755H23.5248C23.987 15.2755 24.2335 15.5564 24.2335 16.0119C24.2335 16.1182 24.272 16.1866 24.1641 16.2928L21.2293 22.0857C21.0907 22.397 20.875 22.5412 20.59 22.5412C20.1278 22.5412 19.812 22.2299 19.812 21.8124C19.812 21.6757 19.8505 21.6377 19.8813 21.5315L19.8736 21.5239ZM6.5398 8.72343V16.0043H5.09165V8.72343C5.09165 8.30586 5.33814 7.98699 5.80032 7.98699C6.26249 7.98699 6.5475 8.29826 6.5475 8.72343H6.5398ZM2.02587 31.6822C0.770294 30.5206 0 28.9262 0 27.2028V20.0054L6.77859 17.4469H8.31918L15.0515 20.0054V27.0813C15.0515 28.8427 14.3198 30.4371 13.0257 31.5987L8.48094 35H6.61683L2.03358 31.6822H2.02587ZM6.69386 25.1605V19.2386L1.66384 21.0759V25.1529H6.69386V25.1605ZM6.69386 26.8384H1.66384V27.0813C1.66384 28.3644 2.23385 29.564 3.20442 30.3612L6.69386 32.8818V26.846V26.8384ZM13.3492 25.1605V21.0835L8.39621 19.2462V25.1681H13.3492V25.1605ZM11.8471 30.4371C12.8177 29.6399 13.3492 28.4783 13.3492 27.1952V26.8384H8.39621V32.8742L11.8471 30.4371Z"/>
</mask>
<path d="M4.30594 7.2961H36.0652V23.2777C36.0652 23.6952 36.3117 24.0065 36.7738 24.0065C37.236 24.0065 37.5133 23.6952 37.5133 23.2777V6.55965C37.5133 6.10412 37.2283 5.8308 36.7738 5.8308H5.09165V4.36551H38.2605C38.6842 4.36551 39 4.0846 39 3.63666C39 3.21909 38.6842 2.93818 38.2605 2.93818H36.0652V0.72885C36.0652 0.273319 35.7494 0 35.2872 0H30.8657C30.442 0 30.157 0.280911 30.157 0.72885V2.93059H27.2222V0.72885C27.2222 0.273319 26.9064 0 26.4442 0H16.1454C15.6832 0 15.3982 0.280911 15.3982 0.72885V2.93059H12.4634V0.72885C12.4634 0.273319 12.1475 0 11.7239 0H7.29469C6.83251 0 6.5552 0.280911 6.5552 0.72885V2.93059H4.32135C3.89769 2.93059 3.61268 3.2115 3.61268 3.62907V6.55965C3.61268 6.97722 3.89769 7.2885 4.32135 7.2885L4.30594 7.2961ZM31.636 1.46529H34.5708V2.93059H31.636V1.46529ZM16.8694 1.46529H25.7201V2.93059H16.8694V1.46529ZM8.01876 1.46529H10.9613V2.93059H8.01876V1.46529ZM38.9923 25.4338V28.3644C38.9923 28.782 38.6765 29.0933 38.2528 29.0933H17.0312V27.628H37.5133V26.1627H17.0312V24.7354H38.2528C38.6765 24.7354 38.9923 25.0163 38.9923 25.4338ZM19.8736 21.5239L22.3539 16.7104H19.0956C18.6334 16.7104 18.3561 16.4295 18.3561 16.0119C18.3561 15.8753 18.3176 15.7993 18.4254 15.7007L21.3603 9.90781C21.4989 9.52061 21.9611 9.38395 22.3539 9.52061C22.6698 9.65727 22.8469 10.0824 22.7083 10.462L20.2664 15.2755H23.5248C23.987 15.2755 24.2335 15.5564 24.2335 16.0119C24.2335 16.1182 24.272 16.1866 24.1641 16.2928L21.2293 22.0857C21.0907 22.397 20.875 22.5412 20.59 22.5412C20.1278 22.5412 19.812 22.2299 19.812 21.8124C19.812 21.6757 19.8505 21.6377 19.8813 21.5315L19.8736 21.5239ZM6.5398 8.72343V16.0043H5.09165V8.72343C5.09165 8.30586 5.33814 7.98699 5.80032 7.98699C6.26249 7.98699 6.5475 8.29826 6.5475 8.72343H6.5398ZM2.02587 31.6822C0.770294 30.5206 0 28.9262 0 27.2028V20.0054L6.77859 17.4469H8.31918L15.0515 20.0054V27.0813C15.0515 28.8427 14.3198 30.4371 13.0257 31.5987L8.48094 35H6.61683L2.03358 31.6822H2.02587ZM6.69386 25.1605V19.2386L1.66384 21.0759V25.1529H6.69386V25.1605ZM6.69386 26.8384H1.66384V27.0813C1.66384 28.3644 2.23385 29.564 3.20442 30.3612L6.69386 32.8818V26.846V26.8384ZM13.3492 25.1605V21.0835L8.39621 19.2462V25.1681H13.3492V25.1605ZM11.8471 30.4371C12.8177 29.6399 13.3492 28.4783 13.3492 27.1952V26.8384H8.39621V32.8742L11.8471 30.4371Z" fill="white" stroke="#6A31F7" stroke-width="2" mask="url(#path-1-inside-1_1013_14804)"/>
</svg>
