<svg width="30" height="28" viewBox="0 0 30 28" fill="none" xmlns="http://www.w3.org/2000/svg">
<path d="M0.519531 27.2684L3.32383 10.597C3.4125 10.2755 3.78936 10.0705 4.05538 10.0982C4.37682 10.1869 4.58188 10.4806 4.55417 10.7965L1.86626 26.7641H28.3741L26.39 14.7094C26.3013 14.388 26.5673 14.0388 26.8888 14.0111C27.2102 13.9224 27.5594 14.1884 27.5871 14.5099L29.7208 27.2684C29.8095 27.6176 29.5157 27.9667 29.2552 28H1.1347C0.785551 28 0.519531 27.7672 0.519531 27.3848V27.2684ZM3.5843 7.90895C2.96913 6.82819 2.76408 5.65875 3.00239 4.43389C3.26286 3.18131 3.85032 2.15598 4.7814 1.34125C5.80114 0.437846 7.03148 0 8.40038 0C9.76927 0 10.9996 0.437846 12.0194 1.34125C12.5736 1.84006 12.9837 2.3943 13.3051 3.00396C14.0921 4.55028 14.0367 6.45131 13.2442 7.96437C13.0391 8.42993 12.6013 9.01742 12.1357 9.74347C11.5538 10.5914 10.8777 11.6112 10.1517 12.8694C9.42012 14.0942 9.04326 15.0863 9.04326 15.8179H7.81846C7.81846 15.0863 7.43605 14.0942 6.71004 12.8694C5.97849 11.6168 5.30789 10.5914 4.72597 9.74347C4.17177 8.95645 3.82261 8.36896 3.58985 7.9034L3.5843 7.90895ZM12.2244 7.35471C13.161 5.692 12.7232 3.55819 11.2878 2.27237C10.5008 1.57403 9.47554 1.21932 8.42809 1.21932C7.38063 1.21932 6.38306 1.56849 5.56837 2.27237C4.13851 3.55819 3.7284 5.71972 4.66501 7.35471C4.87007 7.73159 5.21922 8.34679 5.68475 9.01742C6.73775 10.4473 7.64111 11.966 8.42809 13.5732C9.21506 11.966 10.124 10.4473 11.1714 9.01742C11.637 8.31908 12.0194 7.73159 12.2244 7.35471ZM6.0062 21.92C6.35535 21.92 6.58812 22.1528 6.58812 22.502C6.58812 22.8511 6.35535 23.1172 6.0062 23.1172C5.65704 23.1172 5.39102 22.8567 5.39102 22.502C5.39102 22.1473 5.6515 21.92 6.0062 21.92ZM8.42809 3.68013C9.48108 3.68013 10.2403 4.46714 10.2403 5.49248C10.2403 6.51781 9.48108 7.33254 8.42809 7.33254C7.37509 7.33254 6.58812 6.51781 6.58812 5.49248C6.58812 4.46714 7.37509 3.68013 8.42809 3.68013ZM8.36712 21.9256C8.71628 21.9256 8.9823 22.1584 8.9823 22.5075C8.9823 22.8567 8.72182 23.1227 8.36712 23.1227C8.01243 23.1227 7.75195 22.8622 7.75195 22.5075C7.75195 22.1528 8.01243 21.9256 8.36712 21.9256ZM8.42809 4.87728C8.07894 4.87728 7.81292 5.11006 7.81292 5.49248C7.81292 5.8749 8.07339 6.10768 8.42809 6.10768C8.80495 6.10768 9.04326 5.8749 9.04326 5.49248C9.04326 5.11006 8.81049 4.87728 8.42809 4.87728ZM8.42809 17.0483C8.77724 17.0483 9.04326 17.3088 9.04326 17.6635C9.04326 18.0182 8.78278 18.2787 8.42809 18.2787C8.07339 18.2787 7.81292 18.0182 7.81292 17.6635C7.81292 17.3088 8.07339 17.0483 8.42809 17.0483ZM8.42809 19.4703C8.77724 19.4703 9.04326 19.7308 9.04326 20.0855C9.04326 20.4402 8.78278 20.7007 8.42809 20.7007C8.07339 20.7007 7.81292 20.4402 7.81292 20.0855C7.81292 19.7308 8.07339 19.4703 8.42809 19.4703ZM10.7336 21.92C11.0827 21.92 11.3488 22.1528 11.3488 22.502C11.3488 22.8511 11.0883 23.1172 10.7336 23.1172C10.4122 23.1172 10.1184 22.8567 10.1184 22.502C10.1184 22.1473 10.4122 21.92 10.7336 21.92ZM13.1832 21.92C13.5323 21.92 13.7651 22.1528 13.7651 22.502C13.7651 22.8511 13.5323 23.1172 13.1832 23.1172C12.834 23.1172 12.5403 22.8567 12.5403 22.502C12.5403 22.1473 12.834 21.92 13.1832 21.92ZM15.5497 21.92C15.8988 21.92 16.1316 22.1528 16.1316 22.502C16.1316 22.8511 15.8988 23.1172 15.5497 23.1172C15.2005 23.1172 14.9345 22.8567 14.9345 22.502C14.9345 22.1473 15.195 21.92 15.5497 21.92ZM18.6422 14.5653L17.301 12.5202C16.6304 11.5004 16.1316 10.7965 15.9265 10.2146C15.5164 9.54394 15.2559 8.81235 15.1396 8.02534C14.8791 6.50673 15.1673 4.98812 15.9598 3.61916C16.3366 2.92082 16.8077 2.30562 17.4174 1.7791C18.0879 1.19715 18.8472 0.759303 19.6342 0.437846C21.2691 -0.144101 22.904 -0.144101 24.5389 0.437846C25.3259 0.759303 26.0575 1.19715 26.7281 1.7791C27.3432 2.27791 27.8088 2.88757 28.1856 3.59145C28.9726 4.90499 29.2386 6.45131 29.0059 7.99762C28.8895 8.78464 28.6234 9.51623 28.2466 10.2146C28.0138 10.7965 27.4319 11.5891 26.8167 12.5202C26.3789 13.1354 25.9411 13.806 25.4755 14.5653C24.4558 16.0562 23.6356 17.5416 23.0814 18.9161C22.8209 19.5867 22.6712 20.2019 22.6712 20.6952H21.4464C21.4464 20.1964 21.3024 19.5867 21.0086 18.9161C20.5098 17.5416 19.6065 16.0562 18.6422 14.5653ZM27.2823 9.68804C28.1302 8.05305 28.1579 6.04117 27.3432 4.40618C27.0218 3.79097 26.5562 3.18131 26.002 2.6825C24.9213 1.7791 23.5192 1.22486 22.117 1.22486C20.6262 1.22486 19.3127 1.7791 18.232 2.6825C17.2123 3.53048 16.5971 4.63895 16.3366 5.95249C16.1039 7.26603 16.3089 8.49089 16.9518 9.68804C17.1846 10.1536 17.7388 10.9462 18.354 11.8773C19.7838 13.8892 21.0696 16.023 22.117 18.2732C23.1977 16.023 24.3948 13.8947 25.8801 11.8773C26.4953 10.9406 27.0162 10.0649 27.2823 9.68804ZM17.9106 21.92C18.2597 21.92 18.4925 22.1528 18.4925 22.502C18.4925 22.8511 18.2597 23.1172 17.9106 23.1172C17.5614 23.1172 17.2954 22.8567 17.2954 22.502C17.2954 22.1473 17.5559 21.92 17.9106 21.92ZM20.2771 21.92C20.6262 21.92 20.8922 22.1528 20.8922 22.502C20.8922 22.8511 20.6318 23.1172 20.2771 23.1172C19.9224 23.1172 19.6619 22.8567 19.6619 22.502C19.6619 22.1473 19.9224 21.92 20.2771 21.92ZM22.0561 4.87173C23.2532 4.87173 24.2452 5.80839 24.2452 7.06097C24.2452 8.31354 23.2532 9.2502 22.0561 9.2502C20.798 9.2502 19.8392 8.25812 19.8392 7.06097C19.8392 5.86382 20.8036 4.87173 22.0561 4.87173ZM22.0561 6.04117C21.5019 6.04117 21.064 6.45131 21.064 7.00554C21.064 7.55978 21.5019 7.96991 22.0561 7.96991C22.6103 7.96991 23.0204 7.55978 23.0204 7.00554C23.0204 6.45131 22.6103 6.04117 22.0561 6.04117ZM22.6712 21.92C22.9927 21.92 23.2864 22.1528 23.2864 22.502C23.2864 22.8511 22.9927 23.1172 22.6712 23.1172C22.3221 23.1172 22.0561 22.8567 22.0561 22.502C22.0561 22.1473 22.3166 21.92 22.6712 21.92Z" fill="#9E9D9D"/>
</svg>
