<svg width="21" height="21" viewBox="0 0 21 21" fill="none" xmlns="http://www.w3.org/2000/svg">
<g clip-path="url(#clip0_473_11700)">
<path d="M5.32401 7.46094H1.20654V20.7469H5.32401V7.46094Z" fill="white"/>
<path d="M3.24452 5.72748C4.59262 5.72748 5.67946 4.63076 5.67946 3.27292C5.67946 1.91508 4.59262 0.818359 3.24452 0.818359C1.89641 0.818359 0.80957 1.91508 0.80957 3.27292C0.80957 4.63076 1.89641 5.72748 3.24452 5.72748Z" fill="white"/>
<path d="M11.8975 13.7803C11.8975 11.9106 12.7545 10.8034 14.4056 10.8034C15.9209 10.8034 16.642 11.8688 16.642 13.7803V20.7575H20.7386V12.3389C20.7386 8.77713 18.7216 7.05371 15.9 7.05371C13.0784 7.05371 11.8975 9.24715 11.8975 9.24715V7.46106H7.94727V20.747H11.8975V13.7698V13.7803Z" fill="white"/>
</g>
<defs>
<clipPath id="clip0_473_11700">
<rect width="19.9394" height="19.9394" fill="white" transform="translate(0.80957 0.818359)"/>
</clipPath>
</defs>
</svg>
