<svg width="21" height="20" viewBox="0 0 21 20" fill="none" xmlns="http://www.w3.org/2000/svg">
<path d="M20.1487 6.65695C19.7623 6.26978 19.2987 6.08759 18.7896 5.94639L14.3078 5.29504L12.2987 1.26852C12.0351 0.717383 11.6078 0.334773 11.0215 0.129803C10.4351 -0.0751666 9.86693 -0.0341726 9.31694 0.23001C8.84876 0.412206 8.52603 0.799371 8.28058 1.26852L6.33513 5.29504L1.91243 5.94639C0.671522 6.12858 -0.160292 7.24453 0.0260704 8.48801C0.107888 8.99816 0.348796 9.46275 0.676068 9.79071L3.92151 12.9199L3.14878 17.3336C2.96697 18.5725 3.73514 19.7522 4.95332 19.9344C5.50332 20.0164 5.92604 19.9344 6.39422 19.7522L10.3488 17.657L14.3033 19.7522C14.8533 20.0346 15.4396 20.0756 16.026 19.8752C16.6124 19.693 17.0624 19.3241 17.3669 18.7775C17.6124 18.3083 17.6896 17.8437 17.5487 17.3336L16.8396 12.9837L20.0851 9.85447C20.9987 9.02093 20.976 7.57703 20.1442 6.6615L20.1487 6.65695ZM18.926 9.2259L15.5351 12.4963L16.2805 17.074L16.2942 17.1195C16.3624 17.3609 16.3305 17.575 16.1896 17.8483C16.0215 18.1535 15.776 18.3493 15.4351 18.4586C15.2715 18.5133 15.1305 18.5406 14.9987 18.5406C14.8169 18.5406 14.6396 18.4951 14.4578 18.404L10.3488 16.2268L6.28059 18.3812C6.04423 18.4678 5.85786 18.5087 5.66695 18.5087C5.58514 18.5087 5.49877 18.4996 5.40786 18.4905C4.75332 18.3903 4.32605 17.7435 4.4306 17.0193L5.23059 12.4508L1.85334 9.19402C1.68061 9.01638 1.5397 8.73853 1.49425 8.45157C1.44879 8.12362 1.52606 7.79567 1.72152 7.53149C1.91697 7.2673 2.21242 7.09422 2.54879 7.04411L7.14877 6.36544L9.17603 2.17494C9.32603 1.88799 9.49875 1.70124 9.68966 1.6238L9.74875 1.59647C9.93057 1.50993 10.1078 1.46438 10.2851 1.46438C10.4215 1.46438 10.5533 1.48716 10.6987 1.53726C11.0306 1.65113 11.2578 1.85155 11.4078 2.17039L13.4987 6.36544L18.0942 7.03045C18.4487 7.13521 18.7305 7.24908 18.9442 7.46316C19.3987 7.9642 19.3987 8.78408 18.9169 9.2259H18.926Z" fill="black"/>
</svg>
