<svg width="216" height="112" viewBox="0 0 216 112" fill="none" xmlns="http://www.w3.org/2000/svg">
<g clip-path="url(#clip0_240_348)">
<path d="M144.551 84.6611L141.855 89.2116H75.9341L37.634 4.55051H1.68082L0 0H40.5652L78.8653 84.6611H144.551Z" fill="white"/>
<path d="M31.8489 11.9502L34.1395 16.4956H6.09854L4.41772 11.9502H31.8489Z" fill="white"/>
<path d="M181.533 21.9834L177.249 29.2601L177.208 29.3267L170.664 40.4366L169.962 41.6305H148.363L149.065 40.4366L159.924 21.9834H181.533Z" fill="white"/>
<path d="M150.475 40.4365L138.904 60.0837H117.309L128.865 40.4365H150.475Z" fill="white"/>
<path d="M190.871 40.4365L179.3 60.0837H157.705L169.261 40.4365H190.871Z" fill="white"/>
<path d="M159.821 58.8848L148.25 78.5319L126.651 78.537L138.211 58.8848H159.821Z" fill="white"/>
<path d="M141.184 21.9834L129.608 41.6357H108.014L119.569 21.9834H141.184Z" fill="white"/>
<path d="M119.943 57.4961L108.372 77.1432H86.772L98.3327 57.4961H119.943Z" fill="white"/>
<path d="M150.521 40.4365L138.95 60.0837H117.35L128.911 40.4365H150.521Z" fill="white"/>
<path d="M101.459 21.9834L89.8881 41.6357H68.2886L79.8493 21.9834H101.459Z" fill="white"/>
<path d="M110.8 40.4365L99.2243 60.0837H77.6299L89.1906 40.4365H110.8Z" fill="white"/>
<path d="M92.5534 107.925C96.1045 105.355 97.3232 100.977 95.2753 98.1483C93.2275 95.3193 88.6886 95.1099 85.1374 97.6805C81.5863 100.251 80.3676 104.628 82.4155 107.457C84.4633 110.286 89.0022 110.496 92.5534 107.925Z" fill="white"/>
<path d="M87.2795 111.984C84.5892 111.984 82.0987 110.903 80.5716 108.792C77.7941 104.953 79.2444 99.1422 83.8051 95.8421C88.3659 92.5419 94.3359 92.9775 97.1184 96.8157C99.8959 100.654 98.4457 106.465 93.8849 109.765C91.83 111.251 89.4881 111.979 87.2795 111.979V111.984ZM84.2561 106.127C85.5423 107.905 88.7297 107.885 91.2151 106.086C93.7004 104.287 94.7151 101.264 93.4288 99.4856C92.1426 97.7074 88.9552 97.7279 86.4698 99.5266C83.9845 101.325 82.9698 104.349 84.2561 106.127Z" fill="white"/>
<path d="M187.929 11.2383L185.228 15.7888H58.9415L56.6611 11.2383H187.929Z" fill="white"/>
<path d="M138.258 103.744C138.129 104.195 137.971 104.641 137.781 105.076L135.08 105.322L132.154 105.584L132.554 104.907H132.559L133.768 102.863L135.921 99.2294L137.268 96.9541C138.575 98.8501 138.934 101.315 138.258 103.744Z" fill="white"/>
<path d="M132.602 107.924C136.153 105.354 137.372 100.976 135.324 98.1474C133.276 95.3184 128.737 95.1089 125.186 97.6795C121.635 100.25 120.416 104.627 122.464 107.456C124.512 110.285 129.051 110.495 132.602 107.924Z" fill="white"/>
<path d="M137.269 96.9548C137.238 96.9087 137.202 96.8625 137.171 96.8164C135.788 94.905 133.513 93.7417 130.93 93.6239C128.501 93.5111 125.99 94.3003 123.858 95.8428C121.726 97.3852 120.189 99.5273 119.538 101.864C119.313 102.669 119.205 103.478 119.205 104.267C119.205 105.923 119.687 107.501 120.625 108.792C122.008 110.704 124.283 111.872 126.866 111.99C127.02 111.995 127.168 112 127.322 112C129.608 112 131.939 111.216 133.938 109.771C135.66 108.521 136.987 106.891 137.781 105.077C137.971 104.641 138.13 104.196 138.258 103.745C138.934 101.316 138.576 98.8508 137.269 96.9548ZM132.559 104.903H132.554C132.185 105.338 131.75 105.738 131.273 106.087C129.987 107.014 128.46 107.511 127.076 107.445C126.728 107.429 126.231 107.368 125.723 107.178C125.216 106.983 124.698 106.66 124.309 106.128C123.535 105.051 123.735 103.76 123.92 103.084C124.294 101.751 125.242 100.455 126.523 99.5273C127.732 98.651 129.162 98.159 130.479 98.159C130.561 98.159 130.638 98.159 130.72 98.1642C131.417 98.2 132.708 98.4101 133.487 99.4863C134.261 100.557 134.061 101.854 133.876 102.525C133.846 102.638 133.81 102.751 133.769 102.863C133.518 103.576 133.103 104.273 132.559 104.903Z" fill="white"/>
</g>
<defs>
<clipPath id="clip0_240_348">
<rect width="215.273" height="112" fill="white"/>
</clipPath>
</defs>
</svg>
