<svg width="110" height="51" viewBox="0 0 110 51" fill="none" xmlns="http://www.w3.org/2000/svg">
<path d="M49.3968 37.0547C49.3968 37.3398 49.3421 37.6074 49.2327 37.8574C49.1273 38.1074 48.9808 38.3262 48.7933 38.5137C48.6058 38.7012 48.387 38.8496 48.137 38.959C47.887 39.0645 47.6195 39.1172 47.3343 39.1172H46.7366C46.4515 39.1172 46.182 39.0645 45.928 38.959C45.678 38.8496 45.4593 38.7012 45.2718 38.5137C45.0843 38.3262 44.9359 38.1074 44.8265 37.8574C44.721 37.6074 44.6683 37.3398 44.6683 37.0547V32.543C44.6683 32.2578 44.721 31.9902 44.8265 31.7402C44.9359 31.4902 45.0843 31.2715 45.2718 31.084C45.4593 30.8965 45.678 30.75 45.928 30.6445C46.182 30.5352 46.4515 30.4805 46.7366 30.4805H47.3343C47.6195 30.4805 47.887 30.5352 48.137 30.6445C48.387 30.75 48.6058 30.8965 48.7933 31.084C48.9808 31.2715 49.1273 31.4902 49.2327 31.7402C49.3421 31.9902 49.3968 32.2578 49.3968 32.543V32.8828L48.6409 33V32.543C48.6409 32.3555 48.6058 32.1816 48.5355 32.0215C48.4652 31.8574 48.3695 31.7148 48.2484 31.5938C48.1273 31.4727 47.9847 31.377 47.8206 31.3066C47.6605 31.2363 47.4866 31.2012 47.2991 31.2012H46.7718C46.5843 31.2012 46.4085 31.2363 46.2445 31.3066C46.0843 31.377 45.9417 31.4727 45.8167 31.5938C45.6956 31.7148 45.5999 31.8574 45.5296 32.0215C45.4593 32.1816 45.4241 32.3555 45.4241 32.543V37.0547C45.4241 37.2422 45.4593 37.418 45.5296 37.582C45.5999 37.7422 45.6956 37.8848 45.8167 38.0098C45.9417 38.1309 46.0843 38.2266 46.2445 38.2969C46.4085 38.3672 46.5843 38.4023 46.7718 38.4023H47.2991C47.4866 38.4023 47.6605 38.3672 47.8206 38.2969C47.9847 38.2266 48.1273 38.1309 48.2484 38.0098C48.3695 37.8848 48.4652 37.7422 48.5355 37.582C48.6058 37.418 48.6409 37.2422 48.6409 37.0547V36.5977L49.3968 36.7207V37.0547ZM54.4916 39L54.0932 38.4023C53.9291 38.6172 53.7241 38.791 53.478 38.9238C53.2319 39.0527 52.9623 39.1172 52.6694 39.1172H52.4877C52.2455 39.1172 52.017 39.0723 51.8022 38.9824C51.5873 38.8887 51.3998 38.7617 51.2397 38.6016C51.0795 38.4414 50.9526 38.2539 50.8588 38.0391C50.769 37.8242 50.7241 37.5957 50.7241 37.3535V37.2949C50.7241 37.0527 50.769 36.8242 50.8588 36.6094C50.9526 36.3945 51.0795 36.207 51.2397 36.0469C51.3998 35.8867 51.5873 35.7617 51.8022 35.6719C52.017 35.5781 52.2455 35.5312 52.4877 35.5312H54.0112V34.6055C54.0112 34.4609 53.9838 34.3262 53.9291 34.2012C53.8745 34.0723 53.8002 33.9609 53.7065 33.8672C53.6127 33.7734 53.5014 33.6992 53.3725 33.6445C53.2475 33.5898 53.1127 33.5625 52.9682 33.5625H52.5463C52.4018 33.5625 52.2651 33.5898 52.1362 33.6445C52.0112 33.6992 51.9018 33.7734 51.808 33.8672C51.7143 33.9609 51.6401 34.0723 51.5854 34.2012C51.5307 34.3262 51.5034 34.4609 51.5034 34.6055V34.8223L50.7827 34.7051V34.6465C50.7827 34.4043 50.8276 34.1758 50.9174 33.9609C51.0112 33.7461 51.1381 33.5586 51.2983 33.3984C51.4584 33.2383 51.6459 33.1133 51.8608 33.0234C52.0756 32.9297 52.3041 32.8828 52.5463 32.8828H52.9682C53.2104 32.8828 53.4389 32.9297 53.6538 33.0234C53.8686 33.1133 54.0561 33.2383 54.2163 33.3984C54.3764 33.5586 54.5014 33.7461 54.5913 33.9609C54.685 34.1758 54.7319 34.4043 54.7319 34.6465V39H54.4916ZM54.0112 36.0938H52.4877C52.3432 36.0938 52.2065 36.1211 52.0776 36.1758C51.9526 36.2305 51.8432 36.3066 51.7495 36.4043C51.6557 36.498 51.5815 36.6094 51.5268 36.7383C51.4721 36.8633 51.4448 36.998 51.4448 37.1426V37.3945C51.4448 37.5391 51.4721 37.6758 51.5268 37.8047C51.5815 37.9297 51.6557 38.0391 51.7495 38.1328C51.8432 38.2266 51.9526 38.3008 52.0776 38.3555C52.2065 38.4102 52.3432 38.4375 52.4877 38.4375H52.9682C53.1127 38.4375 53.2475 38.4102 53.3725 38.3555C53.5014 38.3008 53.6127 38.2266 53.7065 38.1328C53.8002 38.0391 53.8745 37.9297 53.9291 37.8047C53.9838 37.6758 54.0112 37.5391 54.0112 37.3945V36.0938ZM60.1783 37.4766C60.1783 37.7188 60.1295 37.9414 60.0318 38.1445C59.9341 38.3438 59.8013 38.5156 59.6334 38.6602C59.4654 38.8047 59.2701 38.918 59.0474 39C58.8287 39.0781 58.5982 39.1172 58.356 39.1172H57.8755C57.6334 39.1172 57.4009 39.0723 57.1783 38.9824C56.9595 38.8887 56.7662 38.7617 56.5982 38.6016C56.4341 38.4414 56.3013 38.2539 56.1998 38.0391C56.1021 37.8242 56.0533 37.5957 56.0533 37.3535V37.1133L56.774 36.9961V37.3945C56.774 37.5391 56.8033 37.6758 56.8619 37.8047C56.9244 37.9297 57.0064 38.0391 57.108 38.1328C57.2095 38.2266 57.3267 38.3008 57.4595 38.3555C57.5923 38.4102 57.731 38.4375 57.8755 38.4375H58.356C58.5005 38.4375 58.6392 38.416 58.772 38.373C58.9048 38.3301 59.022 38.2695 59.1236 38.1914C59.2291 38.1094 59.3111 38.0117 59.3697 37.8984C59.4322 37.7852 59.4634 37.6562 59.4634 37.5117C59.4634 37.2969 59.4166 37.1211 59.3228 36.9844C59.2291 36.8477 59.1041 36.7344 58.9478 36.6445C58.7955 36.5508 58.6197 36.4746 58.4205 36.416C58.2252 36.3535 58.024 36.293 57.817 36.2344C57.6099 36.1719 57.4068 36.1016 57.2076 36.0234C57.0123 35.9453 56.8365 35.8438 56.6802 35.7188C56.5279 35.5898 56.4048 35.4297 56.3111 35.2383C56.2173 35.0469 56.1705 34.8086 56.1705 34.5234C56.1705 34.2812 56.2173 34.0605 56.3111 33.8613C56.4048 33.6582 56.5318 33.4844 56.692 33.3398C56.8521 33.1953 57.0377 33.084 57.2486 33.0059C57.4634 32.9238 57.692 32.8828 57.9341 32.8828H58.356C58.5982 32.8828 58.8267 32.9297 59.0416 33.0234C59.2564 33.1133 59.4439 33.2383 59.6041 33.3984C59.7642 33.5586 59.8892 33.7461 59.9791 33.9609C60.0728 34.1758 60.1197 34.4043 60.1197 34.6465V34.6699L59.399 34.7871V34.6055C59.399 34.4609 59.3716 34.3262 59.317 34.2012C59.2623 34.0723 59.188 33.9609 59.0943 33.8672C59.0005 33.7734 58.8892 33.6992 58.7603 33.6445C58.6353 33.5898 58.5005 33.5625 58.356 33.5625H57.9341C57.7896 33.5625 57.6529 33.584 57.524 33.627C57.399 33.6699 57.2896 33.7324 57.1959 33.8145C57.1021 33.8926 57.0279 33.9883 56.9732 34.1016C56.9185 34.2148 56.8912 34.3438 56.8912 34.4883C56.8912 34.6953 56.938 34.8652 57.0318 34.998C57.1255 35.127 57.2486 35.2363 57.4009 35.3262C57.5572 35.416 57.733 35.4922 57.9283 35.5547C58.1275 35.6133 58.3287 35.6758 58.5318 35.7422C58.7388 35.8047 58.94 35.877 59.1353 35.959C59.3345 36.041 59.5103 36.1465 59.6627 36.2754C59.8189 36.4043 59.9439 36.5664 60.0377 36.7617C60.1314 36.9531 60.1783 37.1914 60.1783 37.4766ZM64.7282 39V34.6055C64.7282 34.4609 64.7009 34.3262 64.6462 34.2012C64.5915 34.0723 64.5173 33.9609 64.4235 33.8672C64.3298 33.7734 64.2184 33.6992 64.0895 33.6445C63.9645 33.5898 63.8298 33.5625 63.6852 33.5625H63.2048C63.0602 33.5625 62.9235 33.5898 62.7946 33.6445C62.6696 33.6992 62.5602 33.7734 62.4665 33.8672C62.3727 33.9609 62.2985 34.0723 62.2438 34.2012C62.1891 34.3262 62.1618 34.4609 62.1618 34.6055V39H61.4411V30.5977H62.1618V33.5039C62.3259 33.3086 62.5231 33.1562 62.7536 33.0469C62.9841 32.9375 63.2341 32.8828 63.5036 32.8828H63.6852C63.9274 32.8828 64.1559 32.9297 64.3708 33.0234C64.5856 33.1133 64.7731 33.2383 64.9333 33.3984C65.0934 33.5586 65.2184 33.7461 65.3083 33.9609C65.402 34.1758 65.4489 34.4043 65.4489 34.6465V39H64.7282Z" fill="black"/>
<g clip-path="url(#clip0_1251_5818)">
<path d="M39 0.619469C39 0.247788 39.279 0 39.6589 0H69.6399C70.0139 0 70.2632 0.247788 70.2632 0.619469V16.1593C70.2632 16.5664 70.0139 16.8142 69.6399 16.8142H39.6589C39.2849 16.8142 39 16.5664 39 16.1593V0.619469ZM39.6589 18.1121H69.6399C70.0139 18.1121 70.2632 18.3599 70.2632 18.767C70.2632 19.1386 70.0139 19.4218 69.6399 19.4218H39.6589C39.2849 19.4218 39 19.1445 39 18.767C39 18.3599 39.279 18.1121 39.6589 18.1121ZM39.6589 20.6903H69.6399C70.0139 20.6903 70.2632 20.9381 70.2632 21.3451C70.2632 21.7522 70.0139 22 69.6399 22H39.6589C39.2849 22 39 21.7522 39 21.3451C39 20.9381 39.279 20.6903 39.6589 20.6903ZM68.9514 15.5339V1.27434H40.3118V15.5398H68.9514V15.5339ZM42.2824 12.2773C41.8788 12.2773 41.5939 12.0295 41.5939 11.6873V5.22124C41.5939 4.84956 41.8729 4.56637 42.2824 4.56637C42.9413 4.56637 43.5645 4.0059 43.5645 3.29204C43.5645 2.89086 43.8138 2.60767 44.2234 2.60767H54.6998C56.3262 2.60767 57.7033 3.16814 58.8607 4.31858C60.0182 5.46903 60.5821 6.83776 60.5821 8.45428C60.5821 10.2891 59.7095 11.9646 58.3621 12.9911H64.553C64.8023 12.0885 65.5562 11.3746 66.4287 11.1268V5.75221C65.5502 5.47493 64.8023 4.75516 64.553 3.88791H59.9232C59.5137 3.88791 59.2644 3.61062 59.2644 3.23304C59.2644 2.83186 59.5137 2.57817 59.9232 2.57817H65.111C65.5146 2.57817 65.7995 2.82596 65.7995 3.23304C65.7995 3.9469 66.3634 4.50737 67.0816 4.50737C67.4556 4.50737 67.7405 4.78466 67.7405 5.16224V11.5929C67.7405 11.9351 67.4615 12.2124 67.0816 12.2124C66.3634 12.2124 65.7995 12.7729 65.7995 13.5162C65.7995 13.8879 65.5206 14.1711 65.111 14.1711H54.6998C53.0735 14.1711 51.6964 13.6106 50.5389 12.4602C49.4112 11.3097 48.8532 9.941 48.8532 8.32448C48.8532 6.48968 49.7317 4.81416 51.0079 3.81711H44.817C44.538 4.68437 43.8138 5.40413 42.9116 5.68142V11.056C43.8198 11.3038 44.538 12.0177 44.817 12.9204H49.4112C49.8148 12.9204 50.0997 13.1681 50.0997 13.5752C50.0997 13.9823 49.8207 14.2301 49.4112 14.2301H44.2234C43.8138 14.2301 43.5645 13.9823 43.5645 13.5752C43.5645 12.8319 42.9413 12.2714 42.2824 12.2714V12.2773ZM46.1881 7.76991C46.562 7.76991 46.8113 8.0177 46.8113 8.38938C46.8113 8.76106 46.562 9.04425 46.1881 9.04425C45.8141 9.04425 45.4996 8.76696 45.4996 8.38938C45.4996 8.0118 45.8141 7.76991 46.1881 7.76991ZM57.8517 5.19174C56.9791 4.32448 55.9107 3.88791 54.6286 3.88791C53.3465 3.88791 52.3137 4.32448 51.4055 5.19174C50.5271 6.0649 50.0938 7.12094 50.0938 8.39528C50.0938 9.66962 50.533 10.7552 51.4055 11.6283C52.3137 12.4956 53.3762 12.9322 54.6286 12.9322C55.881 12.9322 56.9732 12.4956 57.8517 11.6283C58.7598 10.7552 59.1991 9.66962 59.1991 8.39528C59.1991 7.12094 58.7598 6.0649 57.8517 5.19174ZM63.1047 7.76991C63.4787 7.76991 63.7636 8.0177 63.7636 8.38938C63.7636 8.76106 63.4846 9.04425 63.1047 9.04425C62.7249 9.04425 62.4459 8.76696 62.4459 8.38938C62.4459 8.0118 62.7249 7.76991 63.1047 7.76991Z" fill="black"/>
</g>
<defs>
<clipPath id="clip0_1251_5818">
<rect width="31.2632" height="22" fill="white" transform="translate(39)"/>
</clipPath>
</defs>
</svg>
