<svg width="110" height="53" viewBox="0 0 110 53" fill="none" xmlns="http://www.w3.org/2000/svg">
<path d="M30.2259 38.9375C30.2259 39.2227 30.1712 39.4902 30.0618 39.7402C29.9563 39.9902 29.8098 40.209 29.6223 40.3965C29.4348 40.584 29.2141 40.7324 28.9602 40.8418C28.7102 40.9473 28.4427 41 28.1575 41H25.4973V32.5977H28.1575C28.4427 32.5977 28.7102 32.6523 28.9602 32.7617C29.2141 32.8672 29.4348 33.0137 29.6223 33.2012C29.8098 33.3887 29.9563 33.6094 30.0618 33.8633C30.1712 34.1133 30.2259 34.3809 30.2259 34.666V34.748C30.2259 34.9473 30.1985 35.1387 30.1438 35.3223C30.093 35.502 30.0188 35.6699 29.9212 35.8262C29.8235 35.9824 29.7083 36.125 29.5755 36.2539C29.4427 36.3789 29.2942 36.4844 29.1302 36.5703C29.2942 36.6562 29.4427 36.7637 29.5755 36.8926C29.7083 37.0176 29.8235 37.1602 29.9212 37.3203C30.0188 37.4766 30.093 37.6465 30.1438 37.8301C30.1985 38.0098 30.2259 38.1992 30.2259 38.3984V38.9375ZM29.47 38.2754C29.47 38.0879 29.4348 37.9141 29.3645 37.7539C29.2942 37.5898 29.1966 37.4473 29.0716 37.3262C28.9505 37.2051 28.8079 37.1094 28.6438 37.0391C28.4837 36.9688 28.3098 36.9336 28.1223 36.9336H26.2532V40.2793H28.1223C28.3098 40.2793 28.4837 40.2441 28.6438 40.1738C28.8079 40.1035 28.9505 40.0078 29.0716 39.8867C29.1966 39.7656 29.2942 39.625 29.3645 39.4648C29.4348 39.3008 29.47 39.125 29.47 38.9375V38.2754ZM29.47 34.666C29.47 34.4785 29.4348 34.3047 29.3645 34.1445C29.2942 33.9805 29.1966 33.8379 29.0716 33.7168C28.9505 33.5918 28.8079 33.4941 28.6438 33.4238C28.4837 33.3535 28.3098 33.3184 28.1223 33.3184H26.2532V36.2129H28.1223C28.3098 36.2129 28.4837 36.1777 28.6438 36.1074C28.8079 36.0371 28.9505 35.9414 29.0716 35.8203C29.1966 35.6953 29.2942 35.5527 29.3645 35.3926C29.4348 35.2285 29.47 35.0527 29.47 34.8652V34.666ZM35.0805 41L34.682 40.4023C34.518 40.6172 34.3129 40.791 34.0668 40.9238C33.8207 41.0527 33.5512 41.1172 33.2582 41.1172H33.0766C32.8344 41.1172 32.6059 41.0723 32.391 40.9824C32.1762 40.8887 31.9887 40.7617 31.8285 40.6016C31.6684 40.4414 31.5414 40.2539 31.4477 40.0391C31.3578 39.8242 31.3129 39.5957 31.3129 39.3535V39.2949C31.3129 39.0527 31.3578 38.8242 31.4477 38.6094C31.5414 38.3945 31.6684 38.207 31.8285 38.0469C31.9887 37.8867 32.1762 37.7617 32.391 37.6719C32.6059 37.5781 32.8344 37.5312 33.0766 37.5312H34.6V36.6055C34.6 36.4609 34.5727 36.3262 34.518 36.2012C34.4633 36.0723 34.3891 35.9609 34.2953 35.8672C34.2016 35.7734 34.0902 35.6992 33.9613 35.6445C33.8363 35.5898 33.7016 35.5625 33.557 35.5625H33.1352C32.9906 35.5625 32.8539 35.5898 32.725 35.6445C32.6 35.6992 32.4906 35.7734 32.3969 35.8672C32.3031 35.9609 32.2289 36.0723 32.1742 36.2012C32.1195 36.3262 32.0922 36.4609 32.0922 36.6055V36.8223L31.3715 36.7051V36.6465C31.3715 36.4043 31.4164 36.1758 31.5062 35.9609C31.6 35.7461 31.727 35.5586 31.8871 35.3984C32.0473 35.2383 32.2348 35.1133 32.4496 35.0234C32.6645 34.9297 32.893 34.8828 33.1352 34.8828H33.557C33.7992 34.8828 34.0277 34.9297 34.2426 35.0234C34.4574 35.1133 34.6449 35.2383 34.8051 35.3984C34.9652 35.5586 35.0902 35.7461 35.1801 35.9609C35.2738 36.1758 35.3207 36.4043 35.3207 36.6465V41H35.0805ZM34.6 38.0938H33.0766C32.932 38.0938 32.7953 38.1211 32.6664 38.1758C32.5414 38.2305 32.432 38.3066 32.3383 38.4043C32.2445 38.498 32.1703 38.6094 32.1156 38.7383C32.0609 38.8633 32.0336 38.998 32.0336 39.1426V39.3945C32.0336 39.5391 32.0609 39.6758 32.1156 39.8047C32.1703 39.9297 32.2445 40.0391 32.3383 40.1328C32.432 40.2266 32.5414 40.3008 32.6664 40.3555C32.7953 40.4102 32.932 40.4375 33.0766 40.4375H33.557C33.7016 40.4375 33.8363 40.4102 33.9613 40.3555C34.0902 40.3008 34.2016 40.2266 34.2953 40.1328C34.3891 40.0391 34.4633 39.9297 34.518 39.8047C34.5727 39.6758 34.6 39.5391 34.6 39.3945V38.0938ZM39.9292 41V36.6055C39.9292 36.4609 39.9019 36.3262 39.8472 36.2012C39.7925 36.0723 39.7183 35.9609 39.6245 35.8672C39.5308 35.7734 39.4195 35.6992 39.2905 35.6445C39.1655 35.5898 39.0308 35.5625 38.8862 35.5625H38.4058C38.2612 35.5625 38.1245 35.5898 37.9956 35.6445C37.8706 35.6992 37.7612 35.7734 37.6675 35.8672C37.5737 35.9609 37.4995 36.0723 37.4448 36.2012C37.3902 36.3262 37.3628 36.4609 37.3628 36.6055V41H36.6421V35H36.8823L37.2749 35.6094C37.439 35.3867 37.6441 35.2109 37.8902 35.082C38.1402 34.9492 38.4116 34.8828 38.7046 34.8828H38.8862C39.1284 34.8828 39.357 34.9297 39.5718 35.0234C39.7866 35.1133 39.9741 35.2383 40.1343 35.3984C40.2945 35.5586 40.4195 35.7461 40.5093 35.9609C40.603 36.1758 40.6499 36.4043 40.6499 36.6465V41H39.9292ZM45.5221 41L43.0729 38L45.5221 35H46.4596L43.9518 38L46.4596 41H45.5221ZM42.2116 41V32.5977H42.9323V41H42.2116ZM52.2255 33.3184V41H51.4696V33.3184H49.4657V32.5977H54.2294V33.3184H52.2255ZM56.4766 35.6855C56.332 35.6855 56.1953 35.7129 56.0664 35.7676C55.9414 35.8223 55.832 35.8965 55.7383 35.9902C55.6445 36.084 55.5703 36.1953 55.5156 36.3242C55.4609 36.4492 55.4336 36.584 55.4336 36.7285V41H54.7129V35H54.9531L55.3457 35.6094C55.5098 35.3867 55.7148 35.2109 55.9609 35.082C56.2109 34.9492 56.4824 34.8828 56.7754 34.8828H57.1973V35.6855H56.4766ZM61.8058 41L61.4073 40.4023C61.2433 40.6172 61.0382 40.791 60.7921 40.9238C60.546 41.0527 60.2765 41.1172 59.9835 41.1172H59.8019C59.5597 41.1172 59.3312 41.0723 59.1163 40.9824C58.9015 40.8887 58.714 40.7617 58.5538 40.6016C58.3937 40.4414 58.2667 40.2539 58.173 40.0391C58.0831 39.8242 58.0382 39.5957 58.0382 39.3535V39.2949C58.0382 39.0527 58.0831 38.8242 58.173 38.6094C58.2667 38.3945 58.3937 38.207 58.5538 38.0469C58.714 37.8867 58.9015 37.7617 59.1163 37.6719C59.3312 37.5781 59.5597 37.5312 59.8019 37.5312H61.3253V36.6055C61.3253 36.4609 61.298 36.3262 61.2433 36.2012C61.1886 36.0723 61.1144 35.9609 61.0206 35.8672C60.9269 35.7734 60.8155 35.6992 60.6866 35.6445C60.5616 35.5898 60.4269 35.5625 60.2823 35.5625H59.8605C59.7159 35.5625 59.5792 35.5898 59.4503 35.6445C59.3253 35.6992 59.2159 35.7734 59.1222 35.8672C59.0284 35.9609 58.9542 36.0723 58.8995 36.2012C58.8448 36.3262 58.8175 36.4609 58.8175 36.6055V36.8223L58.0968 36.7051V36.6465C58.0968 36.4043 58.1417 36.1758 58.2316 35.9609C58.3253 35.7461 58.4523 35.5586 58.6124 35.3984C58.7726 35.2383 58.9601 35.1133 59.1749 35.0234C59.3898 34.9297 59.6183 34.8828 59.8605 34.8828H60.2823C60.5245 34.8828 60.753 34.9297 60.9679 35.0234C61.1827 35.1133 61.3702 35.2383 61.5304 35.3984C61.6905 35.5586 61.8155 35.7461 61.9054 35.9609C61.9991 36.1758 62.046 36.4043 62.046 36.6465V41H61.8058ZM61.3253 38.0938H59.8019C59.6573 38.0938 59.5206 38.1211 59.3917 38.1758C59.2667 38.2305 59.1573 38.3066 59.0636 38.4043C58.9698 38.498 58.8956 38.6094 58.8409 38.7383C58.7862 38.8633 58.7589 38.998 58.7589 39.1426V39.3945C58.7589 39.5391 58.7862 39.6758 58.8409 39.8047C58.8956 39.9297 58.9698 40.0391 59.0636 40.1328C59.1573 40.2266 59.2667 40.3008 59.3917 40.3555C59.5206 40.4102 59.6573 40.4375 59.8019 40.4375H60.2823C60.4269 40.4375 60.5616 40.4102 60.6866 40.3555C60.8155 40.3008 60.9269 40.2266 61.0206 40.1328C61.1144 40.0391 61.1886 39.9297 61.2433 39.8047C61.298 39.6758 61.3253 39.5391 61.3253 39.3945V38.0938ZM66.6545 41V36.6055C66.6545 36.4609 66.6272 36.3262 66.5725 36.2012C66.5178 36.0723 66.4436 35.9609 66.3498 35.8672C66.2561 35.7734 66.1448 35.6992 66.0159 35.6445C65.8909 35.5898 65.7561 35.5625 65.6116 35.5625H65.1311C64.9866 35.5625 64.8498 35.5898 64.7209 35.6445C64.5959 35.6992 64.4866 35.7734 64.3928 35.8672C64.2991 35.9609 64.2248 36.0723 64.1702 36.2012C64.1155 36.3262 64.0881 36.4609 64.0881 36.6055V41H63.3674V35H63.6077L64.0002 35.6094C64.1643 35.3867 64.3694 35.2109 64.6155 35.082C64.8655 34.9492 65.137 34.8828 65.4299 34.8828H65.6116C65.8538 34.8828 66.0823 34.9297 66.2971 35.0234C66.512 35.1133 66.6995 35.2383 66.8596 35.3984C67.0198 35.5586 67.1448 35.7461 67.2346 35.9609C67.3284 36.1758 67.3752 36.4043 67.3752 36.6465V41H66.6545ZM72.8216 39.4766C72.8216 39.7188 72.7728 39.9414 72.6752 40.1445C72.5775 40.3438 72.4447 40.5156 72.2767 40.6602C72.1087 40.8047 71.9134 40.918 71.6908 41C71.472 41.0781 71.2416 41.1172 70.9994 41.1172H70.5189C70.2767 41.1172 70.0443 41.0723 69.8216 40.9824C69.6029 40.8887 69.4095 40.7617 69.2416 40.6016C69.0775 40.4414 68.9447 40.2539 68.8431 40.0391C68.7455 39.8242 68.6966 39.5957 68.6966 39.3535V39.1133L69.4173 38.9961V39.3945C69.4173 39.5391 69.4466 39.6758 69.5052 39.8047C69.5677 39.9297 69.6498 40.0391 69.7513 40.1328C69.8529 40.2266 69.9701 40.3008 70.1029 40.3555C70.2357 40.4102 70.3744 40.4375 70.5189 40.4375H70.9994C71.1439 40.4375 71.2826 40.416 71.4154 40.373C71.5482 40.3301 71.6654 40.2695 71.767 40.1914C71.8724 40.1094 71.9545 40.0117 72.013 39.8984C72.0755 39.7852 72.1068 39.6562 72.1068 39.5117C72.1068 39.2969 72.0599 39.1211 71.9662 38.9844C71.8724 38.8477 71.7474 38.7344 71.5912 38.6445C71.4388 38.5508 71.263 38.4746 71.0638 38.416C70.8685 38.3535 70.6673 38.293 70.4603 38.2344C70.2533 38.1719 70.0502 38.1016 69.8509 38.0234C69.6556 37.9453 69.4798 37.8438 69.3236 37.7188C69.1712 37.5898 69.0482 37.4297 68.9545 37.2383C68.8607 37.0469 68.8138 36.8086 68.8138 36.5234C68.8138 36.2812 68.8607 36.0605 68.9545 35.8613C69.0482 35.6582 69.1752 35.4844 69.3353 35.3398C69.4955 35.1953 69.681 35.084 69.892 35.0059C70.1068 34.9238 70.3353 34.8828 70.5775 34.8828H70.9994C71.2416 34.8828 71.4701 34.9297 71.6849 35.0234C71.8998 35.1133 72.0873 35.2383 72.2474 35.3984C72.4076 35.5586 72.5326 35.7461 72.6224 35.9609C72.7162 36.1758 72.763 36.4043 72.763 36.6465V36.6699L72.0423 36.7871V36.6055C72.0423 36.4609 72.015 36.3262 71.9603 36.2012C71.9056 36.0723 71.8314 35.9609 71.7377 35.8672C71.6439 35.7734 71.5326 35.6992 71.4037 35.6445C71.2787 35.5898 71.1439 35.5625 70.9994 35.5625H70.5775C70.433 35.5625 70.2962 35.584 70.1673 35.627C70.0423 35.6699 69.933 35.7324 69.8392 35.8145C69.7455 35.8926 69.6712 35.9883 69.6166 36.1016C69.5619 36.2148 69.5345 36.3438 69.5345 36.4883C69.5345 36.6953 69.5814 36.8652 69.6752 36.998C69.7689 37.127 69.892 37.2363 70.0443 37.3262C70.2005 37.416 70.3763 37.4922 70.5716 37.5547C70.7709 37.6133 70.972 37.6758 71.1752 37.7422C71.3822 37.8047 71.5834 37.877 71.7787 37.959C71.9779 38.041 72.1537 38.1465 72.306 38.2754C72.4623 38.4043 72.5873 38.5664 72.681 38.7617C72.7748 38.9531 72.8216 39.1914 72.8216 39.4766ZM76.1469 33.2832C76.0259 33.2832 75.9126 33.3066 75.8071 33.3535C75.7055 33.3965 75.6157 33.457 75.5376 33.5352C75.4594 33.6133 75.3969 33.7051 75.3501 33.8105C75.3071 33.916 75.2856 34.0293 75.2856 34.1504V35H76.686V35.6855H75.2856V41H74.5649V35.6855H73.4809V35H74.5649V34.1855C74.5649 33.9668 74.6059 33.7617 74.688 33.5703C74.77 33.375 74.8833 33.2051 75.0278 33.0605C75.1723 32.916 75.3403 32.8027 75.5317 32.7207C75.7231 32.6387 75.9282 32.5977 76.1469 32.5977H76.8091V33.2832H76.1469ZM81.4176 39.3535C81.4176 39.5957 81.3707 39.8242 81.277 40.0391C81.1871 40.2539 81.0621 40.4414 80.902 40.6016C80.7418 40.7617 80.5543 40.8887 80.3395 40.9824C80.1246 41.0723 79.8961 41.1172 79.6539 41.1172H79.1734C78.9313 41.1172 78.7027 41.0723 78.4879 40.9824C78.273 40.8887 78.0855 40.7617 77.9254 40.6016C77.7652 40.4414 77.6383 40.2539 77.5445 40.0391C77.4547 39.8242 77.4098 39.5957 77.4098 39.3535V36.6465C77.4098 36.4043 77.4547 36.1758 77.5445 35.9609C77.6383 35.7461 77.7652 35.5586 77.9254 35.3984C78.0855 35.2383 78.273 35.1133 78.4879 35.0234C78.7027 34.9297 78.9313 34.8828 79.1734 34.8828H79.6539C79.8961 34.8828 80.1246 34.9297 80.3395 35.0234C80.5543 35.1133 80.7418 35.2383 80.902 35.3984C81.0621 35.5586 81.1871 35.7461 81.277 35.9609C81.3707 36.1758 81.4176 36.4043 81.4176 36.6465V38.0586H78.1305V39.3945C78.1305 39.5391 78.1578 39.6758 78.2125 39.8047C78.2672 39.9297 78.3414 40.0391 78.4352 40.1328C78.5289 40.2266 78.6383 40.3008 78.7633 40.3555C78.8922 40.4102 79.0289 40.4375 79.1734 40.4375H79.6539C79.7984 40.4375 79.9332 40.4102 80.0582 40.3555C80.1871 40.3008 80.2984 40.2266 80.3922 40.1328C80.4859 40.0391 80.5602 39.9297 80.6148 39.8047C80.6695 39.6758 80.6969 39.5391 80.6969 39.3945V38.9961L81.4176 39.1133V39.3535ZM80.6969 36.6055C80.6969 36.4609 80.6695 36.3262 80.6148 36.2012C80.5602 36.0723 80.4859 35.9609 80.3922 35.8672C80.2984 35.7734 80.1871 35.6992 80.0582 35.6445C79.9332 35.5898 79.7984 35.5625 79.6539 35.5625H79.1734C79.0289 35.5625 78.8922 35.5898 78.7633 35.6445C78.6383 35.6992 78.5289 35.7734 78.4352 35.8672C78.3414 35.9609 78.2672 36.0723 78.2125 36.2012C78.1578 36.3262 78.1305 36.4609 78.1305 36.6055V37.4961H80.6969V36.6055ZM84.5027 35.6855C84.3581 35.6855 84.2214 35.7129 84.0925 35.7676C83.9675 35.8223 83.8581 35.8965 83.7644 35.9902C83.6706 36.084 83.5964 36.1953 83.5417 36.3242C83.487 36.4492 83.4597 36.584 83.4597 36.7285V41H82.739V35H82.9792L83.3718 35.6094C83.5359 35.3867 83.7409 35.2109 83.987 35.082C84.237 34.9492 84.5085 34.8828 84.8015 34.8828H85.2234V35.6855H84.5027Z" fill="black"/>
<path d="M42 19.7691H43.5758V18.6431L44.0742 17.5931V10.4856L43.5758 9.43558V8.83694H42V6.73698L53.9992 0H55.0245L67 6.73223V8.83219H65.4479V9.43082L64.921 10.4808V17.5884L65.4479 18.6383V19.7643H67V20.8143H42V19.7643V19.7691ZM42 21.8691H47.7528V22.8953H42V21.8691ZM42 23.9453H46.6991V24.9952H42V23.9453ZM65.951 7.78221V7.35462L54.7777 1.10224H54.2793L43.049 7.35937V7.78696H65.951V7.78221ZM46.3763 9.85842L46.7038 9.25979V8.83219H44.6296V9.25979L44.9049 9.85842H46.3811H46.3763ZM46.7038 19.7691V18.8189L46.3763 18.2203H44.9001L44.6248 18.8189V19.7691H46.6991H46.7038ZM46.177 17.1655V10.9084H45.128V17.1655H46.177ZM49.827 19.7691V10.3858H59.2014V19.7691H61.2757V18.6431L61.8025 17.5931V10.4856L61.2757 9.43558V8.83694H47.7528V9.43558L47.2022 10.4856V17.5931L47.7528 18.6431V19.7691H49.827ZM47.7528 23.95H61.2804V25H47.7528V23.95ZM48.7781 21.8738H60.2552V22.9H48.7733V21.8738H48.7781ZM54.004 19.7738V11.4405H50.8808V19.7738H54.004ZM54.5024 3.10718C55.6273 3.10718 56.5766 4.00988 56.5766 5.18339C56.5766 6.3569 55.6273 7.2596 54.5024 7.2596C53.3774 7.2596 52.4281 6.3569 52.4281 5.18339C52.4281 4.00988 53.3774 3.10718 54.5024 3.10718ZM54.5024 4.13341C53.928 4.13341 53.4534 4.60851 53.4534 5.18339C53.4534 5.75827 53.928 6.23337 54.5024 6.23337C55.0767 6.23337 55.5514 5.75827 55.5514 5.18339C55.5514 4.60851 55.1004 4.13341 54.5024 4.13341ZM58.1525 19.7738V11.4405H55.0292V19.7738H58.1525ZM61.2757 21.8738H67V22.9H61.2757V21.8738ZM64.0999 9.86317L64.3989 9.26454V8.83694H62.3247V9.26454L62.6237 9.86317H64.0999ZM64.3989 19.7738V18.8236L64.0999 18.225H62.6237L62.3247 18.8236V19.7738H64.3989ZM62.3247 23.9548H67V25.0048H62.3247V23.9548ZM63.8768 17.175V10.9179H62.8278V17.175H63.8768Z" fill="black"/>
</svg>
