<svg width="110" height="53" viewBox="0 0 110 53" fill="none" xmlns="http://www.w3.org/2000/svg">
<path d="M41.4878 41H41.2476L40.8081 40.3262C40.6245 40.5684 40.4019 40.7617 40.1402 40.9062C39.8784 41.0469 39.5874 41.1172 39.2671 41.1172H38.8277C38.5425 41.1172 38.273 41.0645 38.0191 40.959C37.7691 40.8496 37.5503 40.7012 37.3628 40.5137C37.1753 40.3262 37.0269 40.1074 36.9175 39.8574C36.812 39.6074 36.7593 39.3398 36.7593 39.0547V34.543C36.7593 34.2578 36.812 33.9902 36.9175 33.7402C37.0269 33.4902 37.1753 33.2715 37.3628 33.084C37.5503 32.8965 37.7691 32.75 38.0191 32.6445C38.273 32.5352 38.5425 32.4805 38.8277 32.4805H39.4253C39.7105 32.4805 39.978 32.5352 40.228 32.6445C40.478 32.75 40.6968 32.8965 40.8843 33.084C41.0718 33.2715 41.2183 33.4902 41.3237 33.7402C41.4331 33.9902 41.4878 34.2578 41.4878 34.543V34.8828L40.732 35V34.543C40.732 34.3555 40.6968 34.1816 40.6265 34.0215C40.5562 33.8574 40.4605 33.7148 40.3394 33.5938C40.2183 33.4727 40.0757 33.377 39.9116 33.3066C39.7515 33.2363 39.5777 33.2012 39.3902 33.2012H38.8628C38.6753 33.2012 38.4995 33.2363 38.3355 33.3066C38.1753 33.377 38.0327 33.4727 37.9077 33.5938C37.7866 33.7148 37.6909 33.8574 37.6206 34.0215C37.5503 34.1816 37.5152 34.3555 37.5152 34.543V39.0547C37.5152 39.2422 37.5503 39.418 37.6206 39.582C37.6909 39.7422 37.7866 39.8848 37.9077 40.0098C38.0327 40.1309 38.1753 40.2266 38.3355 40.2969C38.4995 40.3672 38.6753 40.4023 38.8628 40.4023H39.3902C39.5777 40.4023 39.7515 40.3672 39.9116 40.2969C40.0757 40.2266 40.2183 40.1309 40.3394 40.0098C40.4605 39.8848 40.5562 39.7422 40.6265 39.582C40.6968 39.418 40.732 39.2422 40.732 39.0547V37.3027H39.3902V36.582H41.4878V41ZM42.9967 33.5586V32.5977H43.8346V33.5586H42.9967ZM43.0553 41V35H43.776V41H43.0553ZM47.406 33.2832C47.2849 33.2832 47.1716 33.3066 47.0662 33.3535C46.9646 33.3965 46.8748 33.457 46.7966 33.5352C46.7185 33.6133 46.656 33.7051 46.6091 33.8105C46.5662 33.916 46.5447 34.0293 46.5447 34.1504V35H47.9451V35.6855H46.5447V41H45.824V35.6855H44.74V35H45.824V34.1855C45.824 33.9668 45.865 33.7617 45.947 33.5703C46.0291 33.375 46.1423 33.2051 46.2869 33.0605C46.4314 32.916 46.5994 32.8027 46.7908 32.7207C46.9822 32.6387 47.1873 32.5977 47.406 32.5977H48.0681V33.2832H47.406ZM50.8544 41C50.6356 41 50.4286 40.959 50.2333 40.877C50.0419 40.7949 49.8739 40.6816 49.7294 40.5371C49.5887 40.3926 49.4755 40.2246 49.3895 40.0332C49.3075 39.8418 49.2665 39.6367 49.2665 39.418V35.6855H48.1884V35H49.2665V33.5586L49.9872 33.4414V35H51.5106V35.6855H49.9872V39.4531C49.9872 39.5742 50.0087 39.6875 50.0516 39.793C50.0985 39.8945 50.161 39.9844 50.2391 40.0625C50.3173 40.1406 50.4091 40.2031 50.5145 40.25C50.62 40.293 50.7333 40.3145 50.8544 40.3145H51.5106V41H50.8544ZM59.3741 39.3535C59.3741 39.5957 59.3273 39.8242 59.2335 40.0391C59.1437 40.2539 59.0187 40.4414 58.8585 40.6016C58.6984 40.7617 58.5109 40.8887 58.296 40.9824C58.0812 41.0723 57.8527 41.1172 57.6105 41.1172H57.13C56.8878 41.1172 56.6593 41.0723 56.4445 40.9824C56.2296 40.8887 56.0421 40.7617 55.882 40.6016C55.7218 40.4414 55.5948 40.2539 55.5011 40.0391C55.4112 39.8242 55.3663 39.5957 55.3663 39.3535V36.6465C55.3663 36.4043 55.4112 36.1758 55.5011 35.9609C55.5948 35.7461 55.7218 35.5586 55.882 35.3984C56.0421 35.2383 56.2296 35.1133 56.4445 35.0234C56.6593 34.9297 56.8878 34.8828 57.13 34.8828H57.6105C57.8527 34.8828 58.0812 34.9297 58.296 35.0234C58.5109 35.1133 58.6984 35.2383 58.8585 35.3984C59.0187 35.5586 59.1437 35.7461 59.2335 35.9609C59.3273 36.1758 59.3741 36.4043 59.3741 36.6465V36.8867L58.6534 37.0039V36.6055C58.6534 36.4609 58.6261 36.3262 58.5714 36.2012C58.5167 36.0723 58.4425 35.9609 58.3487 35.8672C58.255 35.7734 58.1437 35.6992 58.0148 35.6445C57.8898 35.5898 57.755 35.5625 57.6105 35.5625H57.13C56.9855 35.5625 56.8487 35.5898 56.7198 35.6445C56.5948 35.6992 56.4855 35.7734 56.3917 35.8672C56.298 35.9609 56.2237 36.0723 56.1691 36.2012C56.1144 36.3262 56.087 36.4609 56.087 36.6055V39.3945C56.087 39.5391 56.1144 39.6758 56.1691 39.8047C56.2237 39.9297 56.298 40.0391 56.3917 40.1328C56.4855 40.2266 56.5948 40.3008 56.7198 40.3555C56.8487 40.4102 56.9855 40.4375 57.13 40.4375H57.6105C57.755 40.4375 57.8898 40.4102 58.0148 40.3555C58.1437 40.3008 58.255 40.2266 58.3487 40.1328C58.4425 40.0391 58.5167 39.9297 58.5714 39.8047C58.6261 39.6758 58.6534 39.5391 58.6534 39.3945V38.9961L59.3741 39.1133V39.3535ZM64.4631 41L64.0647 40.4023C63.9006 40.6172 63.6955 40.791 63.4495 40.9238C63.2034 41.0527 62.9338 41.1172 62.6409 41.1172H62.4592C62.217 41.1172 61.9885 41.0723 61.7737 40.9824C61.5588 40.8887 61.3713 40.7617 61.2112 40.6016C61.051 40.4414 60.9241 40.2539 60.8303 40.0391C60.7405 39.8242 60.6955 39.5957 60.6955 39.3535V39.2949C60.6955 39.0527 60.7405 38.8242 60.8303 38.6094C60.9241 38.3945 61.051 38.207 61.2112 38.0469C61.3713 37.8867 61.5588 37.7617 61.7737 37.6719C61.9885 37.5781 62.217 37.5312 62.4592 37.5312H63.9827V36.6055C63.9827 36.4609 63.9553 36.3262 63.9006 36.2012C63.8459 36.0723 63.7717 35.9609 63.678 35.8672C63.5842 35.7734 63.4729 35.6992 63.344 35.6445C63.219 35.5898 63.0842 35.5625 62.9397 35.5625H62.5178C62.3733 35.5625 62.2366 35.5898 62.1077 35.6445C61.9827 35.6992 61.8733 35.7734 61.7795 35.8672C61.6858 35.9609 61.6116 36.0723 61.5569 36.2012C61.5022 36.3262 61.4748 36.4609 61.4748 36.6055V36.8223L60.7541 36.7051V36.6465C60.7541 36.4043 60.7991 36.1758 60.8889 35.9609C60.9827 35.7461 61.1096 35.5586 61.2698 35.3984C61.4299 35.2383 61.6174 35.1133 61.8323 35.0234C62.0471 34.9297 62.2756 34.8828 62.5178 34.8828H62.9397C63.1819 34.8828 63.4104 34.9297 63.6252 35.0234C63.8401 35.1133 64.0276 35.2383 64.1877 35.3984C64.3479 35.5586 64.4729 35.7461 64.5627 35.9609C64.6565 36.1758 64.7034 36.4043 64.7034 36.6465V41H64.4631ZM63.9827 38.0938H62.4592C62.3147 38.0938 62.178 38.1211 62.0491 38.1758C61.9241 38.2305 61.8147 38.3066 61.7209 38.4043C61.6272 38.498 61.553 38.6094 61.4983 38.7383C61.4436 38.8633 61.4163 38.998 61.4163 39.1426V39.3945C61.4163 39.5391 61.4436 39.6758 61.4983 39.8047C61.553 39.9297 61.6272 40.0391 61.7209 40.1328C61.8147 40.2266 61.9241 40.3008 62.0491 40.3555C62.178 40.4102 62.3147 40.4375 62.4592 40.4375H62.9397C63.0842 40.4375 63.219 40.4102 63.344 40.3555C63.4729 40.3008 63.5842 40.2266 63.678 40.1328C63.7717 40.0391 63.8459 39.9297 63.9006 39.8047C63.9553 39.6758 63.9827 39.5391 63.9827 39.3945V38.0938ZM67.7884 35.6855C67.6439 35.6855 67.5072 35.7129 67.3783 35.7676C67.2533 35.8223 67.1439 35.8965 67.0502 35.9902C66.9564 36.084 66.8822 36.1953 66.8275 36.3242C66.7728 36.4492 66.7455 36.584 66.7455 36.7285V41H66.0248V35H66.265L66.6576 35.6094C66.8216 35.3867 67.0267 35.2109 67.2728 35.082C67.5228 34.9492 67.7943 34.8828 68.0873 34.8828H68.5091V35.6855H67.7884ZM73.1177 41L72.7192 40.3906C72.5552 40.6133 72.3501 40.791 72.104 40.9238C71.8579 41.0527 71.5884 41.1172 71.2954 41.1172H71.1138C70.8716 41.1172 70.6431 41.0723 70.4282 40.9824C70.2134 40.8887 70.0259 40.7617 69.8657 40.6016C69.7056 40.4414 69.5786 40.2539 69.4848 40.0391C69.395 39.8242 69.3501 39.5957 69.3501 39.3535V36.6465C69.3501 36.4043 69.395 36.1758 69.4848 35.9609C69.5786 35.7461 69.7056 35.5586 69.8657 35.3984C70.0259 35.2383 70.2134 35.1133 70.4282 35.0234C70.6431 34.9297 70.8716 34.8828 71.1138 34.8828H71.2954C71.5649 34.8828 71.8149 34.9375 72.0454 35.0469C72.2759 35.1562 72.4731 35.3086 72.6372 35.5039V32.5977H73.3579V41H73.1177ZM72.6372 36.6055C72.6372 36.4609 72.6098 36.3262 72.5552 36.2012C72.5005 36.0723 72.4263 35.9609 72.3325 35.8672C72.2388 35.7734 72.1274 35.6992 71.9985 35.6445C71.8735 35.5898 71.7388 35.5625 71.5942 35.5625H71.1138C70.9692 35.5625 70.8325 35.5898 70.7036 35.6445C70.5786 35.6992 70.4692 35.7734 70.3755 35.8672C70.2817 35.9609 70.2075 36.0723 70.1528 36.2012C70.0981 36.3262 70.0708 36.4609 70.0708 36.6055V39.3945C70.0708 39.5391 70.0981 39.6758 70.1528 39.8047C70.2075 39.9297 70.2817 40.0391 70.3755 40.1328C70.4692 40.2266 70.5786 40.3008 70.7036 40.3555C70.8325 40.4102 70.9692 40.4375 71.1138 40.4375H71.5942C71.7388 40.4375 71.8735 40.4102 71.9985 40.3555C72.1274 40.3008 72.2388 40.2266 72.3325 40.1328C72.4263 40.0391 72.5005 39.9297 72.5552 39.8047C72.6098 39.6758 72.6372 39.5391 72.6372 39.3945V36.6055Z" fill="black"/>
<path d="M61.9764 18.1232H59.4017V11.6363H61.9764V18.1232ZM64.5806 11.6363H63.2785V18.1232H64.5806V11.6363ZM67.1553 11.6363H65.8532V18.1232H67.1553V11.6363ZM58.0937 11.6363H56.8211V18.1232H58.0937V11.6363ZM52.9443 11.6363H50.3401V18.1232H52.9443V11.6363ZM49.0675 11.6363H47.7654V18.1232H49.0675V11.6363ZM46.4633 11.6363H43.8886V18.1232H46.4633V11.6363ZM71.038 4.27745V20.0498C71.038 21.1339 70.1955 22 69.1114 22H41.9561C40.8425 22 40 21.1339 40 20.0498V1.95608C40 0.836636 40.8425 0 41.9561 0H54.9593H69.082C70.2014 0 71.038 0.836636 71.038 1.95608V4.27745ZM69.73 10.3637H41.308V20.0498C41.308 20.4505 41.5554 20.6979 41.9561 20.6979H69.1114C69.5179 20.6979 69.73 20.4505 69.73 20.0498V10.3637ZM50.8174 9.0616H53.9164L51.7836 6.92876C51.5362 6.71077 51.2887 6.58704 50.947 6.58704C50.4167 6.58704 50.0161 6.8993 49.7981 7.39422C49.6743 7.7654 49.6743 8.20139 49.9218 8.54312C50.0691 8.86717 50.4403 9.04392 50.8232 9.0616H50.8174ZM57.0332 9.0616H60.1323C60.5153 9.04392 60.8864 8.86717 61.0927 8.54312C61.3696 8.20139 61.4344 7.7654 61.2164 7.39422C61.0632 6.99357 60.6272 6.68131 60.256 6.58704C59.8848 6.49277 59.4783 6.58704 59.1366 6.92876L57.0332 9.0616ZM58.2351 6.02732C58.5121 5.7504 58.6711 5.28495 58.5769 4.90787C58.4531 4.31869 57.9582 3.8827 57.3337 3.8827C57.0862 3.8827 56.8388 3.94751 56.6208 4.07124C56.3439 4.31869 56.1259 4.72523 56.1259 5.12587V8.13658L58.2351 6.02732ZM54.8238 5.12587C54.8238 4.66042 54.6352 4.28923 54.2935 4.07124C54.0755 3.94751 53.8575 3.8827 53.6101 3.8827C52.9914 3.8827 52.4906 4.31869 52.3669 4.90787C52.3374 5.27906 52.4317 5.68559 52.6792 6.02732L54.8179 8.13658V5.12587H54.8238ZM69.7359 1.95608C69.7359 1.55544 69.4885 1.30209 69.082 1.30209H54.9593H41.9561C41.5554 1.30209 41.308 1.54954 41.308 1.95608V9.0616H48.7375C48.5844 8.66095 48.4312 8.28977 48.4312 7.79486C48.4312 7.51794 48.496 7.17622 48.6197 6.83449C48.8966 6.05678 49.6449 5.50295 50.4815 5.28495C50.6995 5.25549 50.9175 5.22603 51.0707 5.22603C51.0707 5.07284 51.0707 4.8195 51.165 4.60739C51.383 3.24049 52.7499 2.33905 54.1109 2.59239C54.4821 2.62185 54.8238 2.81039 55.1066 2.96358C55.2303 3.05785 55.3835 3.24049 55.5426 3.36422C55.6663 3.24049 55.79 3.11677 56.008 2.96358C57.0921 2.18586 58.7418 2.43332 59.4842 3.64703C59.7022 3.98875 59.7965 4.26567 59.8848 4.60739C59.9143 4.82539 59.9497 5.07284 59.9497 5.22603C60.1677 5.22603 60.3503 5.25549 60.5094 5.28495C61.3755 5.50295 62.0589 6.09213 62.4006 6.83449C62.7424 7.57686 62.6481 8.4135 62.2828 9.0616H69.7418V4.27745V1.95608H69.7359ZM55.5249 11.6363H54.2228V18.1232H55.5249V11.6363Z" fill="black"/>
</svg>
