<svg width="54" height="12" viewBox="0 0 54 12" fill="none" xmlns="http://www.w3.org/2000/svg">
<g clip-path="url(#clip0_312_5705)">
<path d="M9.46159 0H6.8142C6.81864 1.06077 6.57335 2.1077 6.09817 3.0561C5.62299 4.0045 4.93126 4.82775 4.07894 5.45926L3.03125 6.24333L7.08683 11.7792H10.4282L6.69253 6.68494C7.57444 5.81005 8.27346 4.76843 8.74885 3.62074C9.22425 2.47305 9.46654 1.24224 9.46159 0Z" fill="black"/>
<path d="M0 11.7792H2.71048V0H0V11.7792Z" fill="black"/>
<path d="M11.2188 11.7749H13.7715V0.00244141H11.2188V11.7749Z" fill="black"/>
<path d="M36.1575 3.41369C35.1842 3.41369 34.2627 3.7156 33.6476 4.54023V3.63224H31.2188V11.7749H33.6769V7.49405C33.6769 6.25484 34.506 5.64876 35.5064 5.64876C36.5789 5.64876 37.194 6.28864 37.194 7.47602V11.7749H39.6296V6.59281C39.6296 4.69795 38.1222 3.40918 36.1575 3.40918V3.41369Z" fill="black"/>
<path d="M19.2644 9.79878C18.6939 9.81331 18.1409 9.60081 17.7269 9.20793C17.3129 8.81505 17.0717 8.27393 17.0564 7.7034C17.0876 7.13862 17.334 6.60726 17.7449 6.2185C18.1558 5.82974 18.6999 5.6131 19.2656 5.6131C19.8312 5.6131 20.3754 5.82974 20.7862 6.2185C21.1971 6.60726 21.4435 7.13862 21.4747 7.7034C21.4594 8.27433 21.2179 8.8158 20.8034 9.20874C20.3889 9.60168 19.8354 9.81392 19.2644 9.79878ZM21.4815 3.63205V4.15251C20.9255 3.77374 20.2884 3.5308 19.6214 3.44327C18.9544 3.35573 18.2761 3.42604 17.6412 3.64853C17.0064 3.87103 16.4326 4.23948 15.9662 4.72424C15.4997 5.209 15.1536 5.79652 14.9557 6.43948C14.7578 7.08244 14.7137 7.76289 14.8268 8.42604C14.94 9.08918 15.2073 9.7165 15.6071 10.2575C16.007 10.7984 16.5284 11.238 17.1292 11.5406C17.73 11.8433 18.3934 12.0007 19.0662 12.0001C19.927 12.0051 20.7692 11.749 21.4815 11.2655V11.786H23.9216V3.63205H21.4815Z" fill="black"/>
<path d="M27.6957 4.69304V3.63184H25.1992V11.7745H27.7002V7.97356C27.7002 6.68929 29.0903 5.99984 30.0569 5.99984H30.0839V3.63184C29.0948 3.63184 28.1846 4.05542 27.6957 4.69304Z" fill="black"/>
<path d="M44.9887 9.79878C44.4182 9.81331 43.8652 9.60081 43.4512 9.20793C43.0372 8.81506 42.796 8.27393 42.7807 7.7034C42.812 7.13862 43.0583 6.60726 43.4692 6.2185C43.8801 5.82974 44.4242 5.6131 44.9899 5.6131C45.5555 5.6131 46.0997 5.82974 46.5105 6.2185C46.9214 6.60726 47.1678 7.13862 47.199 7.7034C47.1837 8.27433 46.9422 8.81581 46.5277 9.20875C46.1133 9.60169 45.5597 9.81392 44.9887 9.79878ZM47.208 3.63205V4.15251C46.5623 3.71258 45.8088 3.45705 45.0287 3.41344C44.2485 3.36982 43.4713 3.53977 42.7805 3.905C42.0898 4.27022 41.5117 4.81689 41.1085 5.48618C40.7053 6.15546 40.4922 6.92204 40.4922 7.7034C40.4922 8.48476 40.7053 9.25133 41.1085 9.92062C41.5117 10.5899 42.0898 11.1366 42.7805 11.5018C43.4713 11.867 44.2485 12.037 45.0287 11.9934C45.8088 11.9497 46.5623 11.6942 47.208 11.2543V11.7747H49.6459V3.63205H47.208Z" fill="black"/>
<path d="M52.2375 8.88623C51.9344 8.88579 51.6379 8.97526 51.3857 9.14334C51.1334 9.31142 50.9367 9.55055 50.8204 9.83046C50.7041 10.1104 50.6734 10.4185 50.7323 10.7159C50.7912 11.0132 50.9369 11.2864 51.1511 11.5009C51.3653 11.7154 51.6382 11.8615 51.9355 11.9208C52.2328 11.9801 52.5409 11.9499 52.821 11.834C53.1011 11.7181 53.3405 11.5218 53.509 11.2698C53.6774 11.0178 53.7673 10.7215 53.7673 10.4183C53.7676 10.2172 53.7283 10.0181 53.6515 9.8322C53.5748 9.64633 53.4621 9.47741 53.3201 9.33511C53.178 9.19281 53.0092 9.07992 52.8235 9.0029C52.6377 8.92588 52.4386 8.88623 52.2375 8.88623Z" fill="black"/>
</g>
<defs>
<clipPath id="clip0_312_5705">
<rect width="53.7657" height="12" fill="white"/>
</clipPath>
</defs>
</svg>
