<svg width="78" height="20" viewBox="0 0 78 20" fill="none" xmlns="http://www.w3.org/2000/svg">
<g clip-path="url(#clip0_312_5717)">
<path d="M15.2457 4.66748H12.3398V15.2587H15.2457V4.66748Z" fill="black"/>
<path d="M37.4844 15.2588V4.66748H40.4328V12.846H44.3418V15.2588H37.4844Z" fill="black"/>
<path d="M52.7204 12.846V15.2588H45.2852V4.66748H52.7079V7.0745H48.1913V8.83107H52.5078V11.0553H48.1913V12.846H52.7204Z" fill="black"/>
<path d="M70.4326 9.76021L74.4393 4.66733H70.3236L66.6146 9.54344V4.66733H63.0153V15.2584H66.6146V10.3822L73.0168 18.1273C71.3562 19.0816 69.4436 19.5795 67.4964 19.5647C61.6838 19.5647 57.2578 15.4181 57.2578 9.95992C57.2578 4.50796 61.6837 0.361328 67.4964 0.361328C73.309 0.361328 77.7342 4.50796 77.7342 9.95992C77.7536 12.1065 77.0139 14.1985 75.631 15.9087L70.4326 9.76021Z" fill="black"/>
<path d="M23.0705 11.2209C23.7083 10.9718 24.25 10.5463 24.6236 10.0012C24.9972 9.45605 25.185 8.81709 25.1618 8.16937C25.1618 5.8426 23.3928 4.66748 20.2194 4.66748H16.5898V15.2585H19.4958V10.8214L22.5172 15.2587H25.9465L23.0705 11.2209ZM20.3103 10.1086H19.4958V6.91495H20.3284C21.508 6.91495 22.2797 7.39985 22.2797 8.47764C22.2798 9.57816 21.4593 10.1086 20.3103 10.1086Z" fill="black"/>
<path d="M6.50979 6.98284C4.69833 6.98284 3.4456 8.33429 3.4456 9.95969C3.4456 11.5909 4.69833 12.9371 6.50979 12.9371C7.06494 12.935 7.61001 12.7978 8.09168 12.5389C8.57335 12.2799 8.97514 11.9082 9.25776 11.4599L11.5009 12.8345C10.9748 13.6455 10.2317 14.3132 9.34541 14.7714C8.4591 15.2295 7.46043 15.4622 6.44861 15.4462C3.03262 15.4462 0.515625 13.0513 0.515625 9.95969C0.515625 6.87426 3.03262 4.47866 6.44868 4.47866C7.46467 4.45209 8.47007 4.6782 9.36278 5.13404C10.2555 5.58988 11.0037 6.25921 11.5315 7.07406L9.23293 8.48853C8.6196 7.57599 7.74349 6.98284 6.50979 6.98284Z" fill="black"/>
<path d="M31.7371 6.98283C29.925 6.98283 28.6725 8.33428 28.6725 9.95969C28.6725 11.5909 29.925 12.9371 31.7371 12.9371C32.2922 12.935 32.8373 12.7978 33.3189 12.5389C33.8005 12.2799 34.2022 11.9082 34.4847 11.4599L36.7283 12.8345C36.2021 13.6454 35.459 14.313 34.5727 14.7712C33.6864 15.2293 32.6878 15.462 31.676 15.4462C28.2591 15.4462 25.7422 13.0513 25.7422 9.95969C25.7422 6.87425 28.2591 4.47865 31.676 4.47865C32.6919 4.45213 33.6972 4.67827 34.5898 5.13411C35.4824 5.58995 36.2305 6.25925 36.7581 7.07405L34.4602 8.48853C33.8461 7.57592 32.9708 6.98283 31.7371 6.98283Z" fill="black"/>
</g>
<defs>
<clipPath id="clip0_312_5717">
<rect width="78" height="20" fill="white"/>
</clipPath>
</defs>
</svg>
