<svg width="63" height="63" viewBox="0 0 63 63" fill="none" xmlns="http://www.w3.org/2000/svg">
<g clip-path="url(#clip0_616_5152)">
<path d="M40.81 24.73C40.81 29.98 36.54 34.26 31.28 34.26C26.02 34.26 21.75 29.99 21.75 24.73C21.75 19.47 26.02 15.2 31.28 15.2C36.54 15.2 40.81 19.47 40.81 24.73ZM42.56 45.24C41.68 43.55 40.24 42.54 38.71 42.54H23.85C22.32 42.54 20.88 43.55 20 45.24L13.75 57.19C18.75 60.58 24.78 62.56 31.28 62.56C37.78 62.56 43.81 60.58 48.81 57.19L42.56 45.24ZM62.56 31.28C62.56 41.08 58.05 49.82 51 55.56L44.95 43.99C43.59 41.39 41.26 39.85 38.71 39.85H23.85C21.3 39.85 18.96 41.4 17.61 43.99L11.56 55.56C4.51 49.82 0 41.08 0 31.28C0 14.01 14.01 0 31.28 0C48.55 0 62.56 14.01 62.56 31.28ZM43.51 24.73C43.51 17.99 38.02 12.5 31.28 12.5C24.54 12.5 19.05 17.99 19.05 24.73C19.05 31.47 24.54 36.96 31.28 36.96C38.02 36.96 43.51 31.47 43.51 24.73Z" fill="#E2E1E1"/>
</g>
<defs>
<clipPath id="clip0_616_5152">
<rect width="62.56" height="62.56" fill="white"/>
</clipPath>
</defs>
</svg>
